Trocchi.ufo
<glyph name="exclam" format="1">
  <advance width="418"/>
  <unicode hex="0021"/>
  <outline>
    <contour>
      <point x="236" y="247" type="line"/>
      <point x="189" y="247" type="line"/>
      <point x="129" y="722" type="line"/>
      <point x="296" y="722" type="line"/>
    </contour>
    <contour>
      <point x="301" y="90" type="curve" smooth="yes"/>
      <point x="301" y="140"/>
      <point x="260" y="180"/>
      <point x="211" y="180" type="curve" smooth="yes"/>
      <point x="162" y="180"/>
      <point x="121" y="140"/>
      <point x="121" y="90" type="curve" smooth="yes"/>
      <point x="121" y="41"/>
      <point x="162" y="0"/>
      <point x="211" y="0" type="curve" smooth="yes"/>
      <point x="260" y="0"/>
      <point x="301" y="41"/>
    </contour>
    <contour>
      <point x="208.0" y="722.0" type="move" name="top"/>
    </contour>
    <contour>
      <point x="378.0" y="10.0" type="move" name="ogonek"/>
    </contour>
  </outline>
</glyph>
<glyph name="quotedbl" format="1">
  <advance width="326"/>
  <unicode hex="0022"/>
  <outline>
    <contour>
      <point x="175" y="729"/>
      <point x="194" y="750"/>
      <point x="229" y="750" type="curve"/>
      <point x="266" y="750"/>
      <point x="281" y="729"/>
      <point x="281" y="702" type="curve" smooth="yes"/>
      <point x="281" y="699"/>
      <point x="246" y="450"/>
      <point x="246" y="450" type="curve" smooth="yes"/>
      <point x="245" y="440"/>
      <point x="236" y="435"/>
      <point x="228" y="435" type="curve" smooth="yes"/>
      <point x="220" y="435"/>
      <point x="212" y="440"/>
      <point x="210" y="450" type="curve" smooth="yes"/>
      <point x="210" y="450"/>
      <point x="175" y="699"/>
      <point x="175" y="702" type="curve" smooth="yes"/>
    </contour>
    <contour>
      <point x="38" y="729"/>
      <point x="57" y="750"/>
      <point x="92" y="750" type="curve"/>
      <point x="129" y="750"/>
      <point x="144" y="729"/>
      <point x="144" y="702" type="curve" smooth="yes"/>
      <point x="144" y="699"/>
      <point x="109" y="450"/>
      <point x="109" y="450" type="curve" smooth="yes"/>
      <point x="108" y="440"/>
      <point x="99" y="435"/>
      <point x="91" y="435" type="curve" smooth="yes"/>
      <point x="83" y="435"/>
      <point x="75" y="440"/>
      <point x="73" y="450" type="curve" smooth="yes"/>
      <point x="73" y="450"/>
      <point x="38" y="699"/>
      <point x="38" y="702" type="curve" smooth="yes"/>
    </contour>
    <contour>
      <point x="134.0" y="715.0" type="move" name="top"/>
    </contour>
    <contour>
      <point x="344.0" y="-163.0" type="move" name="ogonek"/>
    </contour>
    <contour>
      <point x="134.0" y="715.0" type="move" name="top"/>
    </contour>
    <contour>
      <point x="344.0" y="-163.0" type="move" name="ogonek"/>
    </contour>
  </outline>
</glyph>
<glyph name="numbersign" format="1">
  <advance width="632"/>
  <unicode hex="0023"/>
  <outline>
    <contour>
      <point x="33" y="322" type="line"/>
      <point x="564" y="322" type="line"/>
      <point x="564" y="244" type="line"/>
      <point x="33" y="244" type="line"/>
    </contour>
    <contour>
      <point x="590" y="762" type="line"/>
      <point x="351" y="-53" type="line"/>
      <point x="271" y="-31" type="line"/>
      <point x="510" y="784" type="line"/>
    </contour>
    <contour>
      <point x="287" y="784" type="line"/>
      <point x="367" y="762" type="line"/>
      <point x="128" y="-53" type="line"/>
      <point x="48" y="-31" type="line"/>
    </contour>
    <contour>
      <point x="80" y="524" type="line"/>
      <point x="611" y="524" type="line"/>
      <point x="611" y="446" type="line"/>
      <point x="80" y="446" type="line"/>
    </contour>
  </outline>
</glyph>
<glyph name="dollar" format="1">
  <advance width="681.013607947"/>
  <unicode hex="0024"/>
  <outline>
    <contour>
      <point x="321.0" y="810.0" type="line"/>
      <point x="321.0" y="-94.0" type="line"/>
      <point x="368.0" y="-93.0" type="line"/>
      <point x="368.0" y="811.0" type="line"/>
    </contour>
    <component base="S"/>
    <contour>
      <point x="53.0" y="453.0" type="move" name="top"/>
    </contour>
  </outline>
</glyph>
<glyph name="percent" format="1">
  <advance width="893"/>
  <unicode hex="0025"/>
  <outline>
    <contour>
      <point x="150" y="671"/>
      <point x="122" y="612"/>
      <point x="122" y="552" type="curve" smooth="yes"/>
      <point x="122" y="489"/>
      <point x="154" y="426"/>
      <point x="220" y="426" type="curve" smooth="yes"/>
      <point x="285" y="426"/>
      <point x="316" y="488"/>
      <point x="316" y="551" type="curve" smooth="yes"/>
      <point x="316" y="611"/>
      <point x="288" y="671"/>
      <point x="219" y="671" type="curve" smooth="yes"/>
    </contour>
    <contour>
      <point x="87" y="361"/>
      <point x="23" y="455"/>
      <point x="23" y="549" type="curve" smooth="yes"/>
      <point x="23" y="643"/>
      <point x="88" y="738"/>
      <point x="219" y="738" type="curve" smooth="yes"/>
      <point x="349" y="738"/>
      <point x="414" y="643"/>
      <point x="414" y="548" type="curve" smooth="yes"/>
      <point x="414" y="455"/>
      <point x="351" y="361"/>
      <point x="220" y="361" type="curve" smooth="yes"/>
    </contour>
    <contour>
      <point x="553" y="-18"/>
      <point x="489" y="76"/>
      <point x="489" y="170" type="curve" smooth="yes"/>
      <point x="489" y="264"/>
      <point x="554" y="359"/>
      <point x="685" y="359" type="curve" smooth="yes"/>
      <point x="815" y="359"/>
      <point x="880" y="264"/>
      <point x="880" y="169" type="curve" smooth="yes"/>
      <point x="880" y="76"/>
      <point x="817" y="-18"/>
      <point x="686" y="-18" type="curve" smooth="yes"/>
    </contour>
    <contour>
      <point x="616" y="292"/>
      <point x="588" y="233"/>
      <point x="588" y="173" type="curve" smooth="yes"/>
      <point x="588" y="110"/>
      <point x="620" y="47"/>
      <point x="686" y="47" type="curve" smooth="yes"/>
      <point x="751" y="47"/>
      <point x="782" y="109"/>
      <point x="782" y="172" type="curve" smooth="yes"/>
      <point x="782" y="232"/>
      <point x="754" y="292"/>
      <point x="685" y="292" type="curve" smooth="yes"/>
    </contour>
    <contour>
      <point x="665" y="739" type="line"/>
      <point x="733" y="689" type="line"/>
      <point x="224" y="-34" type="line"/>
      <point x="156" y="16" type="line"/>
    </contour>
    <contour>
      <point x="223" y="529" type="move" name="top"/>
    </contour>
  </outline>
</glyph>
<glyph name="ampersand" format="1">
  <advance width="884"/>
  <unicode hex="0026"/>
  <outline>
    <contour>
      <point x="532" y="-4"/>
      <point x="585" y="-17"/>
      <point x="649" y="-17" type="curve" smooth="yes"/>
      <point x="795" y="-17"/>
      <point x="820" y="66"/>
      <point x="820" y="192" type="curve" smooth="yes"/>
      <point x="820" y="253" type="line" smooth="yes"/>
      <point x="725" y="253" type="line"/>
      <point x="725" y="183" type="line" smooth="yes"/>
      <point x="725" y="72"/>
      <point x="684" y="67"/>
      <point x="644" y="67" type="curve" smooth="yes"/>
      <point x="608" y="67"/>
      <point x="570" y="99"/>
      <point x="539" y="151" type="curve"/>
      <point x="750" y="401" type="line" smooth="yes"/>
      <point x="838" y="401" type="line" smooth="yes"/>
      <point x="838" y="478" type="line"/>
      <point x="557" y="478" type="line"/>
      <point x="557" y="401" type="line"/>
      <point x="641" y="401" type="line"/>
      <point x="495" y="226" type="line"/>
      <point x="384" y="385" type="line"/>
      <point x="506" y="462"/>
      <point x="555" y="516"/>
      <point x="555" y="602" type="curve" smooth="yes"/>
      <point x="555" y="681"/>
      <point x="471" y="737"/>
      <point x="381" y="737" type="curve" smooth="yes"/>
      <point x="243" y="737"/>
      <point x="166" y="676"/>
      <point x="166" y="578" type="curve" smooth="yes"/>
      <point x="166" y="533"/>
      <point x="200" y="465"/>
      <point x="237" y="404" type="curve"/>
      <point x="99" y="313"/>
      <point x="39" y="289"/>
      <point x="39" y="165" type="curve" smooth="yes"/>
      <point x="39" y="57"/>
      <point x="126" y="-14"/>
      <point x="251" y="-14" type="curve" smooth="yes"/>
      <point x="342" y="-14"/>
      <point x="401" y="25"/>
      <point x="460" y="76" type="curve"/>
    </contour>
    <contour>
      <point x="456" y="527"/>
      <point x="403" y="505"/>
      <point x="339" y="460" type="curve"/>
      <point x="319" y="499"/>
      <point x="287" y="545"/>
      <point x="287" y="586" type="curve" smooth="yes"/>
      <point x="287" y="641"/>
      <point x="329" y="663"/>
      <point x="381" y="663" type="curve" smooth="yes"/>
      <point x="421" y="663"/>
      <point x="455" y="640"/>
      <point x="456" y="593" type="curve" smooth="yes"/>
    </contour>
    <contour>
      <point x="377" y="113"/>
      <point x="322" y="88"/>
      <point x="276" y="88" type="curve" smooth="yes"/>
      <point x="223" y="88"/>
      <point x="173" y="116"/>
      <point x="173" y="190" type="curve" smooth="yes"/>
      <point x="173" y="231"/>
      <point x="203" y="276"/>
      <point x="287" y="328" type="curve"/>
      <point x="408" y="149" type="line"/>
    </contour>
  </outline>
</glyph>
<glyph name="parenleft" format="1">
  <advance width="426"/>
  <unicode hex="0028"/>
  <outline>
    <contour>
      <point x="217" y="12"/>
      <point x="166" y="178"/>
      <point x="166" y="355" type="curve" smooth="yes"/>
      <point x="166" y="531"/>
      <point x="217" y="698"/>
      <point x="339" y="721" type="curve"/>
      <point x="339" y="783" type="line"/>
      <point x="144" y="764"/>
      <point x="36" y="554"/>
      <point x="36" y="355" type="curve" smooth="yes"/>
      <point x="36" y="155"/>
      <point x="144" y="-54"/>
      <point x="339" y="-73" type="curve"/>
      <point x="339" y="-11" type="line"/>
    </contour>
  </outline>
</glyph>
<glyph name="parenright" format="1">
  <advance width="426"/>
  <unicode hex="0029"/>
  <outline>
    <contour>
      <point x="158" y="698"/>
      <point x="209" y="532"/>
      <point x="209" y="355" type="curve" smooth="yes"/>
      <point x="209" y="179"/>
      <point x="158" y="12"/>
      <point x="36" y="-11" type="curve"/>
      <point x="36" y="-73" type="line"/>
      <point x="231" y="-54"/>
      <point x="339" y="156"/>
      <point x="339" y="355" type="curve" smooth="yes"/>
      <point x="339" y="555"/>
      <point x="231" y="764"/>
      <point x="36" y="783" type="curve"/>
      <point x="36" y="721" type="line"/>
    </contour>
  </outline>
</glyph>
<glyph name="asterisk" format="1">
  <advance width="789"/>
  <unicode hex="002A"/>
  <outline>
    <contour>
      <point x="539.0" y="152.0" type="line"/>
      <point x="623.0" y="227.0" type="line"/>
      <point x="436.0" y="421.0" type="line"/>
      <point x="689.0" y="500.0" type="line"/>
      <point x="649.0" y="595.0" type="line"/>
      <point x="416.028" y="462.018" type="line"/>
      <point x="448.0" y="722.0" type="line"/>
      <point x="341.0" y="722.0" type="line"/>
      <point x="372.972" y="462.018" type="line"/>
      <point x="140.0" y="595.0" type="line"/>
      <point x="100.0" y="500.0" type="line"/>
      <point x="353.0" y="421.0" type="line"/>
      <point x="166.0" y="227.0" type="line"/>
      <point x="250.0" y="152.0" type="line"/>
      <point x="394.5" y="388.684" type="line"/>
    </contour>
  </outline>
</glyph>
<glyph name="plus" format="1">
  <advance width="696"/>
  <unicode hex="002B"/>
  <outline>
    <contour>
      <point x="122" y="231" type="line"/>
      <point x="574" y="231" type="line"/>
      <point x="574" y="231"/>
      <point x="574" y="328"/>
      <point x="574" y="328" type="curve"/>
      <point x="122" y="328" type="line"/>
    </contour>
    <contour>
      <point x="292" y="515" type="line"/>
      <point x="292" y="45" type="line"/>
      <point x="292" y="45"/>
      <point x="404" y="45"/>
      <point x="404" y="45" type="curve"/>
      <point x="404" y="515" type="line"/>
    </contour>
  </outline>
</glyph>
<glyph name="comma" format="1">
  <advance width="342"/>
  <unicode hex="002C"/>
  <outline>
    <contour>
      <point x="108" y="-94" type="line"/>
      <point x="142" y="-76"/>
      <point x="186" y="-35"/>
      <point x="186" y="-3" type="curve" smooth="yes"/>
      <point x="186" y="5"/>
      <point x="185" y="19"/>
      <point x="182" y="23" type="curve"/>
      <point x="171" y="8"/>
      <point x="151" y="0"/>
      <point x="131" y="0" type="curve" smooth="yes"/>
      <point x="83" y="0"/>
      <point x="58" y="39"/>
      <point x="58" y="79" type="curve" smooth="yes"/>
      <point x="58" y="120"/>
      <point x="86" y="163"/>
      <point x="146" y="163" type="curve" smooth="yes"/>
      <point x="197" y="163"/>
      <point x="256" y="126"/>
      <point x="256" y="41" type="curve" smooth="yes"/>
      <point x="256" y="-15"/>
      <point x="227" y="-81"/>
      <point x="145" y="-136" type="curve" smooth="yes"/>
      <point x="142" y="-137"/>
      <point x="140" y="-139"/>
      <point x="139" y="-140" type="curve"/>
    </contour>
  </outline>
</glyph>
<glyph name="period" format="1">
  <advance width="397"/>
  <unicode hex="002E"/>
  <outline>
    <contour>
      <point x="247.0" y="0.0"/>
      <point x="288.0" y="41.0"/>
      <point x="288.0" y="90.0" type="curve" smooth="yes"/>
      <point x="288.0" y="140.0"/>
      <point x="247.0" y="180.0"/>
      <point x="198.0" y="180.0" type="curve" smooth="yes"/>
      <point x="149.0" y="180.0"/>
      <point x="108.0" y="140.0"/>
      <point x="108.0" y="90.0" type="curve" smooth="yes"/>
      <point x="108.0" y="41.0"/>
      <point x="149.0" y="0.0"/>
      <point x="198.0" y="0.0" type="curve" smooth="yes"/>
    </contour>
  </outline>
</glyph>
<glyph name="slash" format="1">
  <advance width="582"/>
  <unicode hex="002F"/>
  <outline>
    <contour>
      <point x="400" y="791" type="line"/>
      <point x="498" y="759" type="line"/>
      <point x="216" y="-85" type="line"/>
      <point x="120" y="-54" type="line"/>
    </contour>
    <contour>
      <point x="53.0" y="453.0" type="move" name="top"/>
    </contour>
  </outline>
</glyph>
<glyph name="zero" format="1">
  <advance width="550"/>
  <unicode hex="0030"/>
  <outline>
    <contour>
      <point x="116" y="-13"/>
      <point x="33" y="108"/>
      <point x="33" y="264" type="curve" smooth="yes"/>
      <point x="33" y="420"/>
      <point x="115" y="538"/>
      <point x="275" y="538" type="curve" smooth="yes"/>
      <point x="435" y="538"/>
      <point x="517" y="420"/>
      <point x="517" y="264" type="curve" smooth="yes"/>
      <point x="517" y="110"/>
      <point x="435" y="-13"/>
      <point x="276" y="-13" type="curve" smooth="yes"/>
    </contour>
    <contour>
      <point x="188" y="457"/>
      <point x="158" y="363"/>
      <point x="158" y="268" type="curve" smooth="yes"/>
      <point x="158" y="172"/>
      <point x="189" y="75"/>
      <point x="276" y="75" type="curve" smooth="yes"/>
      <point x="363" y="75"/>
      <point x="392" y="170"/>
      <point x="392" y="265" type="curve" smooth="yes"/>
      <point x="392" y="361"/>
      <point x="362" y="457"/>
      <point x="275" y="457" type="curve" smooth="yes"/>
    </contour>
  </outline>
</glyph>
<glyph name="one" format="1">
  <advance width="398"/>
  <unicode hex="0031"/>
  <outline>
    <contour>
      <point x="42.0" y="0.0" type="line"/>
      <point x="378.0" y="0.0" type="line"/>
      <point x="378" y="87" type="line"/>
      <point x="279" y="87" type="line"/>
      <point x="279" y="722" type="line"/>
      <point x="206.0" y="722.0" type="line"/>
      <point x="27.0" y="651.0" type="line"/>
      <point x="57" y="562" type="line"/>
      <point x="154" y="597" type="line"/>
      <point x="154" y="87" type="line"/>
      <point x="42" y="87" type="line"/>
    </contour>
    <contour>
      <point x="208.0" y="722.0" type="move" name="top"/>
    </contour>
    <contour>
      <point x="378.0" y="10.0" type="move" name="ogonek"/>
    </contour>
  </outline>
</glyph>
<glyph name="two" format="1">
  <advance width="517"/>
  <unicode hex="0032"/>
  <outline>
    <contour>
      <point x="504" y="-80" type="line" smooth="yes"/>
      <point x="486" y="87" type="line" smooth="yes"/>
      <point x="219" y="87" type="line"/>
      <point x="219" y="87"/>
      <point x="345" y="169"/>
      <point x="345" y="169" type="curve"/>
      <point x="463" y="241"/>
      <point x="483" y="303"/>
      <point x="483" y="361" type="curve" smooth="yes"/>
      <point x="483" y="479"/>
      <point x="394" y="540"/>
      <point x="274" y="540" type="curve" smooth="yes"/>
      <point x="146" y="540"/>
      <point x="42" y="459"/>
      <point x="42" y="379" type="curve" smooth="yes"/>
      <point x="42" y="376" type="line" smooth="yes"/>
      <point x="43" y="339"/>
      <point x="67" y="291"/>
      <point x="124" y="291" type="curve" smooth="yes"/>
      <point x="168" y="291"/>
      <point x="201" y="318"/>
      <point x="201" y="368" type="curve" smooth="yes"/>
      <point x="201" y="403"/>
      <point x="172" y="423"/>
      <point x="151" y="429" type="curve"/>
      <point x="176" y="457"/>
      <point x="214" y="476"/>
      <point x="253" y="476" type="curve" smooth="yes"/>
      <point x="317" y="476"/>
      <point x="359" y="430"/>
      <point x="359" y="383" type="curve" smooth="yes"/>
      <point x="359" y="335"/>
      <point x="336" y="307"/>
      <point x="279" y="264" type="curve"/>
      <point x="267" y="255"/>
      <point x="60" y="97"/>
      <point x="60" y="97" type="curve" smooth="yes"/>
      <point x="61" y="97"/>
      <point x="70" y="0"/>
      <point x="70" y="0" type="curve"/>
      <point x="406" y="0" type="line"/>
      <point x="452" y="-85" type="line"/>
    </contour>
  </outline>
</glyph>
<glyph name="three" format="1">
  <advance width="540"/>
  <unicode hex="0033"/>
  <outline>
    <contour>
      <point x="227.0" y="-149.0" type="line"/>
      <point x="398.0" y="-144.0"/>
      <point x="516.0" y="-55.0"/>
      <point x="516.0" y="64.0" type="curve" smooth="yes"/>
      <point x="516.0" y="151.0"/>
      <point x="462.0" y="224.0"/>
      <point x="338.0" y="237.0" type="curve"/>
      <point x="424.0" y="259.0"/>
      <point x="463.0" y="312.0"/>
      <point x="463.0" y="379.0" type="curve" smooth="yes"/>
      <point x="463.0" y="380.0"/>
      <point x="463.0" y="382.0"/>
      <point x="463.0" y="383.0" type="curve" smooth="yes"/>
      <point x="461.0" y="460.0"/>
      <point x="394.0" y="539.0"/>
      <point x="251.0" y="539.0" type="curve" smooth="yes"/>
      <point x="124.0" y="539.0"/>
      <point x="31.0" y="480.0"/>
      <point x="31.0" y="371.0" type="curve" smooth="yes"/>
      <point x="31.0" y="336.0"/>
      <point x="62.0" y="292.0"/>
      <point x="116.0" y="292.0" type="curve" smooth="yes"/>
      <point x="158.0" y="292.0"/>
      <point x="187.0" y="322.0"/>
      <point x="187.0" y="364.0" type="curve" smooth="yes"/>
      <point x="187.0" y="398.0"/>
      <point x="156.0" y="428.0"/>
      <point x="134.0" y="429.0" type="curve"/>
      <point x="169.0" y="459.0"/>
      <point x="209.0" y="473.0"/>
      <point x="244.0" y="473.0" type="curve" smooth="yes"/>
      <point x="302.0" y="473.0"/>
      <point x="349.0" y="425.0"/>
      <point x="349.0" y="371.0" type="curve" smooth="yes"/>
      <point x="349.0" y="370.0"/>
      <point x="349.0" y="369.0"/>
      <point x="349.0" y="368.0" type="curve" smooth="yes"/>
      <point x="347.0" y="300.0"/>
      <point x="284.0" y="269.0"/>
      <point x="190.0" y="251.0" type="curve"/>
      <point x="204.0" y="169.0" type="line"/>
      <point x="221.0" y="172.0"/>
      <point x="245.0" y="174.0"/>
      <point x="259.0" y="174.0" type="curve" smooth="yes"/>
      <point x="356.0" y="174.0"/>
      <point x="390.0" y="116.0"/>
      <point x="391.0" y="65.0" type="curve" smooth="yes"/>
      <point x="391.0" y="61.0"/>
      <point x="391.0" y="60.0"/>
      <point x="391.0" y="59.0" type="curve" smooth="yes"/>
      <point x="391.0" y="-17.0"/>
      <point x="297.0" y="-78.0"/>
      <point x="175.0" y="-78.0" type="curve"/>
      <point x="177.0" y="-69.0"/>
      <point x="180.0" y="-54.0"/>
      <point x="180.0" y="-42.0" type="curve" smooth="yes"/>
      <point x="180.0" y="-10.0"/>
      <point x="156.0" y="26.0"/>
      <point x="113.0" y="26.0" type="curve" smooth="yes"/>
      <point x="64.0" y="26.0"/>
      <point x="44.0" y="-5.0"/>
      <point x="44.0" y="-44.0" type="curve" smooth="yes"/>
      <point x="48.0" y="-111.0"/>
      <point x="126.0" y="-149.0"/>
      <point x="218.0" y="-149.0" type="curve" smooth="yes"/>
      <point x="223.0" y="-149.0" type="line"/>
    </contour>
  </outline>
</glyph>
<glyph name="four" format="1">
  <advance width="537"/>
  <unicode hex="0034"/>
  <outline>
    <contour>
      <point x="544" y="-122" type="line"/>
      <point x="435" y="-122" type="line"/>
      <point x="435" y="0" type="line"/>
      <point x="540.0" y="0.0" type="line"/>
      <point x="549" y="83" type="line"/>
      <point x="435" y="83" type="line"/>
      <point x="435" y="516" type="line"/>
      <point x="289" y="531" type="line"/>
      <point x="28" y="80" type="line"/>
      <point x="49" y="0" type="line"/>
      <point x="311" y="0" type="line"/>
      <point x="311" y="-122" type="line"/>
      <point x="197.0" y="-122.0" type="line"/>
      <point x="197.0" y="-189.0" type="line"/>
      <point x="544" y="-189" type="line"/>
    </contour>
    <contour>
      <point x="311" y="83" type="line"/>
      <point x="146" y="83" type="line"/>
      <point x="311" y="395" type="line"/>
    </contour>
    <contour>
      <point x="361.0" y="722.0" type="move" name="top"/>
    </contour>
    <contour>
      <point x="531.0" y="10.0" type="move" name="ogonek"/>
    </contour>
  </outline>
</glyph>
<glyph name="five" format="1">
  <advance width="531"/>
  <unicode hex="0035"/>
  <outline>
    <contour>
      <point x="44" y="-112"/>
      <point x="130" y="-149"/>
      <point x="221" y="-149" type="curve"/>
      <point x="406" y="-143"/>
      <point x="511" y="-53"/>
      <point x="511" y="78" type="curve" smooth="yes"/>
      <point x="511" y="84"/>
      <point x="511" y="91"/>
      <point x="510" y="98" type="curve" smooth="yes"/>
      <point x="501" y="204"/>
      <point x="415" y="307"/>
      <point x="224" y="307" type="curve" smooth="yes"/>
      <point x="201" y="307"/>
      <point x="200" y="306"/>
      <point x="174" y="303" type="curve"/>
      <point x="197" y="424" type="line"/>
      <point x="417" y="424" type="line"/>
      <point x="446" y="524" type="line"/>
      <point x="112" y="524" type="line"/>
      <point x="72" y="249" type="line"/>
      <point x="101" y="214" type="line"/>
      <point x="122" y="217"/>
      <point x="162" y="221"/>
      <point x="183" y="221" type="curve" smooth="yes"/>
      <point x="290" y="221"/>
      <point x="375" y="188"/>
      <point x="383" y="78" type="curve" smooth="yes"/>
      <point x="383" y="69" type="line"/>
      <point x="383" y="-23"/>
      <point x="292" y="-78"/>
      <point x="175" y="-78" type="curve"/>
      <point x="178" y="-67"/>
      <point x="180" y="-62"/>
      <point x="180" y="-42" type="curve" smooth="yes"/>
      <point x="180" y="-8"/>
      <point x="155" y="26"/>
      <point x="112" y="26" type="curve" smooth="yes"/>
      <point x="63" y="26"/>
      <point x="44" y="-6"/>
      <point x="44" y="-45" type="curve" smooth="yes"/>
    </contour>
  </outline>
</glyph>
<glyph name="six" format="1">
  <advance width="661"/>
  <unicode hex="0036"/>
  <outline>
    <contour>
      <point x="517" y="-12"/>
      <point x="613" y="109"/>
      <point x="613" y="235" type="curve" smooth="yes"/>
      <point x="613" y="370"/>
      <point x="516" y="465"/>
      <point x="383" y="468" type="curve" smooth="yes"/>
      <point x="298" y="468"/>
      <point x="249" y="443"/>
      <point x="218" y="400" type="curve"/>
      <point x="218" y="400"/>
      <point x="222" y="662"/>
      <point x="389" y="662" type="curve" smooth="yes"/>
      <point x="401" y="662"/>
      <point x="415" y="660"/>
      <point x="429" y="657" type="curve"/>
      <point x="417" y="645"/>
      <point x="404" y="620"/>
      <point x="404" y="596" type="curve" smooth="yes"/>
      <point x="404" y="591"/>
      <point x="405" y="586"/>
      <point x="406" y="581" type="curve" smooth="yes"/>
      <point x="415" y="551"/>
      <point x="438" y="520"/>
      <point x="482" y="520" type="curve" smooth="yes"/>
      <point x="540" y="520"/>
      <point x="568" y="543"/>
      <point x="568" y="600" type="curve" smooth="yes"/>
      <point x="568" y="682"/>
      <point x="473" y="737"/>
      <point x="359" y="737" type="curve" smooth="yes"/>
      <point x="177" y="737"/>
      <point x="72" y="568"/>
      <point x="72" y="326" type="curve"/>
      <point x="72" y="82"/>
      <point x="216" y="-9"/>
      <point x="349" y="-12" type="curve" smooth="yes"/>
      <point x="357" y="-12" type="line"/>
    </contour>
    <contour>
      <point x="484" y="145"/>
      <point x="445" y="87"/>
      <point x="344" y="87" type="curve" smooth="yes"/>
      <point x="267" y="89"/>
      <point x="217" y="159"/>
      <point x="217" y="272" type="curve" smooth="yes"/>
      <point x="217" y="278" type="line"/>
      <point x="217" y="283"/>
      <point x="217" y="288"/>
      <point x="218" y="296" type="curve"/>
      <point x="244" y="336"/>
      <point x="286" y="365"/>
      <point x="358" y="367" type="curve" smooth="yes"/>
      <point x="445" y="367"/>
      <point x="484" y="326"/>
      <point x="484" y="226" type="curve" smooth="yes"/>
    </contour>
    <contour>
      <point x="293" y="-13" type="move" name="top"/>
    </contour>
  </outline>
</glyph>
<glyph name="seven" format="1">
  <advance width="509"/>
  <unicode hex="0037"/>
  <outline>
    <contour>
      <point x="482" y="444" type="line"/>
      <point x="449" y="524" type="line"/>
      <point x="48" y="524" type="line"/>
      <point x="48" y="302" type="line"/>
      <point x="144" y="302" type="line"/>
      <point x="144" y="449" type="line"/>
      <point x="383" y="449" type="line"/>
      <point x="383" y="449"/>
      <point x="113" y="-99"/>
      <point x="113" y="-99" type="curve" smooth="yes"/>
      <point x="102" y="-121"/>
      <point x="98" y="-140"/>
      <point x="98" y="-156" type="curve" smooth="yes"/>
      <point x="98" y="-197"/>
      <point x="127" y="-220"/>
      <point x="159" y="-220" type="curve" smooth="yes"/>
      <point x="187" y="-220"/>
      <point x="216" y="-204"/>
      <point x="232" y="-165" type="curve" smooth="yes"/>
    </contour>
  </outline>
</glyph>
<glyph name="eight" format="1">
  <advance width="628"/>
  <unicode hex="0038"/>
  <outline>
    <contour>
      <point x="583" y="175" type="curve" smooth="no"/>
      <point x="583" y="171" type="line" smooth="yes"/>
      <point x="583" y="59"/>
      <point x="467" y="-13"/>
      <point x="312" y="-13" type="curve" smooth="yes"/>
      <point x="159" y="-13"/>
      <point x="42" y="56"/>
      <point x="42" y="162" type="curve" smooth="yes"/>
      <point x="42" y="339"/>
      <point x="255" y="376"/>
      <point x="256" y="376" type="curve" smooth="yes"/>
      <point x="333" y="333" type="line" smooth="no"/>
      <point x="332" y="332"/>
      <point x="176" y="314"/>
      <point x="176" y="183" type="curve" smooth="yes"/>
      <point x="176" y="108"/>
      <point x="224" y="72"/>
      <point x="312" y="72" type="curve" smooth="yes"/>
      <point x="387" y="72"/>
      <point x="447" y="103"/>
      <point x="447" y="171" type="curve" smooth="yes"/>
      <point x="447" y="328"/>
      <point x="78" y="345"/>
      <point x="78" y="568" type="curve" smooth="yes"/>
      <point x="78" y="671"/>
      <point x="172.144" y="737"/>
      <point x="315" y="737" type="curve" smooth="yes"/>
      <point x="453" y="737"/>
      <point x="551" y="656"/>
      <point x="551" y="558" type="curve" smooth="yes"/>
      <point x="551" y="407"/>
      <point x="346" y="359"/>
      <point x="346" y="359" type="curve" smooth="no"/>
      <point x="285" y="413" type="line" smooth="no"/>
      <point x="285" y="413"/>
      <point x="430" y="444"/>
      <point x="430" y="563" type="curve" smooth="yes"/>
      <point x="430" y="621"/>
      <point x="385" y="665"/>
      <point x="303" y="665" type="curve" smooth="yes"/>
      <point x="232" y="665"/>
      <point x="192" y="622"/>
      <point x="192" y="563" type="curve" smooth="yes"/>
      <point x="192" y="421"/>
      <point x="577" y="391"/>
    </contour>
  </outline>
</glyph>
<glyph name="nine" format="1">
  <advance width="659"/>
  <unicode hex="0039"/>
  <outline>
    <contour>
      <point x="185" y="506"/>
      <point x="185" y="507"/>
      <point x="185" y="507" type="curve" smooth="yes"/>
      <point x="185" y="575"/>
      <point x="225" y="637"/>
      <point x="325" y="637" type="curve" smooth="yes"/>
      <point x="402" y="635"/>
      <point x="452" y="565"/>
      <point x="452" y="452" type="curve" smooth="yes"/>
      <point x="452" y="446" type="line"/>
      <point x="452" y="441"/>
      <point x="452" y="436"/>
      <point x="451" y="428" type="curve"/>
      <point x="435" y="410"/>
      <point x="383" y="379"/>
      <point x="311" y="377" type="curve" smooth="yes"/>
      <point x="224" y="377"/>
      <point x="186" y="428"/>
      <point x="185" y="505" type="curve" smooth="yes"/>
    </contour>
    <contour>
      <point x="85" y="55"/>
      <point x="176" y="-14"/>
      <point x="291" y="-14" type="curve" smooth="yes"/>
      <point x="474" y="-14"/>
      <point x="597" y="147"/>
      <point x="597" y="398" type="curve"/>
      <point x="597" y="642"/>
      <point x="453" y="733"/>
      <point x="320" y="736" type="curve" smooth="yes"/>
      <point x="312" y="736" type="line"/>
      <point x="157" y="736"/>
      <point x="56" y="629"/>
      <point x="56" y="508" type="curve" smooth="yes"/>
      <point x="56" y="496" type="line"/>
      <point x="63" y="361"/>
      <point x="165" y="276"/>
      <point x="286" y="276" type="curve" smooth="yes"/>
      <point x="371" y="276"/>
      <point x="420" y="296"/>
      <point x="451" y="339" type="curve"/>
      <point x="451" y="339"/>
      <point x="435" y="76"/>
      <point x="296" y="76" type="curve" smooth="yes"/>
      <point x="276" y="76"/>
      <point x="254" y="81"/>
      <point x="229" y="93" type="curve"/>
      <point x="239" y="103"/>
      <point x="248" y="122"/>
      <point x="248" y="150" type="curve" smooth="yes"/>
      <point x="248" y="185"/>
      <point x="222" y="226"/>
      <point x="171" y="226" type="curve" smooth="yes"/>
      <point x="113" y="226"/>
      <point x="85" y="190"/>
      <point x="85" y="133" type="curve" smooth="yes"/>
    </contour>
    <contour>
      <point x="376" y="737" type="move" name="top"/>
    </contour>
  </outline>
</glyph>
<glyph name="colon" format="1">
  <advance width="397"/>
  <unicode hex="003A"/>
  <outline>
    <contour>
      <point x="247" y="344"/>
      <point x="288" y="385"/>
      <point x="288" y="434" type="curve" smooth="yes"/>
      <point x="288" y="484"/>
      <point x="247" y="524"/>
      <point x="198" y="524" type="curve" smooth="yes"/>
      <point x="149" y="524"/>
      <point x="108" y="484"/>
      <point x="108" y="434" type="curve" smooth="yes"/>
      <point x="108" y="385"/>
      <point x="149" y="344"/>
      <point x="198" y="344" type="curve" smooth="yes"/>
    </contour>
    <contour>
      <point x="247" y="0"/>
      <point x="288" y="41"/>
      <point x="288" y="90" type="curve" smooth="yes"/>
      <point x="288" y="140"/>
      <point x="247" y="180"/>
      <point x="198" y="180" type="curve" smooth="yes"/>
      <point x="149" y="180"/>
      <point x="108" y="140"/>
      <point x="108" y="90" type="curve" smooth="yes"/>
      <point x="108" y="41"/>
      <point x="149" y="0"/>
      <point x="198" y="0" type="curve" smooth="yes"/>
    </contour>
  </outline>
</glyph>
<glyph name="semicolon" format="1">
  <advance width="397"/>
  <unicode hex="003B"/>
  <outline>
    <contour>
      <point x="159.0" y="-87.0" type="line"/>
      <point x="190.0" y="-70.0"/>
      <point x="231.0" y="-33.0"/>
      <point x="231.0" y="-3.0" type="curve" smooth="yes"/>
      <point x="231.0" y="4.0"/>
      <point x="230.0" y="17.0"/>
      <point x="227.0" y="21.0" type="curve"/>
      <point x="217.0" y="7.0"/>
      <point x="198.0" y="0.0"/>
      <point x="180.0" y="0.0" type="curve" smooth="yes"/>
      <point x="136.0" y="0.0"/>
      <point x="113.0" y="35.0"/>
      <point x="113.0" y="72.0" type="curve" smooth="yes"/>
      <point x="113.0" y="110.0"/>
      <point x="139.0" y="149.0"/>
      <point x="194.0" y="149.0" type="curve" smooth="yes"/>
      <point x="241.0" y="149.0"/>
      <point x="295.0" y="115.0"/>
      <point x="295.0" y="37.0" type="curve" smooth="yes"/>
      <point x="295.0" y="-14.0"/>
      <point x="268.0" y="-75.0"/>
      <point x="193.0" y="-125.0" type="curve" smooth="yes"/>
      <point x="190.0" y="-126.0"/>
      <point x="188.0" y="-128.0"/>
      <point x="187.0" y="-129.0" type="curve"/>
    </contour>
  </outline>
</glyph>
<glyph name="equal" format="1">
  <advance width="453"/>
  <unicode hex="003D"/>
  <outline>
    <contour>
      <point x="47" y="243" type="line"/>
      <point x="406" y="243" type="line"/>
      <point x="406" y="171" type="line"/>
      <point x="406" y="171"/>
      <point x="47" y="171"/>
      <point x="47" y="171" type="curve"/>
    </contour>
    <contour>
      <point x="47" y="427" type="line"/>
      <point x="406" y="427" type="line"/>
      <point x="406" y="355" type="line"/>
      <point x="406" y="355"/>
      <point x="47" y="355"/>
      <point x="47" y="355" type="curve"/>
    </contour>
  </outline>
</glyph>
<glyph name="greater" format="1">
  <advance width="450"/>
  <unicode hex="003E"/>
  <outline>
    <contour>
      <point x="435.0" y="391.0" type="line"/>
      <point x="44" y="574" type="line"/>
      <point x="44.0" y="483.0" type="line"/>
      <point x="326" y="349" type="line"/>
      <point x="44.0" y="219.0" type="line"/>
      <point x="44" y="126" type="line"/>
      <point x="435.0" y="295.0" type="line"/>
    </contour>
  </outline>
</glyph>
<glyph name="question" format="1">
  <advance width="532"/>
  <unicode hex="003F"/>
  <outline>
    <contour>
      <point x="259" y="208" type="line"/>
      <point x="298" y="327"/>
      <point x="499" y="405"/>
      <point x="499" y="548" type="curve" smooth="yes"/>
      <point x="499" y="549"/>
      <point x="499" y="550"/>
      <point x="499" y="551" type="curve" smooth="yes"/>
      <point x="496" y="710"/>
      <point x="363" y="737"/>
      <point x="267" y="737" type="curve"/>
      <point x="155" y="737"/>
      <point x="40" y="670"/>
      <point x="40" y="551" type="curve" smooth="yes"/>
      <point x="40" y="541" type="line"/>
      <point x="42" y="502"/>
      <point x="75" y="454"/>
      <point x="136" y="454" type="curve" smooth="yes"/>
      <point x="182" y="454"/>
      <point x="215" y="488"/>
      <point x="215" y="536" type="curve" smooth="yes"/>
      <point x="215" y="593"/>
      <point x="163" y="608"/>
      <point x="134" y="608" type="curve"/>
      <point x="152" y="649"/>
      <point x="201" y="664"/>
      <point x="241" y="664" type="curve" smooth="yes"/>
      <point x="293" y="664"/>
      <point x="356" y="646"/>
      <point x="356" y="554" type="curve" smooth="yes"/>
      <point x="356" y="445"/>
      <point x="217" y="385"/>
      <point x="217" y="208" type="curve"/>
    </contour>
    <contour>
      <point x="283" y="-10"/>
      <point x="321" y="27"/>
      <point x="321" y="70" type="curve" smooth="yes"/>
      <point x="321" y="114"/>
      <point x="283" y="151"/>
      <point x="240" y="151" type="curve" smooth="yes"/>
      <point x="196" y="151"/>
      <point x="160" y="114"/>
      <point x="160" y="70" type="curve" smooth="yes"/>
      <point x="160" y="27"/>
      <point x="196" y="-10"/>
      <point x="240" y="-10" type="curve" smooth="yes"/>
    </contour>
  </outline>
</glyph>
<glyph name="at" format="1">
  <advance width="847.0"/>
  <unicode hex="0040"/>
  <outline>
    <contour>
      <point x="301.0" y="316.0" type="curve" smooth="yes"/>
      <point x="307.0" y="411.0"/>
      <point x="365.0" y="525.0"/>
      <point x="440.0" y="525.0" type="curve" smooth="yes"/>
      <point x="475.0" y="525.0"/>
      <point x="513.0" y="469.0"/>
      <point x="513.0" y="469.0" type="curve"/>
      <point x="512.0" y="462.0"/>
      <point x="492.0" y="353.0"/>
      <point x="492.0" y="352.0" type="curve" smooth="yes"/>
      <point x="481.0" y="304.0"/>
      <point x="416.0" y="214.0"/>
      <point x="367.0" y="214.0" type="curve" smooth="yes"/>
      <point x="327.0" y="214.0"/>
      <point x="296.0" y="240.0"/>
    </contour>
    <contour>
      <point x="729.0" y="389.0" type="curve" smooth="yes"/>
      <point x="729.0" y="247.0"/>
      <point x="648.0" y="184.0"/>
      <point x="611.0" y="184.0" type="curve" smooth="yes"/>
      <point x="580.0" y="184.0"/>
      <point x="570.0" y="207.0"/>
      <point x="570.0" y="243.0" type="curve" smooth="yes"/>
      <point x="570.0" y="265.0"/>
      <point x="634.0" y="550.0"/>
      <point x="637.0" y="568.0" type="curve"/>
      <point x="549.0" y="568.0" type="line"/>
      <point x="545.0" y="556.0"/>
      <point x="532.0" y="519.0"/>
      <point x="532.0" y="519.0" type="curve"/>
      <point x="532.0" y="519.0"/>
      <point x="473.0" y="592.0"/>
      <point x="446.0" y="592.0" type="curve" smooth="yes"/>
      <point x="316.809" y="592.0"/>
      <point x="205.0" y="437.0"/>
      <point x="205.0" y="305.0" type="curve" smooth="yes"/>
      <point x="205.0" y="196.0"/>
      <point x="276.0" y="145.0"/>
      <point x="335.0" y="148.0" type="curve" smooth="yes"/>
      <point x="391.0" y="151.0"/>
      <point x="459.0" y="196.0"/>
      <point x="490.0" y="267.0" type="curve"/>
      <point x="495.0" y="180.0"/>
      <point x="530.0" y="139.0"/>
      <point x="599.0" y="139.0" type="curve" smooth="yes"/>
      <point x="727.0" y="139.0"/>
      <point x="818.0" y="257.0"/>
      <point x="818.0" y="388.0" type="curve" smooth="yes"/>
      <point x="818.0" y="561.0"/>
      <point x="697.0" y="750.0"/>
      <point x="455.0" y="750.0" type="curve" smooth="yes"/>
      <point x="212.0" y="750.0"/>
      <point x="29.0" y="561.0"/>
      <point x="29.0" y="335.0" type="curve" smooth="yes"/>
      <point x="29.0" y="140.0"/>
      <point x="175.525" y="-15.0"/>
      <point x="420.0" y="-15.0" type="curve" smooth="yes"/>
      <point x="501.255" y="-15.0"/>
      <point x="612.0" y="11"/>
      <point x="679.0" y="55" type="curve"/>
      <point x="679.0" y="55"/>
      <point x="649.0" y="104"/>
      <point x="649.0" y="104.0" type="curve"/>
      <point x="592.0" y="69.0"/>
      <point x="496.0" y="50.0"/>
      <point x="429.0" y="50.0" type="curve" smooth="yes"/>
      <point x="228.0" y="50.0"/>
      <point x="121.0" y="175.0"/>
      <point x="121.0" y="322.0" type="curve" smooth="yes"/>
      <point x="121.0" y="516.0"/>
      <point x="257.0" y="684.0"/>
      <point x="459.0" y="684.0" type="curve" smooth="yes"/>
      <point x="622.0" y="684.0"/>
      <point x="729.0" y="552.0"/>
    </contour>
  </outline>
</glyph>
<glyph name="A" format="1">
  <advance width="829"/>
  <unicode hex="0041"/>
  <outline>
    <contour>
      <point x="557" y="324" type="line"/>
      <point x="255" y="324" type="line"/>
      <point x="255" y="248" type="line"/>
      <point x="557" y="248" type="line"/>
    </contour>
    <contour>
      <point x="321" y="0" type="line"/>
      <point x="321" y="87" type="line"/>
      <point x="209" y="87" type="line"/>
      <point x="396" y="648" type="line"/>
      <point x="571" y="87" type="line"/>
      <point x="462" y="87" type="line"/>
      <point x="462" y="0" type="line"/>
      <point x="830" y="0" type="line"/>
      <point x="830" y="87" type="line"/>
      <point x="732" y="87" type="line"/>
      <point x="511" y="742" type="line"/>
      <point x="338" y="742" type="line"/>
      <point x="338" y="742"/>
      <point x="109" y="87"/>
      <point x="109" y="87" type="curve"/>
      <point x="-1" y="87" type="line"/>
      <point x="-1" y="0" type="line"/>
    </contour>
  </outline>
</glyph>
<glyph name="B" format="1">
  <advance width="737"/>
  <unicode hex="0042"/>
  <outline>
    <contour>
      <point x="386" y="0" type="curve" smooth="yes"/>
      <point x="25" y="0" type="line"/>
      <point x="25" y="88" type="line"/>
      <point x="144" y="88" type="line"/>
      <point x="144" y="632" type="line"/>
      <point x="25" y="632" type="line"/>
      <point x="25" y="722" type="line"/>
      <point x="386" y="722" type="line" smooth="yes"/>
      <point x="499" y="722"/>
      <point x="686" y="693"/>
      <point x="672" y="523" type="curve" smooth="yes"/>
      <point x="666" y="450"/>
      <point x="618" y="408"/>
      <point x="537" y="385" type="curve"/>
      <point x="640" y="358"/>
      <point x="712" y="305"/>
      <point x="712" y="201" type="curve" smooth="yes"/>
      <point x="712" y="10"/>
      <point x="515" y="0"/>
    </contour>
    <contour>
      <point x="289" y="325" type="curve"/>
      <point x="289" y="88" type="line"/>
      <point x="435" y="88"/>
      <point x="557" y="73"/>
      <point x="557" y="205" type="curve" smooth="yes"/>
      <point x="557" y="309"/>
      <point x="467" y="326"/>
      <point x="368" y="326" type="curve" smooth="yes"/>
      <point x="342" y="326"/>
      <point x="315" y="325"/>
    </contour>
    <contour>
      <point x="289" y="632" type="curve"/>
      <point x="289" y="426" type="line"/>
      <point x="368" y="426" type="line" smooth="yes"/>
      <point x="447" y="426"/>
      <point x="517" y="433"/>
      <point x="517" y="519" type="curve" smooth="yes"/>
      <point x="517" y="641"/>
      <point x="414" y="631"/>
    </contour>
  </outline>
</glyph>
<glyph name="C" format="1">
  <advance width="731.0"/>
  <unicode hex="0043"/>
  <outline>
    <contour>
      <point x="571.0" y="-13.0"/>
      <point x="675.0" y="93.0"/>
      <point x="700.0" y="264.0" type="curve"/>
      <point x="610.0" y="264.0" type="line"/>
      <point x="589.0" y="183.0"/>
      <point x="546.0" y="90.0"/>
      <point x="420.0" y="90.0" type="curve" smooth="yes"/>
      <point x="274.0" y="90.0"/>
      <point x="203.0" y="225.0"/>
      <point x="203.0" y="367.0" type="curve" smooth="yes"/>
      <point x="203.0" y="502.0"/>
      <point x="268.0" y="645"/>
      <point x="413.0" y="643" type="curve" smooth="yes"/>
      <point x="495.0" y="642"/>
      <point x="539.0" y="617.0"/>
      <point x="566.0" y="577.0" type="curve"/>
      <point x="535.0" y="577.0"/>
      <point x="487.0" y="555.0"/>
      <point x="487.0" y="499.0" type="curve" smooth="yes"/>
      <point x="487.0" y="497.0"/>
      <point x="487.0" y="494.0"/>
      <point x="487.0" y="492.0" type="curve" smooth="yes"/>
      <point x="490.0" y="446.0"/>
      <point x="524.0" y="421.0"/>
      <point x="570.0" y="421.0" type="curve" smooth="yes"/>
      <point x="633.0" y="421.0"/>
      <point x="666.0" y="471.0"/>
      <point x="666.0" y="512.0" type="curve" smooth="yes"/>
      <point x="666.0" y="664.0"/>
      <point x="521.0" y="737.0"/>
      <point x="399.0" y="737.0" type="curve" smooth="yes"/>
      <point x="184.0" y="737.0"/>
      <point x="38.0" y="562.601895735"/>
      <point x="38.0" y="369.0" type="curve" smooth="yes"/>
      <point x="38.0" y="160.0"/>
      <point x="168.0" y="-13.0"/>
      <point x="385.0" y="-13.0" type="curve" smooth="yes"/>
    </contour>
  </outline>
</glyph>
<glyph name="D" format="1">
  <advance width="830"/>
  <unicode hex="0044"/>
  <outline>
    <contour>
      <point x="28.0" y="632.0" type="line"/>
      <point x="147.0" y="632.0" type="line"/>
      <point x="147.0" y="87.0" type="line"/>
      <point x="28.0" y="87.0" type="line"/>
      <point x="28.0" y="0.0" type="line"/>
      <point x="292" y="0" type="line" smooth="yes"/>
      <point x="568" y="0"/>
      <point x="790" y="66"/>
      <point x="790" y="357" type="curve" smooth="yes"/>
      <point x="790" y="691"/>
      <point x="517" y="722"/>
      <point x="266" y="722" type="curve" smooth="yes"/>
      <point x="28.0" y="722.0" type="line"/>
    </contour>
    <contour>
      <point x="635.0" y="114.0"/>
      <point x="486" y="87"/>
      <point x="292" y="87" type="curve"/>
      <point x="292" y="631" type="line"/>
      <point x="474" y="631"/>
      <point x="635.0" y="606.0"/>
      <point x="635.0" y="350.0" type="curve" smooth="yes"/>
    </contour>
  </outline>
</glyph>
<glyph name="E" format="1">
  <advance width="772"/>
  <unicode hex="0045"/>
  <outline>
    <contour>
      <point x="20" y="0" type="line"/>
      <point x="20" y="87" type="line"/>
      <point x="139" y="87" type="line"/>
      <point x="139" y="652" type="line"/>
      <point x="20" y="652" type="line"/>
      <point x="20" y="742" type="line"/>
      <point x="728" y="742" type="line"/>
      <point x="728" y="459" type="line"/>
      <point x="608" y="459" type="line"/>
      <point x="608" y="652" type="line"/>
      <point x="284" y="652" type="line"/>
      <point x="284" y="417" type="line"/>
      <point x="429" y="417" type="line"/>
      <point x="429" y="517" type="line"/>
      <point x="514" y="517" type="line"/>
      <point x="514" y="217" type="line"/>
      <point x="429" y="217" type="line"/>
      <point x="429" y="341" type="line"/>
      <point x="284" y="341" type="line"/>
      <point x="284" y="87" type="line"/>
      <point x="608" y="87" type="line"/>
      <point x="608" y="279" type="line"/>
      <point x="728" y="279" type="line"/>
      <point x="728" y="0" type="line"/>
    </contour>
  </outline>
</glyph>
<glyph name="F" format="1">
  <advance width="716"/>
  <unicode hex="0046"/>
  <outline>
    <contour>
      <point x="20.0" y="0.0" type="line"/>
      <point x="20.0" y="87.0" type="line"/>
      <point x="139.0" y="87.0" type="line"/>
      <point x="139" y="652" type="line"/>
      <point x="20" y="652" type="line"/>
      <point x="20" y="742" type="line"/>
      <point x="709" y="742" type="line"/>
      <point x="709" y="464" type="line"/>
      <point x="589" y="464" type="line"/>
      <point x="589" y="652" type="line"/>
      <point x="284" y="652" type="line"/>
      <point x="284" y="432" type="line"/>
      <point x="442" y="432" type="line"/>
      <point x="442" y="535" type="line"/>
      <point x="527" y="535" type="line"/>
      <point x="527" y="232" type="line"/>
      <point x="442" y="232" type="line"/>
      <point x="442" y="356" type="line"/>
      <point x="284" y="356" type="line"/>
      <point x="284.0" y="87.0" type="line"/>
      <point x="411.0" y="87" type="line"/>
      <point x="411.0" y="87"/>
      <point x="411.0" y="0"/>
      <point x="411.0" y="0" type="curve"/>
    </contour>
  </outline>
</glyph>
<glyph name="G" format="1">
  <advance width="815"/>
  <unicode hex="0047"/>
  <outline>
    <contour>
      <point x="394" y="-13"/>
      <point x="397" y="-13"/>
      <point x="401" y="-13" type="curve" smooth="yes"/>
      <point x="516" y="-13"/>
      <point x="579" y="33"/>
      <point x="619" y="113" type="curve"/>
      <point x="653" y="6" type="line"/>
      <point x="712" y="6" type="line"/>
      <point x="712" y="297" type="line"/>
      <point x="807" y="297" type="line"/>
      <point x="807" y="371" type="line"/>
      <point x="446" y="371" type="line"/>
      <point x="446" y="297" type="line"/>
      <point x="577" y="297" type="line"/>
      <point x="577" y="218" type="line"/>
      <point x="567" y="154"/>
      <point x="505" y="90"/>
      <point x="425" y="90" type="curve" smooth="yes"/>
      <point x="279" y="90"/>
      <point x="205" y="217"/>
      <point x="205" y="374" type="curve" smooth="yes"/>
      <point x="205" y="546"/>
      <point x="325" y="663"/>
      <point x="455" y="663" type="curve" smooth="yes"/>
      <point x="508" y="663"/>
      <point x="545" y="645"/>
      <point x="594" y="607" type="curve"/>
      <point x="563" y="607"/>
      <point x="515" y="585"/>
      <point x="515" y="529" type="curve" smooth="yes"/>
      <point x="515" y="527"/>
      <point x="515" y="524"/>
      <point x="515" y="522" type="curve" smooth="yes"/>
      <point x="518" y="476"/>
      <point x="552" y="451"/>
      <point x="598" y="451" type="curve" smooth="yes"/>
      <point x="661" y="451"/>
      <point x="694" y="501"/>
      <point x="694" y="542" type="curve" smooth="yes"/>
      <point x="694" y="693"/>
      <point x="549" y="757"/>
      <point x="420" y="757" type="curve" smooth="yes"/>
      <point x="419" y="757"/>
      <point x="418" y="757"/>
      <point x="417" y="757" type="curve" smooth="yes"/>
      <point x="182" y="755"/>
      <point x="40" y="567"/>
      <point x="40" y="370" type="curve" smooth="yes"/>
      <point x="40" y="185"/>
      <point x="158" y="-10"/>
      <point x="390" y="-13" type="curve"/>
    </contour>
  </outline>
</glyph>
<glyph name="H" format="1">
  <advance width="859"/>
  <unicode hex="0048"/>
  <outline>
    <contour>
      <point x="834" y="87" type="line"/>
      <point x="834" y="0" type="line"/>
      <point x="457" y="0" type="line"/>
      <point x="457" y="87" type="line"/>
      <point x="570" y="87" type="line"/>
      <point x="570" y="351" type="line"/>
      <point x="289" y="351" type="line"/>
      <point x="289" y="87" type="line"/>
      <point x="401" y="87" type="line"/>
      <point x="401" y="0" type="line"/>
      <point x="25" y="0" type="line"/>
      <point x="25" y="87" type="line"/>
      <point x="144" y="87" type="line"/>
      <point x="144" y="652" type="line"/>
      <point x="25" y="652" type="line"/>
      <point x="25" y="742" type="line"/>
      <point x="401" y="742" type="line"/>
      <point x="401" y="652" type="line"/>
      <point x="289" y="652" type="line"/>
      <point x="289" y="427" type="line"/>
      <point x="570" y="427" type="line"/>
      <point x="570" y="652" type="line"/>
      <point x="457" y="652" type="line"/>
      <point x="457" y="742" type="line"/>
      <point x="834" y="742" type="line"/>
      <point x="834" y="652" type="line"/>
      <point x="715" y="652" type="line"/>
      <point x="715" y="87" type="line"/>
    </contour>
  </outline>
</glyph>
<glyph name="J" format="1">
  <advance width="584"/>
  <unicode hex="004A"/>
  <outline>
    <contour>
      <point x="16" y="-17"/>
      <point x="96" y="-98"/>
      <point x="219" y="-98" type="curve" smooth="yes"/>
      <point x="460" y="-98"/>
      <point x="461" y="118"/>
      <point x="461" y="242" type="curve"/>
      <point x="461" y="652" type="line"/>
      <point x="461" y="652"/>
      <point x="568" y="651"/>
      <point x="568" y="652" type="curve" smooth="yes"/>
      <point x="568" y="742" type="line" smooth="yes"/>
      <point x="176" y="742" type="line"/>
      <point x="176" y="652" type="line"/>
      <point x="316" y="652" type="line" smooth="yes"/>
      <point x="316" y="190" type="line"/>
      <point x="316" y="72"/>
      <point x="314" y="-23"/>
      <point x="214" y="-23" type="curve" smooth="yes"/>
      <point x="181" y="-23"/>
      <point x="147" y="-3"/>
      <point x="147" y="22" type="curve" smooth="yes"/>
      <point x="147" y="47"/>
      <point x="204" y="40"/>
      <point x="204" y="107" type="curve" smooth="yes"/>
      <point x="204" y="161"/>
      <point x="161" y="190"/>
      <point x="117" y="190" type="curve" smooth="yes"/>
      <point x="68" y="190"/>
      <point x="16" y="155"/>
      <point x="16" y="80" type="curve" smooth="yes"/>
    </contour>
  </outline>
</glyph>
<glyph name="K" format="1">
  <advance width="858"/>
  <unicode hex="004B"/>
  <outline>
    <contour>
      <point x="475" y="0" type="curve"/>
      <point x="475" y="0"/>
      <point x="475" y="87"/>
      <point x="475" y="87" type="curve"/>
      <point x="475" y="87"/>
      <point x="574" y="87"/>
      <point x="574" y="87" type="curve" smooth="yes"/>
      <point x="574" y="87"/>
      <point x="397" y="347"/>
      <point x="397" y="347" type="curve" smooth="yes"/>
      <point x="397" y="347"/>
      <point x="289" y="259"/>
      <point x="289" y="259" type="curve"/>
      <point x="289" y="259"/>
      <point x="289.0" y="87.0"/>
      <point x="289.0" y="87.0" type="curve"/>
      <point x="289.0" y="87.0"/>
      <point x="392.0" y="87"/>
      <point x="392.0" y="87" type="curve" smooth="yes"/>
      <point x="392.0" y="87"/>
      <point x="392.0" y="0"/>
      <point x="392.0" y="0" type="curve"/>
      <point x="25.0" y="0.0" type="line"/>
      <point x="25.0" y="87.0" type="line"/>
      <point x="25.0" y="87.0"/>
      <point x="144" y="87"/>
      <point x="144" y="87" type="curve"/>
      <point x="144" y="652" type="line"/>
      <point x="144" y="652"/>
      <point x="25" y="652"/>
      <point x="25" y="652" type="curve"/>
      <point x="25" y="742" type="line"/>
      <point x="392" y="742" type="line"/>
      <point x="392" y="742"/>
      <point x="392" y="652"/>
      <point x="392" y="652" type="curve" smooth="yes"/>
      <point x="392" y="652"/>
      <point x="289" y="652"/>
      <point x="289" y="652" type="curve"/>
      <point x="289" y="369" type="line"/>
      <point x="296" y="371"/>
      <point x="333" y="405"/>
      <point x="338" y="409" type="curve" smooth="yes"/>
      <point x="369" y="439"/>
      <point x="585" y="652"/>
      <point x="585" y="652" type="curve" smooth="yes"/>
      <point x="585" y="652"/>
      <point x="452" y="652"/>
      <point x="452" y="652" type="curve"/>
      <point x="452" y="652"/>
      <point x="452" y="742"/>
      <point x="452" y="742" type="curve"/>
      <point x="452" y="742"/>
      <point x="827" y="742"/>
      <point x="827" y="742" type="curve"/>
      <point x="827" y="742"/>
      <point x="827" y="652"/>
      <point x="827" y="652" type="curve"/>
      <point x="827" y="652"/>
      <point x="736" y="652"/>
      <point x="736" y="652" type="curve" smooth="yes"/>
      <point x="736" y="652"/>
      <point x="512" y="434"/>
      <point x="512" y="434" type="curve" smooth="yes"/>
      <point x="512" y="434"/>
      <point x="768" y="87"/>
      <point x="768" y="87" type="curve"/>
      <point x="768" y="87"/>
      <point x="851" y="87"/>
      <point x="851" y="87" type="curve" smooth="yes"/>
      <point x="851" y="87"/>
      <point x="851" y="0"/>
      <point x="851" y="0" type="curve"/>
      <point x="851" y="0"/>
      <point x="475" y="0"/>
    </contour>
  </outline>
</glyph>
<glyph name="L" format="1">
  <advance width="671"/>
  <unicode hex="004C"/>
  <outline>
    <contour>
      <point x="20.0" y="0.0"/>
      <point x="657" y="-1"/>
      <point x="657" y="0" type="curve"/>
      <point x="657" y="325" type="line"/>
      <point x="551" y="325" type="line"/>
      <point x="551" y="87" type="line" smooth="yes"/>
      <point x="284.0" y="87.0" type="line"/>
      <point x="284" y="652" type="line"/>
      <point x="410" y="652" type="line"/>
      <point x="410" y="742" type="line"/>
      <point x="20" y="742" type="line"/>
      <point x="20" y="652" type="line"/>
      <point x="139" y="652" type="line"/>
      <point x="139.0" y="87.0" type="line"/>
      <point x="20.0" y="87.0" type="line"/>
      <point x="20.0" y="0.0" type="line"/>
    </contour>
  </outline>
</glyph>
<glyph name="M" format="1">
  <advance width="1053"/>
  <unicode hex="004D"/>
  <outline>
    <contour>
      <point x="390" y="0" type="line"/>
      <point x="390" y="87" type="line"/>
      <point x="267" y="87" type="line"/>
      <point x="267" y="646" type="line"/>
      <point x="481" y="88" type="line" smooth="yes"/>
      <point x="487" y="73"/>
      <point x="503" y="60"/>
      <point x="520" y="60" type="curve" smooth="yes"/>
      <point x="533" y="60"/>
      <point x="547" y="69"/>
      <point x="555" y="91" type="curve" smooth="yes"/>
      <point x="745" y="638" type="line"/>
      <point x="745" y="87" type="line"/>
      <point x="638" y="87" type="line"/>
      <point x="638" y="0" type="line"/>
      <point x="1033" y="0" type="line"/>
      <point x="1033" y="87" type="line"/>
      <point x="889" y="87" type="line"/>
      <point x="889" y="652" type="line"/>
      <point x="1026" y="652" type="line"/>
      <point x="1026" y="742" type="line"/>
      <point x="676" y="742" type="line"/>
      <point x="533" y="311" type="line"/>
      <point x="380" y="742" type="line"/>
      <point x="20" y="742" type="line"/>
      <point x="20" y="652" type="line"/>
      <point x="157" y="652" type="line"/>
      <point x="157" y="87" type="line"/>
      <point x="29" y="87" type="line"/>
      <point x="29" y="0" type="line"/>
    </contour>
  </outline>
</glyph>
<glyph name="N" format="1">
  <advance width="861"/>
  <unicode hex="004E"/>
  <outline>
    <contour>
      <point x="352" y="87" type="line"/>
      <point x="240" y="87" type="line"/>
      <point x="240" y="602" type="line"/>
      <point x="605" y="0" type="line"/>
      <point x="735" y="0" type="line"/>
      <point x="735" y="652" type="line"/>
      <point x="847" y="652" type="line"/>
      <point x="847" y="742" type="line"/>
      <point x="511" y="742" type="line"/>
      <point x="511" y="652" type="line"/>
      <point x="635" y="652" type="line"/>
      <point x="635" y="218" type="line"/>
      <point x="316" y="742" type="line"/>
      <point x="20" y="742" type="line"/>
      <point x="20" y="652" type="line"/>
      <point x="138" y="652" type="line"/>
      <point x="138" y="87" type="line"/>
      <point x="20" y="87" type="line"/>
      <point x="20" y="0" type="line"/>
      <point x="352" y="0" type="line"/>
    </contour>
  </outline>
</glyph>
<glyph name="O" format="1">
  <advance width="780"/>
  <unicode hex="004F"/>
  <outline>
    <contour>
      <point x="390" y="662" type="curve"/>
      <point x="266" y="662"/>
      <point x="199" y="512"/>
      <point x="199" y="372" type="curve" smooth="yes"/>
      <point x="199" y="232"/>
      <point x="266" y="82"/>
      <point x="390" y="82" type="curve" smooth="yes"/>
      <point x="514" y="82"/>
      <point x="581" y="230"/>
      <point x="581" y="370" type="curve" smooth="yes"/>
      <point x="581" y="509"/>
      <point x="514" y="659"/>
    </contour>
    <contour>
      <point x="390" y="-13" type="curve" smooth="yes"/>
      <point x="156" y="-13"/>
      <point x="40" y="184"/>
      <point x="40" y="372" type="curve" smooth="yes"/>
      <point x="40" y="559"/>
      <point x="156" y="757"/>
      <point x="390" y="757" type="curve" smooth="yes"/>
      <point x="623" y="757"/>
      <point x="740" y="559"/>
      <point x="740" y="372" type="curve" smooth="yes"/>
      <point x="740" y="184"/>
      <point x="623" y="-13"/>
    </contour>
  </outline>
</glyph>
<glyph name="P" format="1">
  <advance width="698"/>
  <unicode hex="0050"/>
  <outline>
    <contour>
      <point x="25" y="722" type="line"/>
      <point x="386" y="722" type="line" smooth="yes"/>
      <point x="503" y="722"/>
      <point x="682" y="704"/>
      <point x="682" y="513" type="curve" smooth="yes"/>
      <point x="682" y="321"/>
      <point x="506" y="307"/>
      <point x="339" y="307" type="curve" smooth="yes"/>
      <point x="289" y="307" type="line"/>
      <point x="289" y="87" type="line"/>
      <point x="411" y="87" type="line"/>
      <point x="411" y="0" type="line"/>
      <point x="25" y="0" type="line"/>
      <point x="25" y="87" type="line"/>
      <point x="144" y="87" type="line"/>
      <point x="144" y="632" type="line"/>
      <point x="25" y="632" type="line"/>
    </contour>
    <contour>
      <point x="289" y="632" type="curve"/>
      <point x="289" y="386" type="line"/>
      <point x="309" y="386"/>
      <point x="328" y="386"/>
      <point x="348" y="386" type="curve" smooth="yes"/>
      <point x="442" y="386"/>
      <point x="527" y="396"/>
      <point x="527" y="509" type="curve" smooth="yes"/>
      <point x="527" y="642"/>
      <point x="420" y="631"/>
    </contour>
  </outline>
</glyph>
<glyph name="Q" format="1">
  <advance width="828"/>
  <unicode hex="0051"/>
  <outline>
    <contour>
      <point x="218" y="193" type="line"/>
      <point x="218" y="193"/>
      <point x="250" y="289"/>
      <point x="356" y="296" type="curve" smooth="yes"/>
      <point x="560" y="309"/>
      <point x="587" y="43"/>
      <point x="706" y="43" type="curve" smooth="yes"/>
      <point x="745.498545988" y="43.0"/>
      <point x="773" y="79"/>
      <point x="773" y="149" type="curve" smooth="yes"/>
      <point x="773" y="150"/>
      <point x="773" y="175"/>
      <point x="773" y="180" type="curve"/>
      <point x="773" y="180"/>
      <point x="832" y="180"/>
      <point x="832" y="180" type="curve"/>
      <point x="832" y="174"/>
      <point x="832" y="154"/>
      <point x="832" y="149" type="curve" smooth="yes"/>
      <point x="832" y="-34"/>
      <point x="760" y="-77"/>
      <point x="666" y="-77" type="curve" smooth="yes"/>
      <point x="470" y="-77"/>
      <point x="471" y="220"/>
      <point x="347" y="220" type="curve" smooth="yes"/>
      <point x="286" y="220"/>
      <point x="253" y="146"/>
      <point x="253" y="146" type="curve"/>
    </contour>
    <contour>
      <point x="154" y="-13"/>
      <point x="38" y="174"/>
      <point x="38" y="362" type="curve" smooth="yes"/>
      <point x="38" y="549"/>
      <point x="154" y="737"/>
      <point x="388" y="737" type="curve" smooth="yes"/>
      <point x="621" y="737"/>
      <point x="738" y="549"/>
      <point x="738" y="362" type="curve" smooth="yes"/>
      <point x="738" y="174"/>
      <point x="621" y="-13"/>
      <point x="388" y="-13" type="curve" smooth="yes"/>
    </contour>
    <contour>
      <point x="264" y="642"/>
      <point x="197" y="502"/>
      <point x="197" y="362" type="curve" smooth="yes"/>
      <point x="197" y="222"/>
      <point x="264" y="82"/>
      <point x="388" y="82" type="curve" smooth="yes"/>
      <point x="512" y="82"/>
      <point x="579" y="220"/>
      <point x="579" y="360" type="curve" smooth="yes"/>
      <point x="579" y="499"/>
      <point x="512" y="639"/>
      <point x="388" y="642" type="curve"/>
    </contour>
  </outline>
</glyph>
<glyph name="R" format="1">
  <advance width="783"/>
  <unicode hex="0052"/>
  <outline>
    <contour>
      <point x="652" y="-15" type="curve" smooth="yes"/>
      <point x="742" y="-15"/>
      <point x="788" y="21"/>
      <point x="792" y="189" type="curve" smooth="yes"/>
      <point x="792" y="250" type="line"/>
      <point x="727" y="250" type="line"/>
      <point x="727" y="188" type="line"/>
      <point x="727" y="127"/>
      <point x="720" y="75"/>
      <point x="678" y="75" type="curve" smooth="yes"/>
      <point x="604" y="75"/>
      <point x="679" y="275"/>
      <point x="538" y="339" type="curve"/>
      <point x="632" y="360"/>
      <point x="698" y="403"/>
      <point x="698" y="524" type="curve" smooth="yes"/>
      <point x="698" y="720"/>
      <point x="499" y="722"/>
      <point x="353" y="722" type="curve" smooth="yes"/>
      <point x="25" y="722" type="line"/>
      <point x="25" y="632" type="line"/>
      <point x="144" y="632" type="line"/>
      <point x="144" y="87" type="line"/>
      <point x="25" y="87" type="line"/>
      <point x="25" y="0" type="line"/>
      <point x="401" y="0" type="line"/>
      <point x="401" y="87" type="line"/>
      <point x="289" y="87" type="line"/>
      <point x="289" y="324" type="line"/>
      <point x="422" y="325"/>
      <point x="425" y="326"/>
      <point x="429" y="326" type="curve"/>
      <point x="445" y="324"/>
      <point x="473" y="298"/>
      <point x="479" y="202" type="curve" smooth="yes"/>
      <point x="491" y="4"/>
      <point x="569" y="-14"/>
      <point x="648" y="-15" type="curve" smooth="yes"/>
      <point x="649" y="-15"/>
      <point x="651" y="-15"/>
    </contour>
    <contour>
      <point x="539" y="406"/>
      <point x="459" y="406"/>
      <point x="289" y="406" type="curve"/>
      <point x="289" y="631" type="line"/>
      <point x="347" y="631" type="line"/>
      <point x="477" y="631"/>
      <point x="539" y="625"/>
      <point x="539" y="524" type="curve" smooth="yes"/>
    </contour>
  </outline>
</glyph>
<glyph name="S" format="1">
  <advance width="672.0"/>
  <unicode hex="0053"/>
  <outline>
    <contour>
      <point x="72.4008147118" y="277.0"/>
      <point x="44.0" y="225.094234773"/>
      <point x="44.0" y="181.0" type="curve" smooth="yes"/>
      <point x="44.0" y="46.0"/>
      <point x="197.0" y="-13.0"/>
      <point x="350.0" y="-13.0" type="curve" smooth="yes"/>
      <point x="550.0" y="-13.0"/>
      <point x="638.0" y="86"/>
      <point x="638.0" y="198" type="curve"/>
      <point x="638.0" y="206" type="line"/>
      <point x="631.0" y="329"/>
      <point x="568.0" y="368.0"/>
      <point x="350.0" y="451.0" type="curve" smooth="yes"/>
      <point x="214.0" y="503.0"/>
      <point x="195.0" y="531.0"/>
      <point x="195.0" y="576.0" type="curve"/>
      <point x="201.0" y="649.0"/>
      <point x="290.0" y="665.0"/>
      <point x="374.0" y="665.0" type="curve" smooth="yes"/>
      <point x="414.0" y="665.0"/>
      <point x="452.0" y="659.0"/>
      <point x="478.0" y="648.0" type="curve"/>
      <point x="457.0" y="637.0"/>
      <point x="433.0" y="602.0"/>
      <point x="433.0" y="566.0" type="curve" smooth="yes"/>
      <point x="433.0" y="518.0"/>
      <point x="475.0" y="490.0"/>
      <point x="523.0" y="490.0" type="curve" smooth="yes"/>
      <point x="586.0" y="490.0"/>
      <point x="605.0" y="534.0"/>
      <point x="606.0" y="575.0" type="curve" smooth="yes"/>
      <point x="606.0" y="577.0"/>
      <point x="606.0" y="578.0"/>
      <point x="606.0" y="580.0" type="curve" smooth="yes"/>
      <point x="606.0" y="718.0"/>
      <point x="442.0" y="757.0"/>
      <point x="333.0" y="757.0" type="curve" smooth="yes"/>
      <point x="171.0" y="757.0"/>
      <point x="52.0" y="667.0"/>
      <point x="52.0" y="552.0" type="curve" smooth="yes"/>
      <point x="52.0" y="551.0"/>
      <point x="52.0" y="550.0"/>
      <point x="52.0" y="549.0" type="curve" smooth="yes"/>
      <point x="54.0" y="450.0"/>
      <point x="108.0" y="387.0"/>
      <point x="307.0" y="315.0" type="curve" smooth="yes"/>
      <point x="473.0" y="255.0"/>
      <point x="499.0" y="225"/>
      <point x="499.0" y="172" type="curve" smooth="yes"/>
      <point x="499.0" y="113"/>
      <point x="440.0" y="72"/>
      <point x="338.0" y="72" type="curve" smooth="yes"/>
      <point x="289.0" y="72"/>
      <point x="227.0" y="84.0"/>
      <point x="179.0" y="109.0" type="curve"/>
      <point x="204.0" y="114.0"/>
      <point x="233.0" y="153.0"/>
      <point x="233.0" y="192.0" type="curve" smooth="yes"/>
      <point x="233.0" y="240.0"/>
      <point x="188.0" y="277.0"/>
      <point x="140.0" y="277.0" type="curve" smooth="yes"/>
    </contour>
  </outline>
</glyph>
<glyph name="T" format="1">
  <advance width="751"/>
  <unicode hex="0054"/>
  <outline>
    <contour>
      <point x="184" y="0" type="line"/>
      <point x="560" y="0" type="line"/>
      <point x="560" y="87" type="line"/>
      <point x="448" y="87" type="line"/>
      <point x="448" y="664" type="line"/>
      <point x="613" y="664" type="line"/>
      <point x="613" y="453" type="line"/>
      <point x="724" y="453" type="line"/>
      <point x="724" y="742" type="line"/>
      <point x="27" y="742" type="line"/>
      <point x="27" y="453" type="line"/>
      <point x="138" y="453" type="line"/>
      <point x="138" y="664" type="line"/>
      <point x="303" y="664" type="line"/>
      <point x="303" y="87" type="line"/>
      <point x="184" y="87" type="line"/>
    </contour>
  </outline>
</glyph>
<glyph name="U" format="1">
  <advance width="811"/>
  <unicode hex="0055"/>
  <outline>
    <contour>
      <point x="124" y="100"/>
      <point x="210.0" y="-13.0"/>
      <point x="409" y="-13" type="curve" smooth="yes"/>
      <point x="630" y="-13"/>
      <point x="690" y="108"/>
      <point x="690" y="267" type="curve"/>
      <point x="690" y="652" type="line"/>
      <point x="802" y="652" type="line"/>
      <point x="802" y="742" type="line"/>
      <point x="472" y="742" type="line"/>
      <point x="472" y="652" type="line"/>
      <point x="591" y="652" type="line"/>
      <point x="591" y="261" type="line" smooth="yes"/>
      <point x="591" y="142"/>
      <point x="530" y="93"/>
      <point x="420" y="93" type="curve" smooth="yes"/>
      <point x="301.0" y="93.0"/>
      <point x="267" y="161"/>
      <point x="267" y="258" type="curve" smooth="yes"/>
      <point x="267" y="652" type="line"/>
      <point x="379" y="652" type="line"/>
      <point x="379" y="742" type="line"/>
      <point x="9" y="742" type="line"/>
      <point x="9" y="652" type="line"/>
      <point x="124" y="652" type="line"/>
      <point x="124" y="252" type="line" smooth="yes"/>
    </contour>
  </outline>
</glyph>
<glyph name="V" format="1">
  <advance width="842"/>
  <unicode hex="0056"/>
  <outline>
    <contour>
      <point x="331" y="52" type="line" smooth="yes"/>
      <point x="349" y="4"/>
      <point x="383" y="-19"/>
      <point x="418" y="-19" type="curve" smooth="yes"/>
      <point x="455" y="-19"/>
      <point x="492" y="6"/>
      <point x="509" y="52" type="curve" smooth="yes"/>
      <point x="722" y="632" type="line"/>
      <point x="834" y="632" type="line"/>
      <point x="834" y="722" type="line"/>
      <point x="458" y="722" type="line"/>
      <point x="458" y="632" type="line"/>
      <point x="597" y="632" type="line"/>
      <point x="442" y="150" type="line"/>
      <point x="285" y="632" type="line"/>
      <point x="395" y="632" type="line"/>
      <point x="395" y="722" type="line"/>
      <point x="8" y="722" type="line"/>
      <point x="8" y="632" type="line"/>
      <point x="120" y="632" type="line"/>
    </contour>
  </outline>
</glyph>
<glyph name="W" format="1">
  <advance width="1207"/>
  <unicode hex="0057"/>
  <outline>
    <contour>
      <point x="721" y="6"/>
      <point x="759" y="-16"/>
      <point x="791" y="-16" type="curve" smooth="yes"/>
      <point x="824" y="-16"/>
      <point x="862" y="7"/>
      <point x="878" y="52" type="curve" smooth="yes"/>
      <point x="1080" y="632" type="line"/>
      <point x="1192" y="632" type="line"/>
      <point x="1192" y="722" type="line"/>
      <point x="850" y="722" type="line"/>
      <point x="850" y="632" type="line"/>
      <point x="969" y="632" type="line"/>
      <point x="820" y="160" type="line"/>
      <point x="675" y="632" type="line"/>
      <point x="777" y="632" type="line"/>
      <point x="777" y="722" type="line"/>
      <point x="440" y="722" type="line"/>
      <point x="440" y="632" type="line"/>
      <point x="544" y="632" type="line"/>
      <point x="412" y="160" type="line"/>
      <point x="270" y="632" type="line"/>
      <point x="358" y="632" type="line"/>
      <point x="358" y="722" type="line"/>
      <point x="15" y="722" type="line"/>
      <point x="15" y="632" type="line"/>
      <point x="107" y="632" type="line"/>
      <point x="302" y="52" type="line" smooth="yes"/>
      <point x="319" y="6"/>
      <point x="351" y="-16"/>
      <point x="383" y="-16" type="curve" smooth="yes"/>
      <point x="416" y="-16"/>
      <point x="457" y="7"/>
      <point x="471" y="52" type="curve" smooth="yes"/>
      <point x="587" y="429" type="line"/>
      <point x="706" y="52" type="line" smooth="yes"/>
    </contour>
  </outline>
</glyph>
<glyph name="X" format="1">
  <advance width="879"/>
  <unicode hex="0058"/>
  <outline>
    <contour>
      <point x="383" y="0" type="line"/>
      <point x="383" y="87" type="line"/>
      <point x="251" y="87" type="line"/>
      <point x="417" y="289" type="line"/>
      <point x="567" y="87" type="line"/>
      <point x="456" y="87" type="line"/>
      <point x="456" y="0" type="line"/>
      <point x="872" y="0" type="line"/>
      <point x="872" y="87" type="line"/>
      <point x="753" y="87" type="line"/>
      <point x="514" y="402" type="line"/>
      <point x="721" y="652" type="line"/>
      <point x="833" y="652" type="line"/>
      <point x="833" y="742" type="line"/>
      <point x="477" y="742" type="line"/>
      <point x="477" y="652" type="line"/>
      <point x="596" y="652" type="line"/>
      <point x="455" y="478" type="line"/>
      <point x="327" y="652" type="line"/>
      <point x="415" y="652" type="line"/>
      <point x="415" y="742" type="line"/>
      <point x="39" y="742" type="line"/>
      <point x="39" y="652" type="line"/>
      <point x="141" y="652" type="line"/>
      <point x="357" y="365" type="line"/>
      <point x="126" y="87" type="line"/>
      <point x="7" y="87" type="line"/>
      <point x="7" y="0" type="line"/>
    </contour>
  </outline>
</glyph>
<glyph name="Y" format="1">
  <advance width="821"/>
  <unicode hex="0059"/>
  <outline>
    <contour>
      <point x="210" y="0" type="line"/>
      <point x="586" y="0" type="line"/>
      <point x="586" y="87" type="line"/>
      <point x="474" y="87" type="line"/>
      <point x="474" y="309" type="line"/>
      <point x="703" y="632" type="line"/>
      <point x="815" y="632" type="line"/>
      <point x="815" y="722" type="line"/>
      <point x="479" y="722" type="line"/>
      <point x="479" y="632" type="line"/>
      <point x="598" y="632" type="line"/>
      <point x="425" y="387" type="line"/>
      <point x="270" y="632" type="line"/>
      <point x="382" y="632" type="line"/>
      <point x="382" y="722" type="line"/>
      <point x="6" y="722" type="line"/>
      <point x="6" y="632" type="line"/>
      <point x="125" y="632" type="line"/>
      <point x="329" y="311" type="line"/>
      <point x="329" y="87" type="line"/>
      <point x="210" y="87" type="line"/>
    </contour>
  </outline>
</glyph>
<glyph name="Z" format="1">
  <advance width="699"/>
  <unicode hex="005A"/>
  <outline>
    <contour>
      <point x="485" y="655" type="line"/>
      <point x="52" y="87" type="line"/>
      <point x="66" y="0" type="line"/>
      <point x="658" y="0" type="line"/>
      <point x="658" y="322" type="line"/>
      <point x="552" y="322" type="line"/>
      <point x="552" y="87" type="line" smooth="yes"/>
      <point x="227" y="87" type="line"/>
      <point x="654" y="655" type="line"/>
      <point x="639" y="742" type="line"/>
      <point x="639" y="742"/>
      <point x="57" y="743"/>
      <point x="57" y="742" type="curve"/>
      <point x="57" y="421" type="line"/>
      <point x="163" y="421" type="line"/>
      <point x="163" y="655" type="line" smooth="yes"/>
    </contour>
  </outline>
</glyph>
<glyph name="backslash" format="1">
  <advance width="582"/>
  <unicode hex="005C"/>
  <outline>
    <contour>
      <point x="416" y="-78" type="line"/>
      <point x="315" y="-97" type="line"/>
      <point x="154" y="778" type="line"/>
      <point x="253" y="798" type="line"/>
    </contour>
  </outline>
</glyph>
<glyph name="bracketright" format="1">
  <advance width="695"/>
  <unicode hex="005D"/>
  <outline>
    <contour>
      <point x="524" y="787"/>
      <point x="160" y="787"/>
      <point x="160" y="786" type="curve" smooth="yes"/>
      <point x="160" y="712" type="line"/>
      <point x="399" y="712" type="line"/>
      <point x="399" y="-48" type="line"/>
      <point x="160" y="-48" type="line"/>
      <point x="160" y="-125" type="line" smooth="yes"/>
      <point x="160" y="-126"/>
      <point x="524" y="-125"/>
      <point x="524" y="-125" type="curve"/>
      <point x="524" y="787" type="line"/>
    </contour>
  </outline>
</glyph>
<glyph name="asciicircum" format="1">
  <advance width="450"/>
  <unicode hex="005E"/>
  <outline>
    <contour>
      <point x="196" y="575" type="line"/>
      <point x="6" y="154" type="line"/>
      <point x="107.0" y="154.0" type="line"/>
      <point x="243" y="476" type="line"/>
      <point x="371.0" y="154.0" type="line"/>
      <point x="474" y="154" type="line"/>
      <point x="292" y="575" type="line"/>
    </contour>
  </outline>
</glyph>
<glyph name="underscore" format="1">
  <advance width="416"/>
  <unicode hex="005F"/>
  <outline>
    <contour>
      <point x="420" y="-69" type="curve"/>
      <point x="420" y="4" type="line"/>
      <point x="-4" y="4" type="line"/>
      <point x="-4" y="-69" type="line"/>
      <point x="-4" y="-69"/>
      <point x="420" y="-69"/>
    </contour>
  </outline>
</glyph>
<glyph name="a" format="1">
  <advance width="659"/>
  <unicode hex="0061"/>
  <outline>
    <contour>
      <point x="514" y="-14"/>
      <point x="515" y="-14"/>
      <point x="517" y="-14" type="curve" smooth="yes"/>
      <point x="589" y="-14"/>
      <point x="654" y="17"/>
      <point x="654" y="150" type="curve" smooth="yes"/>
      <point x="654" y="218" type="line"/>
      <point x="589" y="218" type="line"/>
      <point x="589" y="153" type="line"/>
      <point x="589" y="115"/>
      <point x="584" y="69"/>
      <point x="542" y="69" type="curve" smooth="yes"/>
      <point x="497" y="69"/>
      <point x="493" y="122"/>
      <point x="493" y="155" type="curve"/>
      <point x="493" y="363" type="line"/>
      <point x="493" y="500"/>
      <point x="377" y="539"/>
      <point x="273" y="539" type="curve" smooth="yes"/>
      <point x="174" y="539"/>
      <point x="72" y="487"/>
      <point x="71" y="404" type="curve" smooth="yes"/>
      <point x="71" y="403"/>
      <point x="71" y="402"/>
      <point x="71" y="402" type="curve" smooth="yes"/>
      <point x="71" y="355"/>
      <point x="100" y="319"/>
      <point x="151" y="319" type="curve" smooth="yes"/>
      <point x="200" y="319"/>
      <point x="231" y="350"/>
      <point x="231" y="389" type="curve" smooth="yes"/>
      <point x="231" y="391"/>
      <point x="231" y="392"/>
      <point x="231" y="393" type="curve" smooth="yes"/>
      <point x="231" y="421"/>
      <point x="208" y="457"/>
      <point x="186" y="460" type="curve"/>
      <point x="209" y="471"/>
      <point x="236" y="476"/>
      <point x="262" y="476" type="curve" smooth="yes"/>
      <point x="320" y="476"/>
      <point x="368" y="452"/>
      <point x="368" y="373" type="curve" smooth="yes"/>
      <point x="368" y="248"/>
      <point x="58" y="280"/>
      <point x="58" y="116" type="curve" smooth="yes"/>
      <point x="58" y="31"/>
      <point x="114" y="-13"/>
      <point x="196" y="-13" type="curve" smooth="yes"/>
      <point x="274" y="-13"/>
      <point x="340" y="26"/>
      <point x="374" y="83" type="curve"/>
      <point x="394" y="10"/>
      <point x="451" y="-13"/>
      <point x="513" y="-14" type="curve" smooth="yes"/>
    </contour>
    <contour>
      <point x="365" y="123"/>
      <point x="270" y="64"/>
      <point x="222" y="64" type="curve" smooth="yes"/>
      <point x="189" y="64"/>
      <point x="177" y="89"/>
      <point x="177" y="119" type="curve" smooth="yes"/>
      <point x="177" y="188"/>
      <point x="250" y="180"/>
      <point x="365" y="272" type="curve"/>
      <point x="365" y="183" type="line" smooth="yes"/>
    </contour>
  </outline>
</glyph>
<glyph name="b" format="1">
  <advance width="626"/>
  <unicode hex="0062"/>
  <outline>
    <contour>
      <point x="229" y="18"/>
      <point x="293" y="-13"/>
      <point x="358" y="-13" type="curve" smooth="yes"/>
      <point x="488" y="-13"/>
      <point x="575" y="106"/>
      <point x="575" y="262" type="curve" smooth="yes"/>
      <point x="575" y="413"/>
      <point x="489" y="538"/>
      <point x="362" y="538" type="curve" smooth="yes"/>
      <point x="349" y="538" type="line"/>
      <point x="291" y="534"/>
      <point x="243" y="509"/>
      <point x="210" y="460" type="curve"/>
      <point x="210" y="750" type="line"/>
      <point x="-18" y="750" type="line"/>
      <point x="-18" y="660" type="line"/>
      <point x="85" y="660" type="line"/>
      <point x="85" y="0" type="line"/>
      <point x="150" y="0" type="line"/>
      <point x="188" y="77" type="line"/>
    </contour>
    <contour>
      <point x="210" y="366"/>
      <point x="238" y="457"/>
      <point x="329" y="457" type="curve" smooth="yes"/>
      <point x="423" y="457"/>
      <point x="443" y="343"/>
      <point x="443" y="256" type="curve" smooth="yes"/>
      <point x="443" y="172"/>
      <point x="412" y="75"/>
      <point x="328" y="75" type="curve" smooth="yes"/>
      <point x="247" y="75"/>
      <point x="210" y="153"/>
      <point x="210" y="285" type="curve" smooth="yes"/>
    </contour>
  </outline>
</glyph>
<glyph name="c" format="1">
  <advance width="546"/>
  <unicode hex="0063"/>
  <outline>
    <contour>
      <point x="153" y="-13"/>
      <point x="33" y="91"/>
      <point x="33" y="252" type="curve" smooth="yes"/>
      <point x="33" y="408"/>
      <point x="130" y="539"/>
      <point x="305" y="539" type="curve" smooth="yes"/>
      <point x="397" y="539"/>
      <point x="515" y="495"/>
      <point x="515" y="369" type="curve" smooth="yes"/>
      <point x="515" y="336"/>
      <point x="487" y="296"/>
      <point x="435" y="296" type="curve" smooth="yes"/>
      <point x="396" y="296"/>
      <point x="369" y="317"/>
      <point x="366" y="353" type="curve" smooth="yes"/>
      <point x="366" y="355"/>
      <point x="366" y="357"/>
      <point x="366" y="359" type="curve" smooth="yes"/>
      <point x="366" y="403"/>
      <point x="406" y="421"/>
      <point x="432" y="421" type="curve"/>
      <point x="412" y="453"/>
      <point x="375" y="473"/>
      <point x="322" y="473" type="curve" smooth="yes"/>
      <point x="224" y="473"/>
      <point x="169" y="379"/>
      <point x="169" y="280" type="curve" smooth="yes"/>
      <point x="169.0" y="164.945254558"/>
      <point x="217.917048931" y="79.0"/>
      <point x="327" y="79" type="curve" smooth="yes"/>
      <point x="411" y="79"/>
      <point x="449" y="152"/>
      <point x="464" y="188" type="curve"/>
      <point x="528" y="164" type="line"/>
      <point x="504" y="59"/>
      <point x="411" y="-13"/>
      <point x="291" y="-13" type="curve" smooth="yes"/>
    </contour>
  </outline>
</glyph>
<glyph name="d" format="1">
  <advance width="608"/>
  <unicode hex="0064"/>
  <outline>
    <contour>
      <point x="251" y="-13" type="curve" smooth="yes"/>
      <point x="121" y="-13"/>
      <point x="34" y="106"/>
      <point x="34" y="262" type="curve" smooth="yes"/>
      <point x="34" y="418"/>
      <point x="124" y="538"/>
      <point x="260" y="538" type="curve" smooth="yes"/>
      <point x="318" y="538"/>
      <point x="366" y="509"/>
      <point x="399" y="460" type="curve"/>
      <point x="399" y="662" type="line"/>
      <point x="295" y="662" type="line"/>
      <point x="295" y="742" type="line"/>
      <point x="524" y="742" type="line"/>
      <point x="524" y="84" type="line"/>
      <point x="600" y="84" type="line"/>
      <point x="600" y="0" type="line"/>
      <point x="399" y="0" type="line"/>
      <point x="399" y="92" type="line"/>
      <point x="360" y="14"/>
      <point x="304" y="-13"/>
    </contour>
    <contour>
      <point x="280" y="457" type="curve" smooth="yes"/>
      <point x="186" y="457"/>
      <point x="166" y="343"/>
      <point x="166" y="256" type="curve" smooth="yes"/>
      <point x="166" y="172"/>
      <point x="197" y="75"/>
      <point x="281" y="75" type="curve" smooth="yes"/>
      <point x="362" y="75"/>
      <point x="399" y="153"/>
      <point x="399" y="285" type="curve" smooth="yes"/>
      <point x="399" y="366"/>
      <point x="371" y="457"/>
    </contour>
  </outline>
</glyph>
<glyph name="e" format="1">
  <advance width="562.0"/>
  <unicode hex="0065"/>
  <outline>
    <contour>
      <point x="144.0" y="-13"/>
      <point x="292.0" y="-14" type="curve" smooth="yes"/>
      <point x="293.0" y="-14"/>
      <point x="294.0" y="-14"/>
      <point x="295.0" y="-14" type="curve" smooth="yes"/>
      <point x="395.0" y="-14"/>
      <point x="488.0" y="42"/>
      <point x="515.0" y="153" type="curve"/>
      <point x="515.0" y="153"/>
      <point x="443.0" y="185"/>
      <point x="443.0" y="185" type="curve"/>
      <point x="423.0" y="136"/>
      <point x="377.0" y="85"/>
      <point x="312.0" y="83" type="curve" smooth="yes"/>
      <point x="205.0" y="80"/>
      <point x="164.0" y="173.0"/>
      <point x="164.0" y="251.0" type="curve" smooth="yes"/>
      <point x="164.0" y="257.0"/>
      <point x="165.0" y="262.0"/>
      <point x="165.0" y="267.0" type="curve"/>
      <point x="529.0" y="267" type="line"/>
      <point x="526.0" y="448"/>
      <point x="418.0" y="539"/>
      <point x="282.0" y="539" type="curve" smooth="yes"/>
      <point x="142.0" y="539"/>
      <point x="33.0" y="416.0"/>
      <point x="33.0" y="261.0" type="curve" smooth="yes"/>
      <point x="33.0" y="93.0"/>
    </contour>
    <contour>
      <point x="223.0" y="465"/>
      <point x="294.0" y="465" type="curve" smooth="yes"/>
      <point x="364.0" y="465"/>
      <point x="402.0" y="406"/>
      <point x="402.0" y="330" type="curve"/>
      <point x="169.0" y="330.0" type="line"/>
      <point x="178.0" y="394.0"/>
    </contour>
  </outline>
</glyph>
<glyph name="f" format="1">
  <advance width="395"/>
  <unicode hex="0066"/>
  <outline>
    <contour>
      <point x="125" y="447" type="line"/>
      <point x="125" y="84" type="line"/>
      <point x="21" y="84" type="line"/>
      <point x="21" y="0" type="line"/>
      <point x="364" y="0" type="line"/>
      <point x="364" y="84" type="line"/>
      <point x="253" y="84" type="line"/>
      <point x="253" y="447" type="line"/>
      <point x="368" y="447" type="line"/>
      <point x="368" y="524" type="line"/>
      <point x="253" y="524" type="line"/>
      <point x="253" y="604" type="line" smooth="yes"/>
      <point x="253" y="697"/>
      <point x="312" y="729"/>
      <point x="351" y="729" type="curve" smooth="yes"/>
      <point x="380" y="729"/>
      <point x="413" y="711"/>
      <point x="414" y="687" type="curve"/>
      <point x="392" y="684"/>
      <point x="357" y="668"/>
      <point x="357" y="631" type="curve" smooth="yes"/>
      <point x="357" y="592"/>
      <point x="391" y="570"/>
      <point x="425" y="570" type="curve" smooth="yes"/>
      <point x="460" y="570"/>
      <point x="496" y="593"/>
      <point x="496" y="646" type="curve" smooth="yes"/>
      <point x="496.0" y="695.756162188"/>
      <point x="444.395078914" y="773.0"/>
      <point x="331" y="773" type="curve" smooth="yes"/>
      <point x="194" y="773"/>
      <point x="125" y="690"/>
      <point x="125" y="524" type="curve"/>
      <point x="21" y="524" type="line"/>
      <point x="21" y="447" type="line"/>
    </contour>
  </outline>
</glyph>
<glyph name="g" format="1">
  <advance width="682"/>
  <unicode hex="0067"/>
  <outline>
    <contour>
      <point x="210" y="67"/>
      <point x="190" y="181"/>
      <point x="190" y="268" type="curve" smooth="yes"/>
      <point x="190" y="352"/>
      <point x="221" y="450"/>
      <point x="305" y="450" type="curve" smooth="yes"/>
      <point x="386" y="450"/>
      <point x="423" y="371"/>
      <point x="423" y="239" type="curve" smooth="yes"/>
      <point x="423" y="158"/>
      <point x="395" y="67"/>
      <point x="304" y="67" type="curve" smooth="yes"/>
    </contour>
    <contour>
      <point x="112" y="-232"/>
      <point x="220" y="-270"/>
      <point x="315" y="-270" type="curve" smooth="yes"/>
      <point x="490" y="-270"/>
      <point x="548" y="-130"/>
      <point x="548" y="18" type="curve" smooth="yes"/>
      <point x="548" y="437" type="line"/>
      <point x="651" y="437" type="line"/>
      <point x="651" y="524" type="line"/>
      <point x="486" y="524" type="line"/>
      <point x="445" y="447" type="line"/>
      <point x="401" y="506"/>
      <point x="340" y="538"/>
      <point x="275" y="538" type="curve" smooth="yes"/>
      <point x="145" y="538"/>
      <point x="58" y="418"/>
      <point x="58" y="262" type="curve" smooth="yes"/>
      <point x="58" y="106"/>
      <point x="148" y="-14"/>
      <point x="284" y="-14" type="curve" smooth="yes"/>
      <point x="342" y="-14"/>
      <point x="390" y="15"/>
      <point x="423" y="64" type="curve"/>
      <point x="423" y="0" type="line" smooth="yes"/>
      <point x="423.0" y="-134.835136781"/>
      <point x="390.473528959" y="-204.0"/>
      <point x="285" y="-204" type="curve" smooth="yes"/>
      <point x="251" y="-204"/>
      <point x="223" y="-195"/>
      <point x="196" y="-180" type="curve"/>
      <point x="222" y="-180"/>
      <point x="262" y="-162"/>
      <point x="262" y="-118" type="curve" smooth="yes"/>
      <point x="262" y="-80"/>
      <point x="234" y="-55"/>
      <point x="193" y="-55" type="curve" smooth="yes"/>
      <point x="145" y="-55"/>
      <point x="112" y="-92"/>
      <point x="112" y="-133" type="curve" smooth="yes"/>
    </contour>
  </outline>
</glyph>
<glyph name="h" format="1">
  <advance width="684"/>
  <unicode hex="0068"/>
  <outline>
    <contour>
      <point x="582" y="350" type="line" smooth="yes"/>
      <point x="582" y="518"/>
      <point x="463" y="538"/>
      <point x="407" y="538" type="curve" smooth="yes"/>
      <point x="344" y="538"/>
      <point x="274" y="518"/>
      <point x="233" y="438" type="curve"/>
      <point x="233" y="742" type="line"/>
      <point x="4" y="742" type="line"/>
      <point x="4" y="662" type="line"/>
      <point x="108" y="662" type="line"/>
      <point x="108" y="84" type="line"/>
      <point x="15" y="84" type="line"/>
      <point x="15" y="0" type="line"/>
      <point x="322" y="0" type="line"/>
      <point x="322" y="84" type="line"/>
      <point x="233" y="84" type="line"/>
      <point x="233" y="262" type="line" smooth="yes"/>
      <point x="233" y="357"/>
      <point x="259" y="451"/>
      <point x="369" y="451" type="curve" smooth="yes"/>
      <point x="417" y="451"/>
      <point x="457" y="409"/>
      <point x="457" y="343" type="curve" smooth="yes"/>
      <point x="457" y="84" type="line"/>
      <point x="368" y="84" type="line"/>
      <point x="368" y="0" type="line"/>
      <point x="678" y="0" type="line"/>
      <point x="678" y="84" type="line"/>
      <point x="582" y="84" type="line"/>
    </contour>
  </outline>
</glyph>
<glyph name="i" format="1">
  <advance width="334"/>
  <unicode hex="0069"/>
  <outline>
    <contour>
      <point x="245" y="524" type="line"/>
      <point x="245" y="84" type="line"/>
      <point x="330" y="84" type="line"/>
      <point x="330" y="0" type="line"/>
      <point x="24" y="0" type="line"/>
      <point x="24" y="84" type="line"/>
      <point x="121" y="84" type="line"/>
      <point x="121" y="447" type="line"/>
      <point x="23" y="447" type="line"/>
      <point x="23" y="524" type="line"/>
    </contour>
    <contour>
      <point x="90" y="700" type="curve" smooth="yes"/>
      <point x="90" y="746"/>
      <point x="128" y="785"/>
      <point x="174" y="785" type="curve" smooth="yes"/>
      <point x="220" y="785"/>
      <point x="259" y="746"/>
      <point x="259" y="700" type="curve" smooth="yes"/>
      <point x="259" y="654"/>
      <point x="220" y="616"/>
      <point x="174" y="616" type="curve" smooth="yes"/>
      <point x="128" y="616"/>
      <point x="90" y="654"/>
    </contour>
  </outline>
</glyph>
<glyph name="j" format="1">
  <advance width="320"/>
  <unicode hex="006A"/>
  <outline>
    <contour>
      <point x="128" y="785"/>
      <point x="90" y="746"/>
      <point x="90" y="700" type="curve" smooth="yes"/>
      <point x="90" y="654"/>
      <point x="128" y="616"/>
      <point x="174" y="616" type="curve" smooth="yes"/>
      <point x="220" y="616"/>
      <point x="259" y="654"/>
      <point x="259" y="700" type="curve" smooth="yes"/>
      <point x="259" y="746"/>
      <point x="220" y="785"/>
      <point x="174" y="785" type="curve" smooth="yes"/>
    </contour>
    <contour>
      <point x="-95" y="-180"/>
      <point x="-33" y="-228"/>
      <point x="68" y="-228" type="curve" smooth="yes"/>
      <point x="179" y="-228"/>
      <point x="253" y="-163"/>
      <point x="253" y="-41" type="curve" smooth="yes"/>
      <point x="253" y="524" type="line"/>
      <point x="14" y="524" type="line"/>
      <point x="14" y="447" type="line"/>
      <point x="128" y="447" type="line"/>
      <point x="128" y="-56" type="line" smooth="yes"/>
      <point x="128" y="-146"/>
      <point x="96" y="-166"/>
      <point x="67" y="-166" type="curve" smooth="yes"/>
      <point x="45" y="-166"/>
      <point x="25" y="-154"/>
      <point x="25" y="-154" type="curve"/>
      <point x="48" y="-144"/>
      <point x="53" y="-121"/>
      <point x="53" y="-99" type="curve" smooth="yes"/>
      <point x="53" y="-64"/>
      <point x="29" y="-30"/>
      <point x="-16" y="-30" type="curve" smooth="yes"/>
      <point x="-72" y="-30"/>
      <point x="-95" y="-67"/>
      <point x="-95" y="-114" type="curve" smooth="yes"/>
    </contour>
  </outline>
</glyph>
<glyph name="k" format="1">
  <advance width="641"/>
  <unicode hex="006B"/>
  <outline>
    <contour>
      <point x="235" y="742" type="line"/>
      <point x="235" y="286" type="line"/>
      <point x="235" y="286"/>
      <point x="350" y="395"/>
      <point x="407" y="447" type="curve"/>
      <point x="319" y="447" type="line"/>
      <point x="319" y="524" type="line"/>
      <point x="618" y="524" type="line"/>
      <point x="618" y="447" type="line"/>
      <point x="527" y="447" type="line"/>
      <point x="377" y="307" type="line"/>
      <point x="378" y="306"/>
      <point x="458" y="174"/>
      <point x="498" y="125" type="curve" smooth="yes"/>
      <point x="517" y="101"/>
      <point x="538" y="82"/>
      <point x="568" y="82" type="curve" smooth="yes"/>
      <point x="583" y="82"/>
      <point x="605" y="83"/>
      <point x="627" y="92" type="curve"/>
      <point x="633" y="1" type="line"/>
      <point x="598" y="-14"/>
      <point x="571" y="-14"/>
      <point x="543" y="-14" type="curve" smooth="yes"/>
      <point x="477" y="-14"/>
      <point x="435" y="22"/>
      <point x="396" y="85" type="curve" smooth="yes"/>
      <point x="300" y="250" type="line"/>
      <point x="235" y="200" type="line"/>
      <point x="235" y="84" type="line"/>
      <point x="308" y="84" type="line"/>
      <point x="308" y="0" type="line"/>
      <point x="20" y="0" type="line"/>
      <point x="20" y="84" type="line"/>
      <point x="110" y="84" type="line"/>
      <point x="110" y="662" type="line"/>
      <point x="11" y="662" type="line"/>
      <point x="11" y="742" type="line"/>
    </contour>
  </outline>
</glyph>
<glyph name="l" format="1">
  <advance width="373"/>
  <unicode hex="006C"/>
  <outline>
    <contour>
      <point x="252" y="750" type="line"/>
      <point x="252" y="87" type="line"/>
      <point x="345" y="87" type="line"/>
      <point x="345" y="0" type="line"/>
      <point x="28" y="0" type="line"/>
      <point x="28" y="87" type="line"/>
      <point x="127" y="87" type="line"/>
      <point x="127" y="660" type="line"/>
      <point x="28" y="660" type="line"/>
      <point x="28" y="750" type="line"/>
    </contour>
  </outline>
</glyph>
<glyph name="m" format="1">
  <advance width="933"/>
  <unicode hex="006D"/>
  <outline>
    <contour>
      <point x="308" y="0" type="line"/>
      <point x="308" y="84" type="line"/>
      <point x="240" y="84" type="line"/>
      <point x="240" y="243" type="line" smooth="yes"/>
      <point x="240.0" y="338.416288591"/>
      <point x="279" y="457"/>
      <point x="363" y="457" type="curve" smooth="yes"/>
      <point x="397" y="457"/>
      <point x="426" y="425"/>
      <point x="426" y="371" type="curve" smooth="yes"/>
      <point x="426" y="84" type="line"/>
      <point x="357" y="84" type="line"/>
      <point x="357" y="0" type="line"/>
      <point x="618" y="0" type="line"/>
      <point x="618" y="84" type="line"/>
      <point x="551" y="84" type="line"/>
      <point x="551" y="334" type="line" smooth="yes"/>
      <point x="551" y="387"/>
      <point x="596" y="456"/>
      <point x="658" y="456" type="curve" smooth="yes"/>
      <point x="694" y="456"/>
      <point x="727" y="430"/>
      <point x="727" y="371" type="curve" smooth="yes"/>
      <point x="727" y="84" type="line"/>
      <point x="662" y="84" type="line"/>
      <point x="662" y="0" type="line"/>
      <point x="931" y="0" type="line"/>
      <point x="931" y="84" type="line"/>
      <point x="852" y="84" type="line"/>
      <point x="852" y="353" type="line" smooth="yes"/>
      <point x="852" y="521"/>
      <point x="750" y="538"/>
      <point x="700" y="538" type="curve" smooth="yes"/>
      <point x="636" y="538"/>
      <point x="559" y="512"/>
      <point x="531" y="433" type="curve"/>
      <point x="504" y="532"/>
      <point x="441" y="538"/>
      <point x="400" y="538" type="curve" smooth="yes"/>
      <point x="339" y="538"/>
      <point x="267" y="505"/>
      <point x="237" y="433" type="curve"/>
      <point x="237" y="530" type="line"/>
      <point x="20" y="519" type="line"/>
      <point x="20" y="447" type="line"/>
      <point x="115" y="447" type="line"/>
      <point x="115" y="84" type="line"/>
      <point x="20" y="84" type="line"/>
      <point x="20" y="0" type="line"/>
    </contour>
  </outline>
</glyph>
<glyph name="n" format="1">
  <advance width="684"/>
  <unicode hex="006E"/>
  <outline>
    <contour>
      <point x="589" y="348" type="curve" smooth="yes"/>
      <point x="589" y="84" type="line"/>
      <point x="682" y="84" type="line"/>
      <point x="682" y="0" type="line"/>
      <point x="375" y="0" type="line"/>
      <point x="375" y="84" type="line"/>
      <point x="464" y="84" type="line"/>
      <point x="464" y="337" type="line" smooth="yes"/>
      <point x="464" y="425"/>
      <point x="410" y="455"/>
      <point x="364" y="451" type="curve" smooth="yes"/>
      <point x="263" y="443"/>
      <point x="240" y="354"/>
      <point x="240" y="262" type="curve" smooth="yes"/>
      <point x="240" y="84" type="line"/>
      <point x="329" y="84" type="line"/>
      <point x="329" y="0" type="line"/>
      <point x="20" y="0" type="line"/>
      <point x="20" y="84" type="line"/>
      <point x="115" y="84" type="line"/>
      <point x="115" y="447" type="line"/>
      <point x="20" y="447" type="line"/>
      <point x="20" y="518" type="line"/>
      <point x="237" y="529" type="line"/>
      <point x="237" y="505"/>
      <point x="237" y="432"/>
      <point x="237" y="431" type="curve"/>
      <point x="270" y="509"/>
      <point x="344" y="538"/>
      <point x="417" y="538" type="curve" smooth="yes"/>
      <point x="473" y="538"/>
      <point x="589" y="516"/>
    </contour>
  </outline>
</glyph>
<glyph name="o" format="1">
  <advance width="598"/>
  <unicode hex="006F"/>
  <outline>
    <contour>
      <point x="300" y="-13" type="curve" smooth="yes"/>
      <point x="140" y="-13"/>
      <point x="37" y="106"/>
      <point x="37" y="262" type="curve" smooth="yes"/>
      <point x="37" y="418"/>
      <point x="139" y="538"/>
      <point x="299" y="538" type="curve" smooth="yes"/>
      <point x="459" y="538"/>
      <point x="561" y="418"/>
      <point x="561" y="262" type="curve" smooth="yes"/>
      <point x="561" y="108"/>
      <point x="459" y="-13"/>
    </contour>
    <contour>
      <point x="299" y="457" type="curve" smooth="yes"/>
      <point x="189" y="457"/>
      <point x="169" y="343"/>
      <point x="169" y="256" type="curve" smooth="yes"/>
      <point x="169" y="172"/>
      <point x="200" y="75"/>
      <point x="300" y="75" type="curve" smooth="yes"/>
      <point x="399" y="75"/>
      <point x="429" y="174"/>
      <point x="429" y="256" type="curve" smooth="yes"/>
      <point x="429" y="343"/>
      <point x="409" y="457"/>
    </contour>
  </outline>
</glyph>
<glyph name="p" format="1">
  <advance width="605"/>
  <unicode hex="0070"/>
  <outline>
    <contour>
      <point x="-13" y="-196" type="line"/>
      <point x="-13" y="-109" type="line"/>
      <point x="82" y="-109" type="line"/>
      <point x="82" y="447" type="line"/>
      <point x="-13" y="447" type="line"/>
      <point x="-13" y="524" type="line"/>
      <point x="207" y="524" type="line"/>
      <point x="207" y="432" type="line"/>
      <point x="242" y="518"/>
      <point x="307" y="538"/>
      <point x="360" y="538" type="curve" smooth="yes"/>
      <point x="490" y="538"/>
      <point x="572" y="418"/>
      <point x="572" y="262" type="curve" smooth="yes"/>
      <point x="572" y="106"/>
      <point x="489" y="-13"/>
      <point x="353" y="-13" type="curve" smooth="yes"/>
      <point x="295" y="-13"/>
      <point x="240" y="11"/>
      <point x="207" y="66" type="curve"/>
      <point x="207" y="-106" type="line"/>
      <point x="311" y="-106" type="line"/>
      <point x="311" y="-196" type="line"/>
    </contour>
    <contour>
      <point x="326" y="67" type="curve" smooth="yes"/>
      <point x="420" y="67"/>
      <point x="440" y="181"/>
      <point x="440" y="268" type="curve" smooth="yes"/>
      <point x="440" y="352"/>
      <point x="409" y="449"/>
      <point x="325" y="449" type="curve" smooth="yes"/>
      <point x="244" y="449"/>
      <point x="207" y="371"/>
      <point x="207" y="239" type="curve" smooth="yes"/>
      <point x="207" y="158"/>
      <point x="235" y="67"/>
    </contour>
  </outline>
</glyph>
<glyph name="q" format="1">
  <advance width="623"/>
  <unicode hex="0071"/>
  <outline>
    <contour>
      <point x="275" y="-195" type="line"/>
      <point x="275" y="-110" type="line"/>
      <point x="380" y="-110" type="line"/>
      <point x="380" y="64" type="line"/>
      <point x="347" y="15"/>
      <point x="299" y="-14"/>
      <point x="241" y="-14" type="curve" smooth="yes"/>
      <point x="105" y="-14"/>
      <point x="15" y="106"/>
      <point x="15" y="262" type="curve" smooth="yes"/>
      <point x="15" y="418"/>
      <point x="102" y="538"/>
      <point x="232" y="538" type="curve" smooth="yes"/>
      <point x="297" y="538"/>
      <point x="358" y="506"/>
      <point x="402" y="447" type="curve"/>
      <point x="443" y="524" type="line"/>
      <point x="505" y="524" type="line"/>
      <point x="505" y="-110" type="line"/>
      <point x="608" y="-110" type="line"/>
      <point x="608" y="-195" type="line"/>
    </contour>
    <contour>
      <point x="261" y="67" type="curve" smooth="yes"/>
      <point x="352" y="67"/>
      <point x="380" y="158"/>
      <point x="380" y="239" type="curve" smooth="yes"/>
      <point x="380" y="371"/>
      <point x="343" y="450"/>
      <point x="262" y="450" type="curve" smooth="yes"/>
      <point x="178" y="450"/>
      <point x="147" y="352"/>
      <point x="147" y="268" type="curve" smooth="yes"/>
      <point x="147" y="181"/>
      <point x="167" y="67"/>
    </contour>
  </outline>
</glyph>
<glyph name="r" format="1">
  <advance width="476"/>
  <unicode hex="0072"/>
  <outline>
    <contour>
      <point x="344" y="84" type="line"/>
      <point x="239" y="84" type="line"/>
      <point x="239" y="258" type="line" smooth="yes"/>
      <point x="239" y="347"/>
      <point x="252" y="450"/>
      <point x="337" y="457" type="curve"/>
      <point x="332" y="453"/>
      <point x="328" y="445"/>
      <point x="328" y="418" type="curve" smooth="yes"/>
      <point x="328" y="376"/>
      <point x="366" y="355"/>
      <point x="401" y="355" type="curve" smooth="yes"/>
      <point x="438" y="355"/>
      <point x="480" y="387"/>
      <point x="480" y="441" type="curve" smooth="yes"/>
      <point x="480" y="513"/>
      <point x="427" y="534"/>
      <point x="378" y="532" type="curve" smooth="yes"/>
      <point x="313" y="529"/>
      <point x="259" y="494"/>
      <point x="236" y="435" type="curve"/>
      <point x="236" y="530" type="line"/>
      <point x="20" y="518" type="line"/>
      <point x="20" y="447" type="line"/>
      <point x="114" y="447" type="line"/>
      <point x="114" y="84" type="line"/>
      <point x="25" y="84" type="line"/>
      <point x="25" y="0" type="line"/>
      <point x="344" y="0" type="line"/>
    </contour>
  </outline>
</glyph>
<glyph name="s" format="1">
  <advance width="511"/>
  <unicode hex="0073"/>
  <outline>
    <contour>
      <point x="36" y="16"/>
      <point x="158" y="-15"/>
      <point x="262" y="-15" type="curve" smooth="yes"/>
      <point x="361" y="-15"/>
      <point x="479" y="29"/>
      <point x="479" y="152" type="curve" smooth="yes"/>
      <point x="479" y="281"/>
      <point x="364" y="308"/>
      <point x="273" y="336" type="curve" smooth="yes"/>
      <point x="198" y="359"/>
      <point x="160" y="366"/>
      <point x="160" y="411" type="curve" smooth="yes"/>
      <point x="160" y="456"/>
      <point x="214" y="470"/>
      <point x="273" y="470" type="curve" smooth="yes"/>
      <point x="310" y="470"/>
      <point x="347" y="461"/>
      <point x="374" y="442" type="curve"/>
      <point x="361" y="438"/>
      <point x="341" y="415"/>
      <point x="341" y="393" type="curve" smooth="yes"/>
      <point x="341" y="352"/>
      <point x="371" y="333"/>
      <point x="402" y="333" type="curve" smooth="yes"/>
      <point x="438" y="333"/>
      <point x="474" y="361"/>
      <point x="474" y="403" type="curve" smooth="yes"/>
      <point x="474" y="519"/>
      <point x="330" y="537"/>
      <point x="241" y="537" type="curve"/>
      <point x="167" y="537"/>
      <point x="42" y="498"/>
      <point x="42" y="390" type="curve" smooth="yes"/>
      <point x="42" y="282"/>
      <point x="117" y="256"/>
      <point x="207" y="225" type="curve" smooth="yes"/>
      <point x="281" y="199"/>
      <point x="356" y="191"/>
      <point x="356" y="128" type="curve" smooth="yes"/>
      <point x="356" y="81"/>
      <point x="303" y="61"/>
      <point x="241" y="61" type="curve" smooth="yes"/>
      <point x="207" y="61"/>
      <point x="170" y="69"/>
      <point x="138" y="85" type="curve"/>
      <point x="151" y="94"/>
      <point x="169" y="117"/>
      <point x="169" y="136" type="curve" smooth="yes"/>
      <point x="169" y="177"/>
      <point x="139" y="196"/>
      <point x="108" y="196" type="curve" smooth="yes"/>
      <point x="72" y="196"/>
      <point x="36" y="167"/>
      <point x="36" y="125" type="curve" smooth="yes"/>
    </contour>
  </outline>
</glyph>
<glyph name="t" format="1">
  <advance width="419"/>
  <unicode hex="0074"/>
  <outline>
    <contour>
      <point x="82" y="448" type="line"/>
      <point x="-18" y="448" type="line"/>
      <point x="-18" y="488" type="line"/>
      <point x="94" y="536"/>
      <point x="156" y="679"/>
      <point x="170" y="725" type="curve" smooth="yes"/>
      <point x="173" y="736"/>
      <point x="182" y="742"/>
      <point x="192" y="742" type="curve" smooth="yes"/>
      <point x="202" y="742"/>
      <point x="211" y="736"/>
      <point x="211" y="725" type="curve" smooth="yes"/>
      <point x="211" y="524" type="line"/>
      <point x="354" y="524" type="line"/>
      <point x="354" y="447" type="line"/>
      <point x="211" y="447" type="line"/>
      <point x="211" y="149" type="line" smooth="yes"/>
      <point x="211" y="132"/>
      <point x="218" y="82"/>
      <point x="271" y="82" type="curve" smooth="yes"/>
      <point x="314" y="82"/>
      <point x="335" y="111"/>
      <point x="335" y="182" type="curve" smooth="yes"/>
      <point x="335" y="241" type="line"/>
      <point x="406" y="241" type="line"/>
      <point x="406" y="230"/>
      <point x="406" y="198"/>
      <point x="406" y="188" type="curve" smooth="yes"/>
      <point x="406" y="55"/>
      <point x="364" y="-13"/>
      <point x="235" y="-13" type="curve" smooth="yes"/>
      <point x="172" y="-13"/>
      <point x="82" y="31"/>
      <point x="82" y="136" type="curve" smooth="yes"/>
    </contour>
  </outline>
</glyph>
<glyph name="u" format="1">
  <advance width="704"/>
  <unicode hex="0075"/>
  <outline>
    <contour>
      <point x="236" y="524" type="line"/>
      <point x="236" y="167" type="line" smooth="yes"/>
      <point x="236" y="93"/>
      <point x="282" y="73"/>
      <point x="322" y="73" type="curve" smooth="yes"/>
      <point x="406" y="73"/>
      <point x="448.0" y="140.601571705"/>
      <point x="448" y="236" type="curve" smooth="yes"/>
      <point x="448" y="437" type="line"/>
      <point x="353" y="437" type="line"/>
      <point x="353" y="524" type="line"/>
      <point x="573" y="524" type="line"/>
      <point x="573" y="90" type="line"/>
      <point x="677" y="90" type="line"/>
      <point x="677" y="0" type="line"/>
      <point x="451" y="0" type="line"/>
      <point x="451" y="98" type="line"/>
      <point x="429" y="27"/>
      <point x="351" y="-13"/>
      <point x="286" y="-13" type="curve" smooth="yes"/>
      <point x="233" y="-13"/>
      <point x="111" y="3"/>
      <point x="111" y="171" type="curve" smooth="yes"/>
      <point x="111" y="437" type="line"/>
      <point x="14" y="437" type="line"/>
      <point x="14" y="524" type="line"/>
    </contour>
  </outline>
</glyph>
<glyph name="v" format="1">
  <advance width="645"/>
  <unicode hex="0076"/>
  <outline>
    <contour>
      <point x="273" y="11"/>
      <point x="290" y="-11"/>
      <point x="329" y="-11" type="curve" smooth="yes"/>
      <point x="371" y="-11"/>
      <point x="390" y="13"/>
      <point x="431" y="116" type="curve" smooth="yes"/>
      <point x="567" y="447" type="line" smooth="yes"/>
      <point x="644" y="447" type="line" smooth="yes"/>
      <point x="644" y="524" type="line" smooth="yes"/>
      <point x="381" y="524" type="line" smooth="yes"/>
      <point x="381" y="447" type="line" smooth="yes"/>
      <point x="464" y="447" type="line" smooth="yes"/>
      <point x="347" y="147" type="line" smooth="yes"/>
      <point x="238" y="447" type="line" smooth="yes"/>
      <point x="314" y="447" type="line" smooth="yes"/>
      <point x="314" y="524" type="line" smooth="yes"/>
      <point x="1" y="524" type="line" smooth="yes"/>
      <point x="1" y="447" type="line" smooth="yes"/>
      <point x="92" y="447" type="line" smooth="yes"/>
      <point x="236" y="103" type="line" smooth="yes"/>
    </contour>
  </outline>
</glyph>
<glyph name="w" format="1">
  <advance width="863"/>
  <unicode hex="0077"/>
  <outline>
    <contour>
      <point x="539" y="24"/>
      <point x="550" y="-11"/>
      <point x="589" y="-11" type="curve" smooth="yes"/>
      <point x="629" y="-11"/>
      <point x="637" y="7"/>
      <point x="676" y="135" type="curve" smooth="yes"/>
      <point x="770" y="447" type="line" smooth="yes"/>
      <point x="856" y="447" type="line" smooth="yes"/>
      <point x="856" y="524" type="line" smooth="yes"/>
      <point x="594" y="524" type="line" smooth="yes"/>
      <point x="594" y="447" type="line" smooth="yes"/>
      <point x="674" y="447" type="line" smooth="yes"/>
      <point x="596" y="147" type="line" smooth="yes"/>
      <point x="491" y="437" type="line" smooth="yes"/>
      <point x="399" y="437" type="line" smooth="yes"/>
      <point x="293" y="147" type="line" smooth="yes"/>
      <point x="224" y="447" type="line" smooth="yes"/>
      <point x="296" y="447" type="line" smooth="yes"/>
      <point x="296" y="524" type="line" smooth="yes"/>
      <point x="7" y="524" type="line" smooth="yes"/>
      <point x="7" y="447" type="line" smooth="yes"/>
      <point x="90" y="447" type="line" smooth="yes"/>
      <point x="182" y="120" type="line" smooth="yes"/>
      <point x="209" y="24"/>
      <point x="225" y="-11"/>
      <point x="267" y="-11" type="curve" smooth="yes"/>
      <point x="310" y="-11"/>
      <point x="322" y="12"/>
      <point x="369" y="135" type="curve" smooth="yes"/>
      <point x="435" y="307" type="line"/>
      <point x="500" y="130" type="line" smooth="yes"/>
    </contour>
  </outline>
</glyph>
<glyph name="x" format="1">
  <advance width="676"/>
  <unicode hex="0078"/>
  <outline>
    <contour>
      <point x="291" y="0" type="line"/>
      <point x="291" y="84" type="line"/>
      <point x="209" y="84" type="line"/>
      <point x="325" y="203" type="line"/>
      <point x="430" y="84" type="line"/>
      <point x="366" y="84" type="line"/>
      <point x="366" y="0" type="line"/>
      <point x="659" y="0" type="line"/>
      <point x="659" y="84" type="line"/>
      <point x="574" y="84" type="line"/>
      <point x="402" y="280" type="line"/>
      <point x="569" y="447" type="line"/>
      <point x="651" y="447" type="line"/>
      <point x="651" y="524" type="line"/>
      <point x="372" y="524" type="line"/>
      <point x="372" y="447" type="line"/>
      <point x="462" y="447" type="line"/>
      <point x="350" y="338" type="line"/>
      <point x="253" y="447" type="line"/>
      <point x="314" y="447" type="line"/>
      <point x="314" y="524" type="line"/>
      <point x="24" y="524" type="line"/>
      <point x="24" y="447" type="line"/>
      <point x="102" y="447" type="line"/>
      <point x="272" y="261" type="line"/>
      <point x="94" y="84" type="line"/>
      <point x="17" y="84" type="line"/>
      <point x="17" y="0" type="line"/>
    </contour>
  </outline>
</glyph>
<glyph name="y" format="1">
  <advance width="645"/>
  <unicode hex="0079"/>
  <outline>
    <contour>
      <point x="0" y="-201"/>
      <point x="72" y="-242"/>
      <point x="167" y="-242" type="curve" smooth="yes"/>
      <point x="305" y="-242"/>
      <point x="354" y="-112"/>
      <point x="395" y="-2" type="curve" smooth="yes"/>
      <point x="395" y="-2"/>
      <point x="565" y="447"/>
      <point x="565" y="447" type="curve" smooth="yes"/>
      <point x="642" y="447" type="line" smooth="yes"/>
      <point x="642" y="524" type="line" smooth="yes"/>
      <point x="379" y="524" type="line" smooth="yes"/>
      <point x="379" y="447" type="line" smooth="yes"/>
      <point x="452" y="447" type="line" smooth="yes"/>
      <point x="344" y="127" type="line" smooth="yes"/>
      <point x="236" y="447" type="line" smooth="yes"/>
      <point x="312" y="447" type="line" smooth="yes"/>
      <point x="312" y="524" type="line" smooth="yes"/>
      <point x="-14" y="524" type="line" smooth="yes"/>
      <point x="-14" y="447" type="line" smooth="yes"/>
      <point x="90" y="447" type="line" smooth="yes"/>
      <point x="90" y="447"/>
      <point x="267" y="0"/>
      <point x="267" y="0" type="curve" smooth="yes"/>
      <point x="242" y="-114"/>
      <point x="207" y="-173"/>
      <point x="150" y="-173" type="curve" smooth="yes"/>
      <point x="113.875216264" y="-173.0"/>
      <point x="100" y="-165"/>
      <point x="84" y="-149" type="curve"/>
      <point x="110" y="-149"/>
      <point x="150" y="-131"/>
      <point x="150" y="-87" type="curve" smooth="yes"/>
      <point x="150" y="-49"/>
      <point x="122" y="-24"/>
      <point x="81" y="-24" type="curve" smooth="yes"/>
      <point x="33" y="-24"/>
      <point x="0" y="-61"/>
      <point x="0" y="-102" type="curve" smooth="yes"/>
    </contour>
  </outline>
</glyph>
<glyph name="z" format="1">
  <advance width="572"/>
  <unicode hex="007A"/>
  <outline>
    <contour>
      <point x="373" y="447" type="line"/>
      <point x="53" y="93" type="line"/>
      <point x="64" y="0" type="line"/>
      <point x="532" y="0" type="line"/>
      <point x="532" y="226" type="line"/>
      <point x="435" y="226" type="line"/>
      <point x="435" y="77" type="line"/>
      <point x="195" y="77" type="line"/>
      <point x="506" y="427" type="line"/>
      <point x="497" y="524" type="line"/>
      <point x="49" y="524" type="line"/>
      <point x="49" y="297" type="line"/>
      <point x="149" y="297" type="line"/>
      <point x="149" y="447" type="line"/>
    </contour>
  </outline>
</glyph>
<glyph name="braceleft" format="1">
  <advance width="433"/>
  <unicode hex="007B"/>
  <outline>
    <contour>
      <point x="174" y="315" type="curve"/>
      <point x="239" y="330"/>
      <point x="258" y="375"/>
      <point x="258" y="505" type="curve" smooth="yes"/>
      <point x="258" y="680"/>
      <point x="253" y="711"/>
      <point x="381" y="711" type="curve"/>
      <point x="381" y="773" type="line"/>
      <point x="172" y="773"/>
      <point x="108" y="711"/>
      <point x="108" y="515" type="curve" smooth="yes"/>
      <point x="108" y="374"/>
      <point x="119" y="358"/>
      <point x="51" y="358" type="curve" smooth="yes"/>
      <point x="-5" y="358" type="line"/>
      <point x="-5" y="272" type="line"/>
      <point x="51" y="272" type="line" smooth="yes"/>
      <point x="119" y="272"/>
      <point x="108" y="256"/>
      <point x="108" y="115" type="curve" smooth="yes"/>
      <point x="108" y="-81"/>
      <point x="172" y="-143"/>
      <point x="381" y="-143" type="curve"/>
      <point x="381" y="-81" type="line"/>
      <point x="253" y="-81"/>
      <point x="258" y="-50"/>
      <point x="258" y="125" type="curve" smooth="yes"/>
      <point x="258" y="255"/>
      <point x="239" y="300"/>
    </contour>
  </outline>
</glyph>
<glyph name="braceright" format="1">
  <advance width="433"/>
  <unicode hex="007D"/>
  <outline>
    <contour>
      <point x="174.0" y="315.0" type="curve"/>
      <point x="239.0" y="330.0"/>
      <point x="258.0" y="375.0"/>
      <point x="258.0" y="505.0" type="curve" smooth="yes"/>
      <point x="258.0" y="680.0"/>
      <point x="253.0" y="711.0"/>
      <point x="381.0" y="711.0" type="curve"/>
      <point x="381.0" y="773.0" type="line"/>
      <point x="172.0" y="773.0"/>
      <point x="108.0" y="711.0"/>
      <point x="108.0" y="515.0" type="curve" smooth="yes"/>
      <point x="108.0" y="374.0"/>
      <point x="119.0" y="358.0"/>
      <point x="51.0" y="358.0" type="curve" smooth="yes"/>
      <point x="-5.0" y="358.0" type="line"/>
      <point x="-5.0" y="272.0" type="line"/>
      <point x="51.0" y="272.0" type="line" smooth="yes"/>
      <point x="119.0" y="272.0"/>
      <point x="108.0" y="256.0"/>
      <point x="108.0" y="115.0" type="curve" smooth="yes"/>
      <point x="108.0" y="-81.0"/>
      <point x="172.0" y="-143.0"/>
      <point x="381.0" y="-143.0" type="curve"/>
      <point x="381.0" y="-81.0" type="line"/>
      <point x="253.0" y="-81.0"/>
      <point x="258.0" y="-50.0"/>
      <point x="258.0" y="125.0" type="curve" smooth="yes"/>
      <point x="258.0" y="255.0"/>
      <point x="239.0" y="300.0"/>
    </contour>
  </outline>
</glyph>
<glyph name="asciitilde" format="1">
  <advance width="518"/>
  <unicode hex="007E"/>
  <outline>
    <contour>
      <point x="222.0" y="367.0"/>
      <point x="343" y="428"/>
      <point x="385" y="428" type="curve" smooth="yes"/>
      <point x="411" y="428"/>
      <point x="425" y="414"/>
      <point x="425" y="368" type="curve"/>
      <point x="496.0" y="368.0" type="line"/>
      <point x="496.0" y="493.0"/>
      <point x="455.0" y="524.0"/>
      <point x="370.0" y="524.0" type="curve" smooth="yes"/>
      <point x="294.0" y="524.0"/>
      <point x="174" y="468"/>
      <point x="133" y="468" type="curve" smooth="yes"/>
      <point x="107" y="468"/>
      <point x="93" y="478"/>
      <point x="93" y="524" type="curve"/>
      <point x="22.0" y="524.0" type="line"/>
      <point x="22.0" y="400.0"/>
      <point x="62.0" y="367.0"/>
      <point x="148.0" y="367.0" type="curve" smooth="yes"/>
    </contour>
  </outline>
</glyph>
<glyph name="cent" format="1">
  <advance width="560"/>
  <unicode hex="00A2"/>
  <outline>
    <contour>
      <point x="273.0" y="630.0" type="line"/>
      <point x="316.0" y="630.0" type="line"/>
      <point x="316.0" y="-104.0" type="line"/>
      <point x="273.0" y="-104.0" type="line"/>
    </contour>
    <component base="c"/>
  </outline>
</glyph>
<glyph name="sterling" format="1">
  <advance width="621"/>
  <unicode hex="00A3"/>
  <outline>
    <contour>
      <point x="559" y="242" type="line"/>
      <point x="468" y="242" type="line"/>
      <point x="468" y="84" type="line" smooth="yes"/>
      <point x="174" y="84" type="line"/>
      <point x="234" y="137"/>
      <point x="285" y="212"/>
      <point x="285" y="306" type="curve"/>
      <point x="285" y="309"/>
      <point x="285" y="312"/>
      <point x="285" y="316" type="curve"/>
      <point x="401" y="316" type="line"/>
      <point x="414" y="389" type="line"/>
      <point x="277" y="389" type="line"/>
      <point x="258" y="467"/>
      <point x="215" y="511"/>
      <point x="215" y="567" type="curve" smooth="yes"/>
      <point x="215" y="631"/>
      <point x="261" y="665"/>
      <point x="346" y="665" type="curve" smooth="yes"/>
      <point x="394" y="665"/>
      <point x="419" y="647"/>
      <point x="443" y="627" type="curve"/>
      <point x="423" y="621"/>
      <point x="393" y="592"/>
      <point x="393" y="557" type="curve" smooth="yes"/>
      <point x="393" y="555"/>
      <point x="393" y="554"/>
      <point x="393" y="552" type="curve" smooth="yes"/>
      <point x="397" y="508"/>
      <point x="434" y="481"/>
      <point x="475" y="481" type="curve" smooth="yes"/>
      <point x="526" y="481"/>
      <point x="561" y="513"/>
      <point x="561" y="570" type="curve"/>
      <point x="561" y="680"/>
      <point x="450" y="737"/>
      <point x="339" y="737" type="curve" smooth="yes"/>
      <point x="338" y="737"/>
      <point x="336" y="737"/>
      <point x="334" y="737" type="curve" smooth="yes"/>
      <point x="188" y="734"/>
      <point x="90" y="669"/>
      <point x="90" y="566" type="curve" smooth="yes"/>
      <point x="90" y="565"/>
      <point x="90" y="565"/>
      <point x="90" y="564" type="curve" smooth="yes"/>
      <point x="91" y="510"/>
      <point x="126" y="475"/>
      <point x="146" y="389" type="curve"/>
      <point x="80" y="389" type="line"/>
      <point x="69" y="315" type="line"/>
      <point x="153" y="315" type="line"/>
      <point x="153" y="312"/>
      <point x="153" y="309"/>
      <point x="153" y="305" type="curve"/>
      <point x="153" y="205"/>
      <point x="100" y="138"/>
      <point x="52" y="83" type="curve"/>
      <point x="83" y="0" type="line"/>
      <point x="559" y="0" type="line"/>
    </contour>
    <contour>
      <point x="373" y="722" type="move" name="top"/>
    </contour>
    <contour>
      <point x="373" y="0" type="move" name="bottom"/>
    </contour>
  </outline>
</glyph>
<glyph name="currency" format="1">
  <advance width="581"/>
  <unicode hex="00A4"/>
  <outline>
    <contour>
      <point x="157" y="583"/>
      <point x="213" y="656"/>
      <point x="303" y="656" type="curve" smooth="yes"/>
      <point x="393" y="656"/>
      <point x="452" y="593"/>
      <point x="452" y="498" type="curve" smooth="yes"/>
      <point x="452" y="407"/>
      <point x="393" y="342"/>
      <point x="304" y="342" type="curve" smooth="yes"/>
      <point x="218" y="342"/>
      <point x="157" y="395"/>
      <point x="157" y="498" type="curve" smooth="yes"/>
    </contour>
    <contour>
      <point x="497" y="266" type="line"/>
      <point x="539" y="308" type="line"/>
      <point x="487" y="360" type="line"/>
      <point x="517" y="396"/>
      <point x="535" y="442"/>
      <point x="535" y="496" type="curve" smooth="yes"/>
      <point x="535" y="554"/>
      <point x="516" y="603"/>
      <point x="486" y="641" type="curve"/>
      <point x="540" y="695" type="line"/>
      <point x="498" y="737" type="line"/>
      <point x="442" y="681" type="line"/>
      <point x="403" y="708"/>
      <point x="355" y="723"/>
      <point x="304" y="723" type="curve" smooth="yes"/>
      <point x="254" y="723"/>
      <point x="206" y="708"/>
      <point x="167" y="680" type="curve"/>
      <point x="109" y="738" type="line"/>
      <point x="67" y="696" type="line"/>
      <point x="124" y="639" type="line"/>
      <point x="93" y="602"/>
      <point x="74" y="553"/>
      <point x="74" y="496" type="curve" smooth="yes"/>
      <point x="74" y="442"/>
      <point x="91" y="395"/>
      <point x="119" y="359" type="curve"/>
      <point x="67" y="307" type="line"/>
      <point x="110" y="265" type="line"/>
      <point x="163" y="318" type="line"/>
      <point x="202" y="289"/>
      <point x="251" y="274"/>
      <point x="302" y="274" type="curve" smooth="yes"/>
      <point x="353" y="274"/>
      <point x="403" y="290"/>
      <point x="444" y="319" type="curve"/>
    </contour>
  </outline>
</glyph>
<glyph name="yen" format="1">
  <advance width="821"/>
  <unicode hex="00A5"/>
  <outline>
    <contour>
      <point x="608" y="282" type="line"/>
      <point x="192" y="282" type="line"/>
      <point x="192" y="218" type="line"/>
      <point x="192" y="218"/>
      <point x="608" y="218"/>
      <point x="608" y="218" type="curve"/>
    </contour>
    <contour>
      <point x="608" y="383" type="line"/>
      <point x="192" y="383" type="line"/>
      <point x="192" y="319" type="line"/>
      <point x="192" y="319"/>
      <point x="608" y="319"/>
      <point x="608" y="319" type="curve"/>
    </contour>
    <component base="Y"/>
  </outline>
</glyph>
<glyph name="brokenbar" format="1">
  <advance width="338.0"/>
  <unicode hex="00A6"/>
  <outline>
    <contour>
      <point x="218.0" y="219.0" type="line"/>
      <point x="120" y="219" type="line"/>
      <point x="120" y="-120" type="line"/>
      <point x="218.0" y="-120.0" type="line"/>
    </contour>
    <contour>
      <point x="218.0" y="784.0" type="line"/>
      <point x="120" y="784" type="line"/>
      <point x="120" y="445" type="line"/>
      <point x="218.0" y="445.0" type="line"/>
    </contour>
  </outline>
</glyph>
<glyph name="section" format="1">
  <advance width="505"/>
  <unicode hex="00A7"/>
  <outline>
    <contour>
      <point x="342" y="285" type="line"/>
      <point x="329" y="290"/>
      <point x="316" y="294"/>
      <point x="303" y="299" type="curve" smooth="yes"/>
      <point x="229" y="325"/>
      <point x="146" y="338"/>
      <point x="146" y="401" type="curve" smooth="yes"/>
      <point x="146" y="418"/>
      <point x="153" y="432"/>
      <point x="164" y="444" type="curve"/>
      <point x="177" y="439"/>
      <point x="190" y="435"/>
      <point x="203" y="430" type="curve" smooth="yes"/>
      <point x="277" y="404"/>
      <point x="366" y="396"/>
      <point x="366" y="333" type="curve" smooth="yes"/>
      <point x="366" y="314"/>
      <point x="358" y="299"/>
      <point x="344" y="287" type="curve"/>
    </contour>
    <contour>
      <point x="36" y="23"/>
      <point x="159" y="-8"/>
      <point x="248" y="-8" type="curve"/>
      <point x="342" y="-8"/>
      <point x="468" y="31"/>
      <point x="468" y="139" type="curve" smooth="yes"/>
      <point x="468" y="190"/>
      <point x="452" y="221"/>
      <point x="425" y="243" type="curve"/>
      <point x="455" y="270"/>
      <point x="475" y="307"/>
      <point x="475" y="357" type="curve" smooth="yes"/>
      <point x="475" y="486"/>
      <point x="360" y="506"/>
      <point x="269" y="534" type="curve" smooth="yes"/>
      <point x="194" y="557"/>
      <point x="156" y="568"/>
      <point x="156" y="613" type="curve" smooth="yes"/>
      <point x="156" y="658"/>
      <point x="210" y="681"/>
      <point x="269" y="681" type="curve" smooth="yes"/>
      <point x="311" y="681"/>
      <point x="353" y="669"/>
      <point x="381" y="645" type="curve"/>
      <point x="365" y="643"/>
      <point x="337" y="623"/>
      <point x="337" y="591" type="curve" smooth="yes"/>
      <point x="337" y="550"/>
      <point x="367" y="531"/>
      <point x="398" y="531" type="curve" smooth="yes"/>
      <point x="434" y="531"/>
      <point x="470" y="559"/>
      <point x="470" y="601" type="curve" smooth="yes"/>
      <point x="470" y="717"/>
      <point x="335" y="735"/>
      <point x="246" y="735" type="curve"/>
      <point x="172" y="735"/>
      <point x="38" y="698"/>
      <point x="38" y="595" type="curve" smooth="yes"/>
      <point x="38" y="545"/>
      <point x="54" y="513"/>
      <point x="80" y="489" type="curve"/>
      <point x="51" y="463"/>
      <point x="31" y="426"/>
      <point x="31" y="377" type="curve" smooth="yes"/>
      <point x="31" y="248"/>
      <point x="146" y="221"/>
      <point x="237" y="193" type="curve" smooth="yes"/>
      <point x="312" y="170"/>
      <point x="350" y="163"/>
      <point x="350" y="118" type="curve" smooth="yes"/>
      <point x="350" y="73"/>
      <point x="298" y="49"/>
      <point x="239" y="49" type="curve" smooth="yes"/>
      <point x="197" y="49"/>
      <point x="153" y="59"/>
      <point x="125" y="83" type="curve"/>
      <point x="141" y="85"/>
      <point x="169" y="104"/>
      <point x="169" y="136" type="curve" smooth="yes"/>
      <point x="169" y="177"/>
      <point x="139" y="196"/>
      <point x="108" y="196" type="curve" smooth="yes"/>
      <point x="72" y="196"/>
      <point x="36" y="168"/>
      <point x="36" y="126" type="curve" smooth="yes"/>
    </contour>
  </outline>
</glyph>
<glyph name="dieresis" format="1">
  <advance width="516"/>
  <unicode hex="00A8"/>
  <outline>
    <contour>
      <point x="316.0" y="643.0" type="curve" smooth="yes"/>
      <point x="316.0" y="680.0"/>
      <point x="346.0" y="711.0"/>
      <point x="383.0" y="711.0" type="curve" smooth="yes"/>
      <point x="419.0" y="711.0"/>
      <point x="451.0" y="680.0"/>
      <point x="451.0" y="643.0" type="curve" smooth="yes"/>
      <point x="451.0" y="607.0"/>
      <point x="419.0" y="576.0"/>
      <point x="383.0" y="576.0" type="curve" smooth="yes"/>
      <point x="346.0" y="576.0"/>
      <point x="316.0" y="607.0"/>
    </contour>
    <contour>
      <point x="84.0" y="643.0" type="curve" smooth="yes"/>
      <point x="84.0" y="680.0"/>
      <point x="114.0" y="711.0"/>
      <point x="151.0" y="711.0" type="curve" smooth="yes"/>
      <point x="187.0" y="711.0"/>
      <point x="218.0" y="680.0"/>
      <point x="218.0" y="643.0" type="curve" smooth="yes"/>
      <point x="218.0" y="607.0"/>
      <point x="187.0" y="576.0"/>
      <point x="151.0" y="576.0" type="curve" smooth="yes"/>
      <point x="114.0" y="576.0"/>
      <point x="84.0" y="607.0"/>
    </contour>
  </outline>
</glyph>
<glyph name="copyright" format="1">
  <advance width="832"/>
  <unicode hex="00A9"/>
  <outline>
    <contour>
      <point x="41.0" y="157.0"/>
      <point x="211.0" y="-13.0"/>
      <point x="416.0" y="-13.0" type="curve" smooth="yes"/>
      <point x="622.0" y="-13.0"/>
      <point x="791.0" y="157.0"/>
      <point x="791.0" y="363.0" type="curve" smooth="yes"/>
      <point x="791.0" y="568.0"/>
      <point x="622.0" y="737.0"/>
      <point x="416.0" y="737.0" type="curve" smooth="yes"/>
      <point x="211.0" y="737.0"/>
      <point x="41.0" y="568.0"/>
      <point x="41.0" y="363.0" type="curve" smooth="yes"/>
    </contour>
    <contour>
      <point x="747.0" y="183.0"/>
      <point x="599.0" y="34.0"/>
      <point x="417.0" y="34.0" type="curve" smooth="yes"/>
      <point x="236.0" y="34.0"/>
      <point x="87.0" y="183.0"/>
      <point x="87.0" y="364.0" type="curve" smooth="yes"/>
      <point x="87.0" y="546.0"/>
      <point x="236.0" y="694.0"/>
      <point x="417.0" y="694.0" type="curve" smooth="yes"/>
      <point x="599.0" y="694.0"/>
      <point x="747.0" y="546.0"/>
      <point x="747.0" y="364.0" type="curve" smooth="yes"/>
    </contour>
    <contour>
      <point x="514.0" y="159.0"/>
      <point x="588.0" y="210.0"/>
      <point x="608.0" y="294.0" type="curve"/>
      <point x="570.0" y="313.0" type="line"/>
      <point x="558.0" y="265.0"/>
      <point x="510.0" y="210.0"/>
      <point x="441.0" y="210.0" type="curve"/>
      <point x="355.0" y="214.0"/>
      <point x="306.0" y="297.0"/>
      <point x="306.0" y="377.0" type="curve" smooth="yes"/>
      <point x="306.0" y="486.0"/>
      <point x="360.0" y="550.0"/>
      <point x="435.0" y="550.0" type="curve" smooth="yes"/>
      <point x="486.0" y="550.0"/>
      <point x="520.0" y="526.0"/>
      <point x="537.0" y="500.0" type="curve"/>
      <point x="518.0" y="500.0"/>
      <point x="479.0" y="484.0"/>
      <point x="479.0" y="448.0" type="curve"/>
      <point x="479.0" y="418.0"/>
      <point x="504.0" y="398.0"/>
      <point x="533.0" y="398.0" type="curve" smooth="yes"/>
      <point x="572.0" y="398.0"/>
      <point x="595.0" y="430.0"/>
      <point x="595.0" y="456.0" type="curve" smooth="yes"/>
      <point x="595.0" y="539.0"/>
      <point x="512.0" y="590.0"/>
      <point x="436.0" y="590.0" type="curve" smooth="yes"/>
      <point x="312.0" y="590.0"/>
      <point x="227.0" y="500.0"/>
      <point x="226.0" y="375.0" type="curve"/>
      <point x="226.0" y="256.0"/>
      <point x="314.0" y="160.0"/>
      <point x="431.0" y="159.0" type="curve" smooth="yes"/>
    </contour>
    <contour>
      <point x="423.0" y="165.0" type="move" name="bottom"/>
    </contour>
    <contour>
      <point x="423.0" y="580.0" type="move" name="top"/>
    </contour>
    <contour>
      <point x="412.0" y="638.0" type="move" name="top"/>
    </contour>
    <contour>
      <point x="412.0" y="96.0" type="move" name="bottom"/>
    </contour>
  </outline>
</glyph>
<glyph name="ordfeminine" format="1">
  <advance width="659"/>
  <unicode hex="00AA"/>
  <outline>
    <contour>
      <point x="330" y="310"/>
      <point x="372" y="292"/>
      <point x="422" y="291" type="curve" smooth="yes"/>
      <point x="423" y="291"/>
      <point x="423" y="291"/>
      <point x="425" y="291" type="curve" smooth="yes"/>
      <point x="483" y="291"/>
      <point x="532" y="316"/>
      <point x="532" y="424" type="curve" smooth="yes"/>
      <point x="532" y="467" type="line"/>
      <point x="483" y="467" type="line"/>
      <point x="483" y="426" type="line"/>
      <point x="483" y="395"/>
      <point x="482" y="358"/>
      <point x="448" y="358" type="curve" smooth="yes"/>
      <point x="411" y="358"/>
      <point x="410" y="401"/>
      <point x="410" y="428" type="curve"/>
      <point x="410" y="596" type="line"/>
      <point x="410" y="707"/>
      <point x="316" y="739"/>
      <point x="232" y="739" type="curve" smooth="yes"/>
      <point x="152" y="739"/>
      <point x="69" y="697"/>
      <point x="69" y="630" type="curve" smooth="yes"/>
      <point x="69" y="629"/>
      <point x="69" y="628"/>
      <point x="69" y="628" type="curve" smooth="yes"/>
      <point x="69" y="590"/>
      <point x="92" y="553"/>
      <point x="133" y="553" type="curve" smooth="yes"/>
      <point x="173" y="553"/>
      <point x="198" y="578"/>
      <point x="198" y="609" type="curve" smooth="yes"/>
      <point x="198" y="611"/>
      <point x="198" y="612"/>
      <point x="198" y="613" type="curve" smooth="yes"/>
      <point x="197" y="639"/>
      <point x="178" y="666"/>
      <point x="137" y="666" type="curve"/>
      <point x="159" y="685"/>
      <point x="190" y="695"/>
      <point x="219" y="695" type="curve" smooth="yes"/>
      <point x="266" y="695"/>
      <point x="309" y="669"/>
      <point x="309" y="605" type="curve" smooth="yes"/>
      <point x="309" y="503"/>
      <point x="58" y="529"/>
      <point x="58" y="396" type="curve" smooth="yes"/>
      <point x="58" y="327"/>
      <point x="103" y="292"/>
      <point x="170" y="292" type="curve" smooth="yes"/>
      <point x="233" y="292"/>
      <point x="286" y="323"/>
      <point x="314" y="370" type="curve"/>
    </contour>
    <contour>
      <point x="307" y="402"/>
      <point x="230" y="354"/>
      <point x="191" y="354" type="curve" smooth="yes"/>
      <point x="164" y="354"/>
      <point x="154" y="374"/>
      <point x="154" y="399" type="curve" smooth="yes"/>
      <point x="154" y="455"/>
      <point x="214" y="444"/>
      <point x="307" y="519" type="curve"/>
      <point x="307" y="451" type="line" smooth="yes"/>
    </contour>
  </outline>
</glyph>
<glyph name="logicalnot" format="1">
  <advance width="485"/>
  <unicode hex="00AC"/>
  <outline>
    <contour>
      <point x="414" y="420" type="line"/>
      <point x="414" y="163" type="line"/>
      <point x="298" y="163" type="line"/>
      <point x="298" y="341" type="line"/>
      <point x="23" y="341" type="line"/>
      <point x="23" y="420" type="line"/>
    </contour>
  </outline>
</glyph>
<glyph name="registered" format="1">
  <advance width="832"/>
  <unicode hex="00AE"/>
  <outline>
    <contour>
      <point x="41.0" y="157.0"/>
      <point x="211.0" y="-13.0"/>
      <point x="416.0" y="-13.0" type="curve" smooth="yes"/>
      <point x="622.0" y="-13.0"/>
      <point x="791.0" y="157.0"/>
      <point x="791.0" y="363.0" type="curve" smooth="yes"/>
      <point x="791.0" y="568.0"/>
      <point x="622.0" y="737.0"/>
      <point x="416.0" y="737.0" type="curve" smooth="yes"/>
      <point x="211.0" y="737.0"/>
      <point x="41.0" y="568.0"/>
      <point x="41.0" y="363.0" type="curve" smooth="yes"/>
    </contour>
    <contour>
      <point x="747.0" y="183.0"/>
      <point x="599.0" y="34.0"/>
      <point x="417.0" y="34.0" type="curve" smooth="yes"/>
      <point x="236.0" y="34.0"/>
      <point x="87.0" y="183.0"/>
      <point x="87.0" y="364.0" type="curve" smooth="yes"/>
      <point x="87.0" y="546.0"/>
      <point x="236.0" y="694.0"/>
      <point x="417.0" y="694.0" type="curve" smooth="yes"/>
      <point x="599.0" y="694.0"/>
      <point x="747.0" y="546.0"/>
      <point x="747.0" y="364.0" type="curve" smooth="yes"/>
    </contour>
    <contour>
      <point x="458.0" y="198.0"/>
      <point x="479.0" y="160.0"/>
      <point x="548.0" y="160.0" type="curve" smooth="yes"/>
      <point x="586.0" y="160.0"/>
      <point x="641.0" y="175.0"/>
      <point x="641.0" y="256.0" type="curve" smooth="yes"/>
      <point x="641.0" y="297.0" type="line"/>
      <point x="591.0" y="297.0" type="line"/>
      <point x="591.0" y="262.0" type="line" smooth="yes"/>
      <point x="591.0" y="221.0"/>
      <point x="580.0" y="207.0"/>
      <point x="560.0" y="207.0" type="curve" smooth="yes"/>
      <point x="514.0" y="207.0"/>
      <point x="564.0" y="350.0"/>
      <point x="461.0" y="372.0" type="curve"/>
      <point x="519.0" y="383.0"/>
      <point x="569.0" y="406.0"/>
      <point x="570.0" y="468.0" type="curve"/>
      <point x="570.0" y="574.0"/>
      <point x="453.0" y="579.0"/>
      <point x="373.0" y="579.0" type="curve" smooth="yes"/>
      <point x="214.0" y="579.0" type="line"/>
      <point x="214.0" y="540.0" type="line"/>
      <point x="275.0" y="540.0" type="line"/>
      <point x="275.0" y="206.0" type="line"/>
      <point x="214.0" y="206.0" type="line"/>
      <point x="214.0" y="168.0" type="line"/>
      <point x="400.0" y="168.0" type="line"/>
      <point x="400.0" y="206.0" type="line"/>
      <point x="350.0" y="206.0" type="line"/>
      <point x="350.0" y="364.0" type="line"/>
      <point x="400.0" y="364.0" type="line"/>
      <point x="408.0" y="364.0"/>
      <point x="435.0" y="333.0"/>
      <point x="445.0" y="278.0" type="curve" smooth="yes"/>
    </contour>
    <contour>
      <point x="350.0" y="397.0" type="line"/>
      <point x="350.0" y="540.0" type="line"/>
      <point x="373.0" y="540.0" type="line" smooth="yes"/>
      <point x="459.0" y="540.0"/>
      <point x="492.0" y="525.0"/>
      <point x="494.0" y="468.0" type="curve"/>
      <point x="494.0" y="416.0"/>
      <point x="455.0" y="397.0"/>
      <point x="375.0" y="397.0" type="curve" smooth="yes"/>
    </contour>
    <contour>
      <point x="412.0" y="638.0" type="move" name="top"/>
    </contour>
    <contour>
      <point x="412.0" y="96.0" type="move" name="bottom"/>
    </contour>
  </outline>
</glyph>
<glyph name="macron" format="1">
  <advance width="406.0"/>
  <unicode hex="00AF"/>
  <outline>
    <contour>
      <point x="355" y="635" type="curve"/>
      <point x="355" y="722" type="line"/>
      <point x="51" y="722" type="line"/>
      <point x="51" y="635" type="line"/>
      <point x="51" y="635"/>
      <point x="355" y="635"/>
    </contour>
  </outline>
</glyph>
<glyph name="degree" format="1">
  <advance width="370"/>
  <unicode hex="00B0"/>
  <outline>
    <contour>
      <point x="89.0" y="450.0"/>
      <point x="31.0" y="512.0"/>
      <point x="31.0" y="594.0" type="curve" smooth="yes"/>
      <point x="31.0" y="674.0"/>
      <point x="87.0" y="737.0"/>
      <point x="185.0" y="737.0" type="curve" smooth="yes"/>
      <point x="282.0" y="737.0"/>
      <point x="339.0" y="674.0"/>
      <point x="339.0" y="594.0" type="curve" smooth="yes"/>
      <point x="339.0" y="514.0"/>
      <point x="282.0" y="450.0"/>
      <point x="185.0" y="450.0" type="curve" smooth="yes"/>
    </contour>
    <contour>
      <point x="272.0" y="660.0"/>
      <point x="227.0" y="694.0"/>
      <point x="185.0" y="694.0" type="curve" smooth="yes"/>
      <point x="143.0" y="694.0"/>
      <point x="98.0" y="660.0"/>
      <point x="98.0" y="594.0" type="curve" smooth="yes"/>
      <point x="98.0" y="527.0"/>
      <point x="141.0" y="497.0"/>
      <point x="184.0" y="497.0" type="curve" smooth="yes"/>
      <point x="226.0" y="497.0"/>
      <point x="272.0" y="530.0"/>
      <point x="272.0" y="594.0" type="curve" smooth="yes"/>
    </contour>
  </outline>
</glyph>
<glyph name="plusminus" format="1">
  <advance width="696"/>
  <unicode hex="00B1"/>
  <outline>
    <contour>
      <point x="531" y="0" type="curve"/>
      <point x="531" y="87" type="line"/>
      <point x="167" y="87" type="line"/>
      <point x="167" y="0" type="line"/>
      <point x="167" y="0"/>
      <point x="531" y="0"/>
    </contour>
    <contour>
      <point x="152" y="301" type="line"/>
      <point x="544" y="301" type="line"/>
      <point x="544" y="301"/>
      <point x="544" y="398"/>
      <point x="544" y="398" type="curve"/>
      <point x="152" y="398" type="line"/>
    </contour>
    <contour>
      <point x="292" y="525" type="line"/>
      <point x="292" y="185" type="line"/>
      <point x="292" y="185"/>
      <point x="404" y="185"/>
      <point x="404" y="185" type="curve"/>
      <point x="404" y="525" type="line"/>
    </contour>
  </outline>
</glyph>
<glyph name="acute" format="1">
  <advance width="620"/>
  <unicode hex="00B4"/>
  <outline>
    <contour>
      <point x="484" y="698" type="curve"/>
      <point x="435" y="648"/>
      <point x="212" y="576"/>
      <point x="212" y="576" type="curve"/>
      <point x="187" y="611" type="line"/>
      <point x="276" y="687"/>
      <point x="419" y="788"/>
      <point x="419" y="788" type="curve"/>
      <point x="419" y="788"/>
      <point x="484" y="698"/>
    </contour>
  </outline>
</glyph>
<glyph name="paragraph" format="1">
  <advance width="591"/>
  <unicode hex="00B6"/>
  <outline>
    <contour>
      <point x="389.0" y="359.0" type="line"/>
      <point x="460.0" y="359.0" type="line"/>
      <point x="460.0" y="-28.0" type="line"/>
      <point x="540.0" y="-28.0" type="line"/>
      <point x="540.0" y="722.0" type="line"/>
      <point x="271.0" y="722.0" type="line"/>
      <point x="139.0" y="722.0"/>
      <point x="72.0" y="631.0"/>
      <point x="72.0" y="540.0" type="curve" smooth="yes"/>
      <point x="72.0" y="449.0"/>
      <point x="139.0" y="359.0"/>
      <point x="276.0" y="359.0" type="curve" smooth="yes"/>
      <point x="306.0" y="359.0" type="line"/>
      <point x="306.0" y="-28.0" type="line"/>
      <point x="389.0" y="-28.0" type="line"/>
    </contour>
  </outline>
</glyph>
<glyph name="periodcentered" format="1">
  <advance width="397"/>
  <unicode hex="00B7"/>
  <outline>
    <contour>
      <point x="247" y="344"/>
      <point x="288" y="385"/>
      <point x="288" y="434" type="curve" smooth="yes"/>
      <point x="288" y="484"/>
      <point x="247" y="524"/>
      <point x="198" y="524" type="curve" smooth="yes"/>
      <point x="149" y="524"/>
      <point x="108" y="484"/>
      <point x="108" y="434" type="curve" smooth="yes"/>
      <point x="108" y="385"/>
      <point x="149" y="344"/>
      <point x="198" y="344" type="curve" smooth="yes"/>
    </contour>
  </outline>
</glyph>
<glyph name="cedilla" format="1">
  <advance width="165"/>
  <unicode hex="00B8"/>
  <outline>
    <contour>
      <point x="150.0" y="-135.0" type="curve" smooth="yes"/>
      <point x="150.0" y="0.0" type="line"/>
      <point x="146.0" y="0.0"/>
      <point x="132.0" y="0.0"/>
      <point x="131.0" y="0.0" type="curve" smooth="yes"/>
      <point x="72.0" y="0.0"/>
      <point x="29.0" y="-47.0"/>
      <point x="29.0" y="-82.0" type="curve" smooth="yes"/>
      <point x="29.0" y="-105.736653548"/>
      <point x="75" y="-129"/>
      <point x="75" y="-150" type="curve" smooth="yes"/>
      <point x="75" y="-164"/>
      <point x="36" y="-176"/>
      <point x="4" y="-182" type="curve"/>
      <point x="18.0" y="-217.0" type="line"/>
      <point x="18.0" y="-217.0"/>
      <point x="150.0" y="-198.0"/>
    </contour>
  </outline>
</glyph>
<glyph name="guillemotright" format="1">
  <advance width="467"/>
  <unicode hex="00BB"/>
  <outline>
    <contour>
      <point x="50" y="116" type="line"/>
      <point x="239" y="281" type="line"/>
      <point x="239" y="367" type="line"/>
      <point x="239" y="367"/>
      <point x="92" y="492"/>
      <point x="50" y="528" type="curve"/>
      <point x="50" y="403" type="line"/>
      <point x="167.0" y="328.0" type="line"/>
      <point x="50" y="247" type="line"/>
    </contour>
    <contour>
      <point x="263" y="116" type="line"/>
      <point x="452" y="281" type="line"/>
      <point x="452" y="367" type="line"/>
      <point x="452" y="367"/>
      <point x="305" y="492"/>
      <point x="263" y="528" type="curve"/>
      <point x="263" y="403" type="line"/>
      <point x="380" y="328" type="line"/>
      <point x="263" y="247" type="line"/>
    </contour>
  </outline>
</glyph>
<glyph name="onequarter" format="1">
  <advance width="917"/>
  <unicode hex="00BC"/>
  <outline>
    <contour>
      <point x="672" y="178" type="line"/>
      <point x="572" y="178" type="line"/>
      <point x="672" y="335" type="line"/>
    </contour>
    <contour>
      <point x="822" y="56" type="line"/>
      <point x="758" y="56" type="line"/>
      <point x="758" y="122" type="line"/>
      <point x="822" y="122" type="line"/>
      <point x="822" y="178" type="line"/>
      <point x="758" y="178" type="line"/>
      <point x="758" y="398" type="line"/>
      <point x="656" y="398" type="line"/>
      <point x="502" y="182" type="line"/>
      <point x="502" y="122" type="line"/>
      <point x="672" y="122" type="line"/>
      <point x="672" y="56" type="line"/>
      <point x="601" y="56" type="line"/>
      <point x="601" y="0" type="line"/>
      <point x="822" y="0" type="line"/>
    </contour>
    <contour>
      <point x="127" y="362" type="line"/>
      <point x="337" y="362" type="line"/>
      <point x="337" y="418" type="line"/>
      <point x="276" y="418" type="line"/>
      <point x="276" y="762" type="line"/>
      <point x="127" y="724" type="line"/>
      <point x="127" y="661" type="line"/>
      <point x="190" y="678" type="line"/>
      <point x="190" y="418" type="line"/>
      <point x="127" y="418" type="line"/>
    </contour>
    <contour>
      <point x="681" y="737" type="line"/>
      <point x="737.0" y="693.0" type="line"/>
      <point x="217.0" y="-30.0" type="line"/>
      <point x="161" y="14" type="line"/>
    </contour>
    <contour>
      <point x="552.0" y="10.0" type="move" name="ogonek"/>
    </contour>
    <contour>
      <point x="382.0" y="722.0" type="move" name="top"/>
    </contour>
    <contour>
      <point x="378.0" y="10.0" type="move" name="ogonek"/>
    </contour>
    <contour>
      <point x="208.0" y="722.0" type="move" name="top"/>
    </contour>
    <contour>
      <point x="235.0" y="529.0" type="move" name="top"/>
    </contour>
  </outline>
</glyph>
<glyph name="onehalf" format="1">
  <advance width="917"/>
  <unicode hex="00BD"/>
  <outline>
    <contour>
      <point x="895" y="66" type="line" smooth="yes"/>
      <point x="686" y="66" type="line"/>
      <point x="686" y="66"/>
      <point x="787" y="128"/>
      <point x="787" y="128" type="curve"/>
      <point x="877" y="183"/>
      <point x="892" y="227"/>
      <point x="892" y="270" type="curve" smooth="yes"/>
      <point x="892" y="360"/>
      <point x="838" y="406"/>
      <point x="746" y="406" type="curve" smooth="yes"/>
      <point x="650" y="406"/>
      <point x="571" y="345"/>
      <point x="571" y="284" type="curve" smooth="yes"/>
      <point x="571" y="281" type="line" smooth="yes"/>
      <point x="572" y="254"/>
      <point x="590" y="217"/>
      <point x="633" y="217" type="curve" smooth="yes"/>
      <point x="667" y="217"/>
      <point x="692" y="237"/>
      <point x="692" y="276" type="curve" smooth="yes"/>
      <point x="692" y="302"/>
      <point x="670" y="317"/>
      <point x="653" y="322" type="curve"/>
      <point x="673" y="343"/>
      <point x="701" y="357"/>
      <point x="731" y="357" type="curve" smooth="yes"/>
      <point x="779" y="357"/>
      <point x="805" y="323"/>
      <point x="805" y="287" type="curve" smooth="yes"/>
      <point x="805" y="251"/>
      <point x="793" y="230"/>
      <point x="750" y="197" type="curve"/>
      <point x="742" y="190"/>
      <point x="584" y="73"/>
      <point x="584" y="73" type="curve" smooth="yes"/>
      <point x="585" y="73"/>
      <point x="592" y="0"/>
      <point x="592" y="0" type="curve"/>
      <point x="834" y="0" type="line"/>
      <point x="869" y="-68" type="line"/>
      <point x="908" y="-64" type="line" smooth="yes"/>
    </contour>
    <contour>
      <point x="127" y="362" type="line"/>
      <point x="337" y="362" type="line"/>
      <point x="337" y="418" type="line"/>
      <point x="276" y="418" type="line"/>
      <point x="276" y="762" type="line"/>
      <point x="127" y="724" type="line"/>
      <point x="127" y="661" type="line"/>
      <point x="190" y="678" type="line"/>
      <point x="190" y="418" type="line"/>
      <point x="127" y="418" type="line"/>
    </contour>
    <contour>
      <point x="681" y="737" type="line"/>
      <point x="737" y="693" type="line"/>
      <point x="217" y="-30" type="line"/>
      <point x="161" y="14" type="line"/>
    </contour>
    <contour>
      <point x="552" y="10" type="move" name="ogonek"/>
    </contour>
    <contour>
      <point x="382" y="722" type="move" name="top"/>
    </contour>
    <contour>
      <point x="378" y="10" type="move" name="ogonek"/>
    </contour>
    <contour>
      <point x="208" y="722" type="move" name="top"/>
    </contour>
    <contour>
      <point x="235" y="529" type="move" name="top"/>
    </contour>
  </outline>
</glyph>
<glyph name="threequarters" format="1">
  <advance width="917"/>
  <unicode hex="00BE"/>
  <outline>
    <contour>
      <point x="672.0" y="178.0" type="line"/>
      <point x="572.0" y="178.0" type="line"/>
      <point x="672.0" y="335.0" type="line"/>
    </contour>
    <contour>
      <point x="822.0" y="56.0" type="line"/>
      <point x="758.0" y="56.0" type="line"/>
      <point x="758.0" y="122.0" type="line"/>
      <point x="822.0" y="122.0" type="line"/>
      <point x="822.0" y="178.0" type="line"/>
      <point x="758.0" y="178.0" type="line"/>
      <point x="758.0" y="398.0" type="line"/>
      <point x="656.0" y="398.0" type="line"/>
      <point x="502.0" y="182.0" type="line"/>
      <point x="502.0" y="122.0" type="line"/>
      <point x="672.0" y="122.0" type="line"/>
      <point x="672.0" y="56.0" type="line"/>
      <point x="601.0" y="56.0" type="line"/>
      <point x="601.0" y="0.0" type="line"/>
      <point x="822.0" y="0.0" type="line"/>
    </contour>
    <contour>
      <point x="127.0" y="362.0" type="line"/>
      <point x="337.0" y="362.0" type="line"/>
      <point x="337.0" y="418.0" type="line"/>
      <point x="276.0" y="418.0" type="line"/>
      <point x="276.0" y="762.0" type="line"/>
      <point x="127.0" y="724.0" type="line"/>
      <point x="127.0" y="661.0" type="line"/>
      <point x="190.0" y="678.0" type="line"/>
      <point x="190.0" y="418.0" type="line"/>
      <point x="127.0" y="418.0" type="line"/>
    </contour>
    <contour>
      <point x="681.0" y="737.0" type="line"/>
      <point x="737.0" y="693.0" type="line"/>
      <point x="217.0" y="-30.0" type="line"/>
      <point x="161.0" y="14.0" type="line"/>
    </contour>
    <contour>
      <point x="552.0" y="10.0" type="move" name="ogonek"/>
    </contour>
    <contour>
      <point x="382.0" y="722.0" type="move" name="top"/>
    </contour>
    <contour>
      <point x="378.0" y="10.0" type="move" name="ogonek"/>
    </contour>
    <contour>
      <point x="208.0" y="722.0" type="move" name="top"/>
    </contour>
    <contour>
      <point x="235.0" y="529.0" type="move" name="top"/>
    </contour>
  </outline>
</glyph>
<glyph name="AE" format="1">
  <advance width="1139"/>
  <unicode hex="00C6"/>
  <outline>
    <contour>
      <point x="530" y="334" type="line"/>
      <point x="376" y="334" type="line"/>
      <point x="530" y="652" type="line"/>
    </contour>
    <contour>
      <point x="350" y="0" type="line"/>
      <point x="350" y="87" type="line"/>
      <point x="257" y="87" type="line"/>
      <point x="338" y="258" type="line"/>
      <point x="530" y="258" type="line"/>
      <point x="530" y="0" type="line"/>
      <point x="1091" y="0" type="line"/>
      <point x="1091" y="279" type="line"/>
      <point x="971" y="279" type="line"/>
      <point x="971" y="87" type="line"/>
      <point x="675" y="87" type="line"/>
      <point x="675" y="341" type="line"/>
      <point x="802" y="341" type="line"/>
      <point x="802" y="217" type="line"/>
      <point x="887" y="217" type="line"/>
      <point x="887" y="517" type="line"/>
      <point x="802" y="517" type="line"/>
      <point x="802" y="417" type="line"/>
      <point x="675" y="417" type="line"/>
      <point x="675" y="652" type="line"/>
      <point x="971" y="652" type="line"/>
      <point x="971" y="459" type="line"/>
      <point x="1091" y="459" type="line"/>
      <point x="1091" y="742" type="line"/>
      <point x="284" y="742" type="line"/>
      <point x="284" y="652" type="line"/>
      <point x="392" y="652" type="line"/>
      <point x="106" y="87" type="line"/>
      <point x="-2" y="87" type="line"/>
      <point x="-2" y="0" type="line"/>
    </contour>
  </outline>
</glyph>
<glyph name="Eth" format="1">
  <advance width="822"/>
  <unicode hex="00D0"/>
  <outline>
    <contour>
      <point x="284" y="0" type="line" smooth="yes"/>
      <point x="546" y="0"/>
      <point x="778" y="75"/>
      <point x="778" y="366" type="curve" smooth="yes"/>
      <point x="778" y="692"/>
      <point x="509" y="742"/>
      <point x="258" y="742" type="curve" smooth="yes"/>
      <point x="20" y="742" type="line"/>
      <point x="20" y="652" type="line"/>
      <point x="139" y="652" type="line"/>
      <point x="139" y="399" type="line"/>
      <point x="47" y="399" type="line"/>
      <point x="47" y="327" type="line"/>
      <point x="139" y="327" type="line"/>
      <point x="139" y="87" type="line"/>
      <point x="20" y="87" type="line"/>
      <point x="20" y="0" type="line"/>
    </contour>
    <contour>
      <point x="623" y="126"/>
      <point x="454" y="87"/>
      <point x="284" y="87" type="curve"/>
      <point x="284" y="327" type="line"/>
      <point x="406" y="327" type="line"/>
      <point x="406" y="399" type="line"/>
      <point x="284" y="399" type="line"/>
      <point x="284" y="651" type="line"/>
      <point x="452" y="651"/>
      <point x="623" y="618"/>
      <point x="623" y="362" type="curve" smooth="yes"/>
    </contour>
  </outline>
</glyph>
<glyph name="multiply" format="1">
  <advance width="696"/>
  <unicode hex="00D7"/>
  <outline>
    <contour>
      <point x="475" y="486" type="line"/>
      <point x="142" y="153" type="line"/>
      <point x="142" y="153"/>
      <point x="221" y="74"/>
      <point x="221" y="74" type="curve"/>
      <point x="554" y="407" type="line"/>
    </contour>
    <contour>
      <point x="142" y="407" type="line"/>
      <point x="475" y="74" type="line"/>
      <point x="475" y="74"/>
      <point x="554" y="153"/>
      <point x="554" y="153" type="curve"/>
      <point x="221" y="486" type="line"/>
    </contour>
  </outline>
</glyph>
<glyph name="Oslash" format="1">
  <advance width="776"/>
  <unicode hex="00D8"/>
  <outline>
    <contour>
      <point x="699.0" y="750.0" type="line"/>
      <point x="731.0" y="724.0" type="line"/>
      <point x="81.0" y="-44.0" type="line"/>
      <point x="49.0" y="-18.0" type="line"/>
    </contour>
    <component base="O"/>
  </outline>
</glyph>
<glyph name="Thorn" format="1">
  <advance width="725"/>
  <unicode hex="00DE"/>
  <outline>
    <contour>
      <point x="23" y="0" type="line"/>
      <point x="409" y="0" type="line"/>
      <point x="409" y="87" type="line"/>
      <point x="287" y="87" type="line"/>
      <point x="287" y="185" type="line"/>
      <point x="332" y="185" type="line" smooth="yes"/>
      <point x="499" y="185"/>
      <point x="680" y="189"/>
      <point x="680" y="381" type="curve" smooth="yes"/>
      <point x="680" y="572"/>
      <point x="496" y="577"/>
      <point x="379" y="577" type="curve" smooth="yes"/>
      <point x="287" y="577" type="line"/>
      <point x="287" y="655" type="line"/>
      <point x="406" y="655" type="line"/>
      <point x="406" y="742" type="line"/>
      <point x="20" y="742" type="line"/>
      <point x="20" y="655" type="line"/>
      <point x="142" y="655" type="line"/>
      <point x="142" y="87" type="line"/>
      <point x="23" y="87" type="line"/>
    </contour>
    <contour>
      <point x="525" y="264"/>
      <point x="435" y="262"/>
      <point x="341" y="262" type="curve" smooth="yes"/>
      <point x="287" y="262" type="line"/>
      <point x="287" y="499" type="line"/>
      <point x="292" y="499"/>
      <point x="326" y="499"/>
      <point x="331" y="499" type="curve" smooth="yes"/>
      <point x="453" y="499"/>
      <point x="525" y="487"/>
      <point x="525" y="377" type="curve" smooth="yes"/>
    </contour>
  </outline>
</glyph>
<glyph name="germandbls" format="1">
  <advance width="675"/>
  <unicode hex="00DF"/>
  <outline>
    <contour>
      <point x="161" y="457" type="line"/>
      <point x="161" y="524" type="line"/>
      <point x="29" y="524" type="line"/>
      <point x="29" y="457" type="line"/>
    </contour>
    <contour>
      <point x="250" y="479" type="line"/>
      <point x="250" y="592"/>
      <point x="283" y="643"/>
      <point x="367" y="643" type="curve" smooth="yes"/>
      <point x="429" y="643"/>
      <point x="458" y="625"/>
      <point x="458" y="561" type="curve" smooth="yes"/>
      <point x="458" y="480"/>
      <point x="331" y="454"/>
      <point x="327" y="376" type="curve" smooth="yes"/>
      <point x="327" y="375"/>
      <point x="327" y="375"/>
      <point x="327" y="374" type="curve" smooth="yes"/>
      <point x="327" y="299"/>
      <point x="520" y="286"/>
      <point x="520" y="186" type="curve" smooth="yes"/>
      <point x="520.0" y="141.506266647"/>
      <point x="509.903695379" y="87.0"/>
      <point x="333" y="87" type="curve"/>
      <point x="333" y="0" type="line"/>
      <point x="454" y="0"/>
      <point x="646" y="12"/>
      <point x="646" y="171" type="curve" smooth="yes"/>
      <point x="646" y="323"/>
      <point x="443" y="347"/>
      <point x="443" y="376" type="curve"/>
      <point x="443" y="395"/>
      <point x="580" y="440"/>
      <point x="580" y="556" type="curve" smooth="yes"/>
      <point x="580" y="679"/>
      <point x="477" y="727"/>
      <point x="363" y="727" type="curve" smooth="yes"/>
      <point x="221" y="727"/>
      <point x="125" y="643"/>
      <point x="125" y="479" type="curve"/>
      <point x="125" y="87" type="line"/>
      <point x="29" y="87" type="line"/>
      <point x="29" y="0" type="line"/>
      <point x="250" y="0" type="line"/>
    </contour>
  </outline>
</glyph>
<glyph name="ae" format="1">
  <advance width="844"/>
  <unicode hex="00E6"/>
  <outline>
    <contour>
      <point x="436" y="38"/>
      <point x="525" y="-14"/>
      <point x="613" y="-14" type="curve" smooth="yes"/>
      <point x="717" y="-14"/>
      <point x="798" y="50"/>
      <point x="822" y="153" type="curve"/>
      <point x="750" y="185" type="line"/>
      <point x="722" y="120"/>
      <point x="686" y="76"/>
      <point x="623" y="76" type="curve" smooth="yes"/>
      <point x="528" y="76"/>
      <point x="489" y="140"/>
      <point x="486" y="252" type="curve"/>
      <point x="818" y="288" type="line"/>
      <point x="818" y="405"/>
      <point x="761" y="539"/>
      <point x="623" y="539" type="curve" smooth="yes"/>
      <point x="615" y="539" type="line"/>
      <point x="544" y="536"/>
      <point x="472" y="512"/>
      <point x="430" y="447" type="curve"/>
      <point x="395" y="521"/>
      <point x="321" y="538"/>
      <point x="252" y="538" type="curve" smooth="yes"/>
      <point x="148" y="538"/>
      <point x="57" y="480"/>
      <point x="57" y="407" type="curve" smooth="yes"/>
      <point x="57" y="346"/>
      <point x="93" y="320"/>
      <point x="129" y="320" type="curve" smooth="yes"/>
      <point x="165" y="320"/>
      <point x="202" y="347"/>
      <point x="202" y="389" type="curve" smooth="yes"/>
      <point x="202" y="406"/>
      <point x="184" y="438"/>
      <point x="165" y="445" type="curve"/>
      <point x="188" y="458"/>
      <point x="216" y="466"/>
      <point x="245" y="467" type="curve" smooth="yes"/>
      <point x="253" y="467" type="line"/>
      <point x="324" y="467"/>
      <point x="356" y="426"/>
      <point x="356" y="353" type="curve" smooth="yes"/>
      <point x="356" y="313" type="line"/>
      <point x="113" y="270"/>
      <point x="40" y="226"/>
      <point x="40" y="124" type="curve" smooth="yes"/>
      <point x="40" y="56"/>
      <point x="96" y="-14"/>
      <point x="180" y="-14" type="curve" smooth="yes"/>
      <point x="287" y="-14"/>
      <point x="357" y="30"/>
      <point x="406" y="105" type="curve"/>
    </contour>
    <contour>
      <point x="492" y="329" type="line"/>
      <point x="501" y="419"/>
      <point x="554" y="468"/>
      <point x="625" y="470" type="curve" smooth="yes"/>
      <point x="685" y="470"/>
      <point x="717" y="408"/>
      <point x="718" y="356" type="curve"/>
    </contour>
    <contour>
      <point x="344" y="134"/>
      <point x="294" y="68"/>
      <point x="216" y="68" type="curve" smooth="yes"/>
      <point x="178" y="68"/>
      <point x="153" y="102"/>
      <point x="153" y="129" type="curve" smooth="yes"/>
      <point x="153" y="181"/>
      <point x="194" y="204"/>
      <point x="365" y="232" type="curve"/>
      <point x="365" y="232"/>
      <point x="372" y="190"/>
      <point x="377" y="180" type="curve"/>
    </contour>
    <contour>
      <point x="314" y="524" type="move" name="top"/>
    </contour>
    <contour>
      <point x="272" y="0" type="move" name="bottom"/>
    </contour>
    <contour>
      <point x="497" y="10" type="move" name="ogonek"/>
    </contour>
  </outline>
</glyph>
<glyph name="divide" format="1">
  <advance width="446"/>
  <unicode hex="00F7"/>
  <outline>
    <contour>
      <point x="385.0" y="258.0" type="curve"/>
      <point x="385.0" y="334.0" type="line"/>
      <point x="61.0" y="334.0" type="line"/>
      <point x="61.0" y="258.0" type="line"/>
      <point x="61.0" y="258.0"/>
      <point x="385.0" y="258.0"/>
    </contour>
    <contour>
      <point x="165.0" y="131.0" type="curve" smooth="yes"/>
      <point x="165.0" y="166.0"/>
      <point x="193.0" y="195.0"/>
      <point x="228.0" y="195.0" type="curve" smooth="yes"/>
      <point x="262.0" y="195.0"/>
      <point x="292.0" y="166.0"/>
      <point x="292.0" y="131.0" type="curve" smooth="yes"/>
      <point x="292.0" y="97.0"/>
      <point x="262.0" y="68.0"/>
      <point x="228.0" y="68.0" type="curve" smooth="yes"/>
      <point x="193.0" y="68.0"/>
      <point x="165.0" y="97.0"/>
    </contour>
    <contour>
      <point x="165.0" y="460.0" type="curve" smooth="yes"/>
      <point x="165.0" y="495.0"/>
      <point x="193.0" y="524.0"/>
      <point x="228.0" y="524.0" type="curve" smooth="yes"/>
      <point x="262.0" y="524.0"/>
      <point x="292.0" y="495.0"/>
      <point x="292.0" y="460.0" type="curve" smooth="yes"/>
      <point x="292.0" y="426.0"/>
      <point x="262.0" y="397.0"/>
      <point x="228.0" y="397.0" type="curve" smooth="yes"/>
      <point x="193.0" y="397.0"/>
      <point x="165.0" y="426.0"/>
    </contour>
  </outline>
</glyph>
<glyph name="oslash" format="1">
  <advance width="581"/>
  <unicode hex="00F8"/>
  <outline>
    <contour>
      <point x="543.0" y="581.0" type="line"/>
      <point x="575.0" y="555.0" type="line"/>
      <point x="55.0" y="-54.0" type="line"/>
      <point x="23.0" y="-28.0" type="line"/>
    </contour>
    <component base="o"/>
  </outline>
</glyph>
<glyph name="thorn" format="1">
  <advance width="605"/>
  <unicode hex="00FE"/>
  <outline>
    <contour>
      <point x="-13.0" y="-196.0" type="line"/>
      <point x="-13.0" y="-109.0" type="line"/>
      <point x="82.0" y="-109.0" type="line"/>
      <point x="82" y="662" type="line"/>
      <point x="-21" y="662" type="line"/>
      <point x="-21" y="742" type="line"/>
      <point x="207" y="742" type="line"/>
      <point x="207.0" y="432.0" type="line"/>
      <point x="242.0" y="518.0"/>
      <point x="307.0" y="538.0"/>
      <point x="360.0" y="538.0" type="curve" smooth="yes"/>
      <point x="490.0" y="538.0"/>
      <point x="572.0" y="418.0"/>
      <point x="572.0" y="262.0" type="curve" smooth="yes"/>
      <point x="572.0" y="106.0"/>
      <point x="489.0" y="-13.0"/>
      <point x="353.0" y="-13.0" type="curve" smooth="yes"/>
      <point x="295.0" y="-13.0"/>
      <point x="240.0" y="11.0"/>
      <point x="207.0" y="66.0" type="curve"/>
      <point x="207.0" y="-106.0" type="line"/>
      <point x="311.0" y="-106.0" type="line"/>
      <point x="311.0" y="-196.0" type="line"/>
    </contour>
    <contour>
      <point x="326.0" y="67.0" type="curve" smooth="yes"/>
      <point x="420.0" y="67.0"/>
      <point x="440.0" y="181.0"/>
      <point x="440.0" y="268.0" type="curve" smooth="yes"/>
      <point x="440.0" y="352.0"/>
      <point x="409.0" y="449.0"/>
      <point x="325.0" y="449.0" type="curve" smooth="yes"/>
      <point x="244.0" y="449.0"/>
      <point x="207.0" y="371.0"/>
      <point x="207.0" y="239.0" type="curve" smooth="yes"/>
      <point x="207.0" y="158.0"/>
      <point x="235.0" y="67.0"/>
    </contour>
  </outline>
</glyph>
<glyph name="dotlessi" format="1">
  <advance width="334"/>
  <unicode hex="0131"/>
  <outline>
    <contour>
      <point x="245.0" y="524.0" type="line"/>
      <point x="245.0" y="84.0" type="line"/>
      <point x="330.0" y="84.0" type="line"/>
      <point x="330.0" y="0.0" type="line"/>
      <point x="24.0" y="0.0" type="line"/>
      <point x="24.0" y="84.0" type="line"/>
      <point x="121.0" y="84.0" type="line"/>
      <point x="121.0" y="447.0" type="line"/>
      <point x="23.0" y="447.0" type="line"/>
      <point x="23.0" y="524.0" type="line"/>
    </contour>
  </outline>
</glyph>
<glyph name="OE" format="1">
  <advance width="1130"/>
  <unicode hex="0152"/>
  <outline>
    <contour>
      <point x="266" y="87"/>
      <point x="199" y="222"/>
      <point x="199" y="362" type="curve" smooth="yes"/>
      <point x="199" y="502"/>
      <point x="266" y="632"/>
      <point x="390" y="632" type="curve"/>
      <point x="512" y="632" type="line"/>
      <point x="512" y="87" type="line"/>
      <point x="390" y="87" type="line"/>
    </contour>
    <contour>
      <point x="1082" y="279" type="line"/>
      <point x="962" y="279" type="line"/>
      <point x="962" y="87" type="line"/>
      <point x="657" y="87" type="line"/>
      <point x="657" y="331" type="line"/>
      <point x="789" y="331" type="line"/>
      <point x="789" y="207" type="line"/>
      <point x="874" y="207" type="line"/>
      <point x="874" y="507" type="line"/>
      <point x="789" y="507" type="line"/>
      <point x="789" y="407" type="line"/>
      <point x="657" y="407" type="line"/>
      <point x="657" y="632" type="line"/>
      <point x="962" y="632" type="line"/>
      <point x="962" y="439" type="line"/>
      <point x="1082" y="439" type="line"/>
      <point x="1082" y="722" type="line"/>
      <point x="390" y="722" type="line"/>
      <point x="156" y="722"/>
      <point x="40" y="549"/>
      <point x="40" y="362" type="curve" smooth="yes"/>
      <point x="40" y="174"/>
      <point x="156" y="0"/>
      <point x="390" y="0" type="curve" smooth="yes"/>
      <point x="1082" y="0" type="line"/>
    </contour>
  </outline>
</glyph>
<glyph name="circumflex" format="1">
  <advance width="620"/>
  <unicode hex="02C6"/>
  <outline>
    <contour>
      <point x="377" y="690" type="curve"/>
      <point x="339" y="656"/>
      <point x="274" y="571"/>
      <point x="274" y="571" type="curve"/>
      <point x="216" y="626" type="line"/>
      <point x="375" y="797" type="line"/>
      <point x="535" y="623" type="line"/>
      <point x="477" y="569" type="line"/>
      <point x="477" y="569"/>
      <point x="415" y="656"/>
    </contour>
  </outline>
</glyph>
<glyph name="caron" format="1">
  <advance width="620"/>
  <unicode hex="02C7"/>
  <outline>
    <contour>
      <point x="374" y="676" type="curve"/>
      <point x="412" y="710"/>
      <point x="477" y="795"/>
      <point x="477" y="795" type="curve"/>
      <point x="535" y="740" type="line"/>
      <point x="376" y="569" type="line"/>
      <point x="216" y="743" type="line"/>
      <point x="274" y="797" type="line"/>
      <point x="274" y="797"/>
      <point x="336" y="710"/>
    </contour>
  </outline>
</glyph>
<glyph name="breve" format="1">
  <advance width="550"/>
  <unicode hex="02D8"/>
  <outline>
    <contour>
      <point x="442" y="742" type="line"/>
      <point x="439" y="651"/>
      <point x="384" y="598"/>
      <point x="290" y="598" type="curve" smooth="yes"/>
      <point x="196" y="598"/>
      <point x="139" y="650"/>
      <point x="137" y="742" type="curve"/>
      <point x="221" y="742" type="line"/>
      <point x="221" y="690"/>
      <point x="255" y="671"/>
      <point x="290" y="671" type="curve" smooth="yes"/>
      <point x="324" y="671"/>
      <point x="358" y="690"/>
      <point x="358" y="742" type="curve"/>
    </contour>
  </outline>
</glyph>
<glyph name="dotaccent" format="1">
  <advance width="397"/>
  <unicode hex="02D9"/>
  <outline>
    <contour>
      <point x="247" y="562"/>
      <point x="288" y="603"/>
      <point x="288" y="652" type="curve" smooth="yes"/>
      <point x="288" y="702"/>
      <point x="247" y="742"/>
      <point x="198" y="742" type="curve" smooth="yes"/>
      <point x="149" y="742"/>
      <point x="108" y="702"/>
      <point x="108" y="652" type="curve" smooth="yes"/>
      <point x="108" y="603"/>
      <point x="149" y="562"/>
      <point x="198" y="562" type="curve" smooth="yes"/>
    </contour>
  </outline>
</glyph>
<glyph name="ring" format="1">
  <advance width="581"/>
  <unicode hex="02DA"/>
  <outline>
    <contour>
      <point x="212" y="590"/>
      <point x="174" y="641"/>
      <point x="174" y="691" type="curve" smooth="yes"/>
      <point x="174" y="741"/>
      <point x="211" y="790"/>
      <point x="283" y="790" type="curve" smooth="yes"/>
      <point x="354" y="790"/>
      <point x="392" y="740"/>
      <point x="392" y="690" type="curve" smooth="yes"/>
      <point x="392" y="640"/>
      <point x="354" y="590"/>
      <point x="283" y="590" type="curve" smooth="yes"/>
    </contour>
    <contour>
      <point x="334" y="729"/>
      <point x="309" y="749"/>
      <point x="283" y="749" type="curve" smooth="yes"/>
      <point x="258" y="749"/>
      <point x="231" y="729"/>
      <point x="231" y="690" type="curve" smooth="yes"/>
      <point x="231" y="651"/>
      <point x="257" y="632"/>
      <point x="282" y="632" type="curve" smooth="yes"/>
      <point x="308" y="632"/>
      <point x="334" y="652"/>
      <point x="334" y="690" type="curve" smooth="yes"/>
    </contour>
    <contour>
      <point x="283" y="777" type="move" name="top"/>
    </contour>
  </outline>
</glyph>
<glyph name="ogonek" format="1">
  <advance width="165"/>
  <unicode hex="02DB"/>
  <outline>
    <contour>
      <point x="94" y="15"/>
      <point x="8" y="-15"/>
      <point x="8" y="-85" type="curve" smooth="yes"/>
      <point x="8" y="-136"/>
      <point x="82" y="-188"/>
      <point x="169" y="-188" type="curve"/>
      <point x="169" y="-188"/>
      <point x="182" y="-120"/>
      <point x="182" y="-120" type="curve"/>
      <point x="125" y="-112"/>
      <point x="105" y="-88"/>
      <point x="105" y="-64" type="curve" smooth="yes"/>
      <point x="105" y="-36"/>
      <point x="133" y="-6"/>
      <point x="163" y="0" type="curve"/>
      <point x="163" y="15" type="line"/>
    </contour>
    <contour>
      <point x="90" y="-182" type="move" name="_bottom"/>
    </contour>
  </outline>
</glyph>
<glyph name="tilde" format="1">
  <advance width="518"/>
  <unicode hex="02DC"/>
  <outline>
    <contour>
      <point x="291" y="608"/>
      <point x="335.121785896" y="655.0"/>
      <point x="370" y="655" type="curve" smooth="yes"/>
      <point x="394" y="655"/>
      <point x="402" y="637"/>
      <point x="402" y="609" type="curve"/>
      <point x="465" y="609" type="line"/>
      <point x="465" y="696"/>
      <point x="437" y="748"/>
      <point x="377" y="748" type="curve" smooth="yes"/>
      <point x="319.012267642" y="748.0"/>
      <point x="275" y="701"/>
      <point x="240" y="701" type="curve" smooth="yes"/>
      <point x="216" y="701"/>
      <point x="208" y="719"/>
      <point x="208" y="747" type="curve"/>
      <point x="145" y="747" type="line"/>
      <point x="145" y="660"/>
      <point x="173" y="608"/>
      <point x="233" y="608" type="curve" smooth="yes"/>
    </contour>
  </outline>
</glyph>
<glyph name="hungarumlaut" format="1">
  <advance width="620"/>
  <unicode hex="02DD"/>
  <outline>
    <contour>
      <point x="563" y="777" type="curve"/>
      <point x="531" y="715"/>
      <point x="339" y="575"/>
      <point x="339" y="575" type="curve"/>
      <point x="305" y="606" type="line"/>
      <point x="367" y="705"/>
      <point x="474" y="839"/>
      <point x="474" y="839" type="curve"/>
      <point x="474" y="839"/>
      <point x="563" y="777"/>
    </contour>
    <contour>
      <point x="367" y="777" type="curve"/>
      <point x="335" y="715"/>
      <point x="143" y="575"/>
      <point x="143" y="575" type="curve"/>
      <point x="109" y="606" type="line"/>
      <point x="171" y="705"/>
      <point x="278" y="839"/>
      <point x="278" y="839" type="curve"/>
      <point x="278" y="839"/>
      <point x="367" y="777"/>
    </contour>
  </outline>
</glyph>
<glyph name="mu" format="1">
  <advance width="626"/>
  <unicode hex="03BC"/>
  <outline>
    <contour>
      <point x="158" y="-219"/>
      <point x="177" y="-194"/>
      <point x="177" y="-164" type="curve" smooth="yes"/>
      <point x="177" y="-137"/>
      <point x="151" y="-52"/>
      <point x="141" y="18" type="curve"/>
      <point x="179" y="-9"/>
      <point x="224" y="-13"/>
      <point x="251" y="-13" type="curve" smooth="yes"/>
      <point x="316" y="-13"/>
      <point x="394" y="23"/>
      <point x="416" y="94" type="curve"/>
      <point x="416" y="-4" type="line"/>
      <point x="619" y="5" type="line"/>
      <point x="619" y="84" type="line"/>
      <point x="538" y="84" type="line"/>
      <point x="538" y="524" type="line"/>
      <point x="322" y="524" type="line"/>
      <point x="322" y="447" type="line"/>
      <point x="413" y="447" type="line"/>
      <point x="413" y="236" type="line" smooth="yes"/>
      <point x="413" y="141"/>
      <point x="371" y="73"/>
      <point x="287" y="73" type="curve" smooth="yes"/>
      <point x="247" y="73"/>
      <point x="201" y="93"/>
      <point x="201" y="167" type="curve" smooth="yes"/>
      <point x="201" y="524" type="line"/>
      <point x="-12" y="524" type="line"/>
      <point x="-12" y="447" type="line"/>
      <point x="76" y="447" type="line"/>
      <point x="76" y="-147" type="line"/>
      <point x="76" y="-186"/>
      <point x="88" y="-219"/>
      <point x="128" y="-219" type="curve" smooth="yes"/>
    </contour>
  </outline>
</glyph>
<glyph name="quoteleft" format="1">
  <advance width="397"/>
  <unicode hex="2018"/>
  <outline>
    <contour>
      <point x="249" y="708" type="line"/>
      <point x="218" y="691"/>
      <point x="177" y="654"/>
      <point x="177" y="624" type="curve" smooth="yes"/>
      <point x="177" y="617"/>
      <point x="178" y="604"/>
      <point x="181" y="600" type="curve"/>
      <point x="191" y="614"/>
      <point x="210" y="621"/>
      <point x="228" y="621" type="curve" smooth="yes"/>
      <point x="272" y="621"/>
      <point x="295" y="586"/>
      <point x="295" y="549" type="curve" smooth="yes"/>
      <point x="295" y="511"/>
      <point x="269" y="472"/>
      <point x="214" y="472" type="curve" smooth="yes"/>
      <point x="167" y="472"/>
      <point x="113" y="506"/>
      <point x="113" y="584" type="curve" smooth="yes"/>
      <point x="113" y="635"/>
      <point x="140" y="696"/>
      <point x="215" y="746" type="curve" smooth="yes"/>
      <point x="218" y="747"/>
      <point x="220" y="749"/>
      <point x="221" y="750" type="curve"/>
    </contour>
  </outline>
</glyph>
<glyph name="quoteright" format="1">
  <advance width="397"/>
  <unicode hex="2019"/>
  <outline>
    <contour>
      <point x="159" y="514" type="line"/>
      <point x="190" y="531"/>
      <point x="231" y="568"/>
      <point x="231" y="598" type="curve" smooth="yes"/>
      <point x="231" y="605"/>
      <point x="230" y="618"/>
      <point x="227" y="622" type="curve"/>
      <point x="217" y="608"/>
      <point x="198" y="601"/>
      <point x="180" y="601" type="curve" smooth="yes"/>
      <point x="136" y="601"/>
      <point x="113" y="636"/>
      <point x="113" y="673" type="curve" smooth="yes"/>
      <point x="113" y="711"/>
      <point x="139" y="750"/>
      <point x="194" y="750" type="curve" smooth="yes"/>
      <point x="241" y="750"/>
      <point x="295" y="716"/>
      <point x="295" y="638" type="curve" smooth="yes"/>
      <point x="295" y="587"/>
      <point x="268" y="526"/>
      <point x="193" y="476" type="curve" smooth="yes"/>
      <point x="190" y="475"/>
      <point x="188" y="473"/>
      <point x="187" y="472" type="curve"/>
    </contour>
  </outline>
</glyph>
<glyph name="bullet" format="1">
  <advance width="404"/>
  <unicode hex="2022"/>
  <outline>
    <contour>
      <point x="106.0" y="226.0"/>
      <point x="48.0" y="298.0"/>
      <point x="48.0" y="380.0" type="curve" smooth="yes"/>
      <point x="48.0" y="460.0"/>
      <point x="104.0" y="533.0"/>
      <point x="202.0" y="533.0" type="curve" smooth="yes"/>
      <point x="299.0" y="533.0"/>
      <point x="356.0" y="460.0"/>
      <point x="356.0" y="380.0" type="curve" smooth="yes"/>
      <point x="356.0" y="300.0"/>
      <point x="299.0" y="226.0"/>
      <point x="202.0" y="226.0" type="curve" smooth="yes"/>
    </contour>
  </outline>
</glyph>
<glyph name="minus" format="1">
  <advance width="453"/>
  <unicode hex="2212"/>
  <outline>
    <contour>
      <point x="47.0" y="243.0" type="line"/>
      <point x="406.0" y="243.0" type="line"/>
      <point x="406.0" y="171.0" type="line"/>
      <point x="406.0" y="171.0"/>
      <point x="47.0" y="171.0"/>
      <point x="47.0" y="171.0" type="curve"/>
    </contour>
  </outline>
</glyph>
<glyph name="ch" format="1">
  <advance width="1163"/>
  <outline>
    <contour>
      <point x="414.0" y="-14.0"/>
      <point x="495.0" y="59.0"/>
      <point x="519.0" y="163.0" type="curve"/>
      <point x="464.0" y="181.0" type="line"/>
      <point x="452.0" y="143.0"/>
      <point x="395.0" y="66.0"/>
      <point x="311.0" y="66.0" type="curve" smooth="yes"/>
      <point x="208.0" y="66.0"/>
      <point x="147.0" y="143.0"/>
      <point x="147.0" y="268.0" type="curve" smooth="yes"/>
      <point x="147.0" y="372.0"/>
      <point x="200.0" y="483.0"/>
      <point x="318.0" y="483.0" type="curve" smooth="yes"/>
      <point x="371.0" y="483.0"/>
      <point x="411.0" y="456.0"/>
      <point x="431.0" y="424.0" type="curve"/>
      <point x="395.0" y="424.0"/>
      <point x="357.0" y="403.0"/>
      <point x="356.0" y="359.0" type="curve" smooth="yes"/>
      <point x="355.0" y="315.0"/>
      <point x="390.0" y="288.0"/>
      <point x="431.0" y="288.0" type="curve" smooth="yes"/>
      <point x="483.0" y="288.0"/>
      <point x="508.0" y="334.0"/>
      <point x="508.0" y="367.0" type="curve"/>
      <point x="506.0" y="414.0"/>
      <point x="487.0" y="451.0"/>
      <point x="460.0" y="478.0" type="curve"/>
      <point x="419.0" y="519.0"/>
      <point x="398.0" y="576.0"/>
      <point x="398.0" y="607.0" type="curve" smooth="yes"/>
      <point x="398.0" y="659.0"/>
      <point x="437.0" y="690.0"/>
      <point x="613.0" y="690.0" type="curve"/>
      <point x="613.0" y="57.0" type="line"/>
      <point x="523.0" y="57.0" type="line"/>
      <point x="523.0" y="0.0" type="line"/>
      <point x="813.0" y="0.0" type="line"/>
      <point x="813.0" y="57.0" type="line"/>
      <point x="718.0" y="57.0" type="line"/>
      <point x="718.0" y="292.0" type="line" smooth="yes"/>
      <point x="718.0" y="392.0"/>
      <point x="802.0" y="469.0"/>
      <point x="868.0" y="469.0" type="curve" smooth="yes"/>
      <point x="911.0" y="469.0"/>
      <point x="946.0" y="437.0"/>
      <point x="946.0" y="357.0" type="curve" smooth="yes"/>
      <point x="946.0" y="57.0" type="line"/>
      <point x="851.0" y="57.0" type="line"/>
      <point x="851.0" y="0.0" type="line"/>
      <point x="1156.0" y="0.0" type="line"/>
      <point x="1156.0" y="57.0" type="line"/>
      <point x="1051.0" y="57.0" type="line"/>
      <point x="1051.0" y="353.0" type="line" smooth="yes"/>
      <point x="1051.0" y="521.0"/>
      <point x="945.0" y="538.0"/>
      <point x="889.0" y="538.0" type="curve" smooth="yes"/>
      <point x="831.0" y="538.0"/>
      <point x="757.0" y="511.0"/>
      <point x="718.0" y="431.0" type="curve"/>
      <point x="718.0" y="750.0" type="line"/>
      <point x="624.0" y="750.0" type="line" smooth="yes"/>
      <point x="402.0" y="750.0"/>
      <point x="344.0" y="703.0"/>
      <point x="336.0" y="623.0" type="curve" smooth="yes"/>
      <point x="333.0" y="592.0"/>
      <point x="354.0" y="558.0"/>
      <point x="370.0" y="529.0" type="curve"/>
      <point x="347.0" y="536.0"/>
      <point x="324.0" y="539.0"/>
      <point x="301.0" y="539.0" type="curve" smooth="yes"/>
      <point x="126.0" y="539.0"/>
      <point x="36.0" y="401.0"/>
      <point x="36.0" y="252.0" type="curve" smooth="yes"/>
      <point x="36.0" y="89.0"/>
      <point x="149.0" y="-14.0"/>
      <point x="289.0" y="-14.0" type="curve" smooth="yes"/>
    </contour>
    <contour>
      <point x="325.0" y="262.0" type="move" name="center"/>
    </contour>
    <contour>
      <point x="327.0" y="524.0" type="move" name="top"/>
    </contour>
    <contour>
      <point x="281.0" y="524.0" type="move" name="top"/>
    </contour>
    <contour>
      <point x="281.0" y="0.0" type="move" name="bottom"/>
    </contour>
    <contour>
      <point x="323.0" y="262.0" type="move" name="center"/>
    </contour>
    <contour>
      <point x="323.0" y="524.0" type="move" name="top"/>
    </contour>
    <contour>
      <point x="277.0" y="524.0" type="move" name="top"/>
    </contour>
    <contour>
      <point x="277.0" y="0.0" type="move" name="bottom"/>
    </contour>
  </outline>
</glyph>
<glyph name="ck" format="1">
  <advance width="1148"/>
  <outline>
    <contour>
      <point x="414.0" y="-14.0"/>
      <point x="495.0" y="59.0"/>
      <point x="519.0" y="163.0" type="curve"/>
      <point x="464.0" y="181.0" type="line"/>
      <point x="452.0" y="143.0"/>
      <point x="395.0" y="66.0"/>
      <point x="311.0" y="66.0" type="curve" smooth="yes"/>
      <point x="208.0" y="66.0"/>
      <point x="147.0" y="143.0"/>
      <point x="147.0" y="268.0" type="curve" smooth="yes"/>
      <point x="147.0" y="372.0"/>
      <point x="200.0" y="483.0"/>
      <point x="318.0" y="483.0" type="curve" smooth="yes"/>
      <point x="371.0" y="483.0"/>
      <point x="411.0" y="456.0"/>
      <point x="431.0" y="424.0" type="curve"/>
      <point x="395.0" y="424.0"/>
      <point x="357.0" y="403.0"/>
      <point x="356.0" y="359.0" type="curve" smooth="yes"/>
      <point x="355.0" y="315.0"/>
      <point x="390.0" y="288.0"/>
      <point x="431.0" y="288.0" type="curve" smooth="yes"/>
      <point x="483.0" y="288.0"/>
      <point x="508.0" y="334.0"/>
      <point x="508.0" y="367.0" type="curve"/>
      <point x="506.0" y="414.0"/>
      <point x="487.0" y="451.0"/>
      <point x="460.0" y="478.0" type="curve"/>
      <point x="419.0" y="519.0"/>
      <point x="398.0" y="576.0"/>
      <point x="398.0" y="607.0" type="curve" smooth="yes"/>
      <point x="398.0" y="659.0"/>
      <point x="437.0" y="690.0"/>
      <point x="613.0" y="690.0" type="curve"/>
      <point x="630.0" y="690.0" type="line"/>
      <point x="630.0" y="57.0" type="line"/>
      <point x="531.0" y="57.0" type="line"/>
      <point x="531.0" y="0.0" type="line"/>
      <point x="818.0" y="0.0" type="line"/>
      <point x="818.0" y="57.0" type="line"/>
      <point x="735.0" y="57.0" type="line"/>
      <point x="735.0" y="204.0" type="line"/>
      <point x="816.0" y="266.0" type="line"/>
      <point x="914.0" y="97.0" type="line" smooth="yes"/>
      <point x="956.0" y="34.0"/>
      <point x="999.0" y="-10.0"/>
      <point x="1072.0" y="-10.0" type="curve" smooth="yes"/>
      <point x="1100.0" y="-10.0"/>
      <point x="1124.0" y="-9.0"/>
      <point x="1159.0" y="11.0" type="curve"/>
      <point x="1145.0" y="77.0" type="line"/>
      <point x="1130.0" y="70.0"/>
      <point x="1117.0" y="70.0"/>
      <point x="1105.0" y="68.0" type="curve" smooth="yes"/>
      <point x="1015.0" y="55.0"/>
      <point x="946.0" y="212.0"/>
      <point x="878.0" y="307.0" type="curve"/>
      <point x="1047.0" y="467.0" type="line"/>
      <point x="1140.0" y="467.0" type="line"/>
      <point x="1140.0" y="524.0" type="line"/>
      <point x="847.0" y="524.0" type="line"/>
      <point x="847.0" y="467.0" type="line"/>
      <point x="939.0" y="467.0" type="line"/>
      <point x="735.0" y="279.0" type="line"/>
      <point x="735.0" y="750.0" type="line"/>
      <point x="624.0" y="750.0" type="line" smooth="yes"/>
      <point x="402.0" y="750.0"/>
      <point x="344.0" y="703.0"/>
      <point x="336.0" y="623.0" type="curve" smooth="yes"/>
      <point x="333.0" y="592.0"/>
      <point x="354.0" y="558.0"/>
      <point x="370.0" y="529.0" type="curve"/>
      <point x="347.0" y="536.0"/>
      <point x="324.0" y="539.0"/>
      <point x="301.0" y="539.0" type="curve" smooth="yes"/>
      <point x="126.0" y="539.0"/>
      <point x="36.0" y="401.0"/>
      <point x="36.0" y="252.0" type="curve" smooth="yes"/>
      <point x="36.0" y="89.0"/>
      <point x="149.0" y="-14.0"/>
      <point x="289.0" y="-14.0" type="curve" smooth="yes"/>
    </contour>
    <contour>
      <point x="325.0" y="262.0" type="move" name="center"/>
    </contour>
    <contour>
      <point x="281.0" y="524.0" type="move" name="top"/>
    </contour>
    <contour>
      <point x="323.0" y="524.0" type="move" name="top"/>
    </contour>
    <contour>
      <point x="323.0" y="262.0" type="move" name="center"/>
    </contour>
    <contour>
      <point x="281.0" y="0.0" type="move" name="bottom"/>
    </contour>
    <contour>
      <point x="277.0" y="524.0" type="move" name="top"/>
    </contour>
    <contour>
      <point x="277.0" y="0.0" type="move" name="bottom"/>
    </contour>
    <contour>
      <point x="327.0" y="524.0" type="move" name="top"/>
    </contour>
    <contour>
      <point x="326.0" y="0.0" type="move" name="bottom"/>
    </contour>
    <contour>
      <point x="277.0" y="524.0" type="move" name="top"/>
    </contour>
    <contour>
      <point x="277.0" y="0.0" type="move" name="bottom"/>
    </contour>
  </outline>
</glyph>
<glyph name="ff" format="1">
  <advance width="687"/>
  <outline>
    <contour>
      <point x="233.0" y="524.0" type="line"/>
      <point x="233.0" y="607.0" type="line"/>
      <point x="233.0" y="697.0"/>
      <point x="274.0" y="732.0"/>
      <point x="331.0" y="732.0" type="curve" smooth="yes"/>
      <point x="369.0" y="732.0"/>
      <point x="397.0" y="722.0"/>
      <point x="405.0" y="715.0" type="curve"/>
      <point x="383.0" y="698.0"/>
      <point x="371.0" y="673.0"/>
      <point x="371.0" y="649.0" type="curve" smooth="yes"/>
      <point x="371.0" y="623.0"/>
      <point x="386.0" y="599.0"/>
      <point x="420.0" y="589.0" type="curve"/>
      <point x="420.0" y="589.0"/>
      <point x="420.0" y="524.0"/>
      <point x="420.0" y="524.0" type="curve"/>
    </contour>
    <contour>
      <point x="300.0" y="0.0" type="line"/>
      <point x="300.0" y="57.0" type="line"/>
      <point x="236.0" y="57.0" type="line"/>
      <point x="236.0" y="469.0" type="line"/>
      <point x="420.0" y="469.0" type="line"/>
      <point x="420.0" y="57.0" type="line"/>
      <point x="346.0" y="57.0" type="line"/>
      <point x="346.0" y="0.0" type="line"/>
      <point x="619.0" y="0.0" type="line"/>
      <point x="619.0" y="57.0" type="line"/>
      <point x="525.0" y="57.0" type="line"/>
      <point x="525.0" y="469.0" type="line"/>
      <point x="646.0" y="469.0" type="line"/>
      <point x="646.0" y="524.0" type="line"/>
      <point x="522.0" y="524.0" type="line"/>
      <point x="522.0" y="607.0" type="line" smooth="yes"/>
      <point x="522.0" y="697.0"/>
      <point x="567.0" y="732.0"/>
      <point x="624.0" y="732.0" type="curve" smooth="yes"/>
      <point x="655.0" y="732.0"/>
      <point x="692.0" y="717.0"/>
      <point x="693.0" y="691.0" type="curve"/>
      <point x="666.0" y="691.0"/>
      <point x="633.0" y="669.0"/>
      <point x="633.0" y="632.0" type="curve" smooth="yes"/>
      <point x="633.0" y="593.0"/>
      <point x="662.0" y="566.0"/>
      <point x="696.0" y="566.0" type="curve" smooth="yes"/>
      <point x="736.0" y="566.0"/>
      <point x="772.0" y="594.0"/>
      <point x="772.0" y="647.0" type="curve" smooth="yes"/>
      <point x="772.0" y="704.0"/>
      <point x="737.0" y="773.0"/>
      <point x="609.0" y="773.0" type="curve" smooth="yes"/>
      <point x="568.0" y="773.0"/>
      <point x="517.0" y="752.0"/>
      <point x="478.0" y="710.0" type="curve"/>
      <point x="453.0" y="744.0"/>
      <point x="400.0" y="773.0"/>
      <point x="329.0" y="773.0" type="curve" smooth="yes"/>
      <point x="192.0" y="773.0"/>
      <point x="131.0" y="690.0"/>
      <point x="131.0" y="524.0" type="curve"/>
      <point x="36.0" y="524.0" type="line"/>
      <point x="36.0" y="469.0" type="line"/>
      <point x="131.0" y="469.0" type="line"/>
      <point x="131.0" y="57.0" type="line"/>
      <point x="44.0" y="57.0" type="line"/>
      <point x="44.0" y="0.0" type="line"/>
    </contour>
  </outline>
</glyph>
<glyph name="ffi" format="1">
  <advance width="944"/>
  <outline>
    <contour>
      <point x="233.0" y="524.0" type="line"/>
      <point x="233.0" y="607.0" type="line"/>
      <point x="233.0" y="697.0"/>
      <point x="294.0" y="732.0"/>
      <point x="351.0" y="732.0" type="curve" smooth="yes"/>
      <point x="389.0" y="732.0"/>
      <point x="418.0" y="722.0"/>
      <point x="426.0" y="715.0" type="curve"/>
      <point x="404.0" y="698.0"/>
      <point x="392.0" y="673.0"/>
      <point x="392.0" y="649.0" type="curve" smooth="yes"/>
      <point x="392.0" y="623.0"/>
      <point x="407.0" y="599.0"/>
      <point x="441.0" y="589.0" type="curve"/>
      <point x="441.0" y="589.0"/>
      <point x="441.0" y="524.0"/>
      <point x="441.0" y="524.0" type="curve"/>
    </contour>
    <contour>
      <point x="307.0" y="0.0" type="line"/>
      <point x="307.0" y="57.0" type="line"/>
      <point x="236.0" y="57.0" type="line"/>
      <point x="236.0" y="469.0" type="line"/>
      <point x="441.0" y="469.0" type="line"/>
      <point x="441.0" y="57.0" type="line"/>
      <point x="353.0" y="57.0" type="line"/>
      <point x="353.0" y="0.0" type="line"/>
      <point x="628.0" y="0.0" type="line"/>
      <point x="628.0" y="57.0" type="line"/>
      <point x="546.0" y="57.0" type="line"/>
      <point x="546.0" y="469.0" type="line"/>
      <point x="746.0" y="469.0" type="line"/>
      <point x="746.0" y="57.0" type="line"/>
      <point x="670.0" y="57.0" type="line"/>
      <point x="670.0" y="0.0" type="line"/>
      <point x="937.0" y="0.0" type="line"/>
      <point x="937.0" y="57.0" type="line"/>
      <point x="851.0" y="57.0" type="line"/>
      <point x="851.0" y="524.0" type="line"/>
      <point x="543.0" y="524.0" type="line"/>
      <point x="543.0" y="607.0" type="line" smooth="yes"/>
      <point x="543.0" y="697.0"/>
      <point x="624.0" y="732.0"/>
      <point x="681.0" y="732.0" type="curve" smooth="yes"/>
      <point x="712.0" y="732.0"/>
      <point x="771.0" y="717.0"/>
      <point x="772.0" y="691.0" type="curve"/>
      <point x="745.0" y="691.0"/>
      <point x="709.0" y="669.0"/>
      <point x="709.0" y="632.0" type="curve" smooth="yes"/>
      <point x="709.0" y="593.0"/>
      <point x="741.0" y="566.0"/>
      <point x="775.0" y="566.0" type="curve" smooth="yes"/>
      <point x="815.0" y="566.0"/>
      <point x="848.0" y="595.0"/>
      <point x="848.0" y="648.0" type="curve" smooth="yes"/>
      <point x="848.0" y="705.0"/>
      <point x="794.0" y="773.0"/>
      <point x="666.0" y="773.0" type="curve" smooth="yes"/>
      <point x="590.0" y="773.0"/>
      <point x="538.0" y="752.0"/>
      <point x="499.0" y="710.0" type="curve"/>
      <point x="474.0" y="744.0"/>
      <point x="420.0" y="773.0"/>
      <point x="349.0" y="773.0" type="curve" smooth="yes"/>
      <point x="212.0" y="773.0"/>
      <point x="131.0" y="690.0"/>
      <point x="131.0" y="524.0" type="curve"/>
      <point x="36.0" y="524.0" type="line"/>
      <point x="36.0" y="469.0" type="line"/>
      <point x="131.0" y="469.0" type="line"/>
      <point x="131.0" y="57.0" type="line"/>
      <point x="41.0" y="57.0" type="line"/>
      <point x="41.0" y="0.0" type="line"/>
    </contour>
  </outline>
</glyph>
